<svg width="1359" height="768" viewBox="0 0 1359 768" fill="none" xmlns="http://www.w3.org/2000/svg">
<g filter="url(#filter0_d_58_1414)">
<circle cx="283.733" cy="469.905" r="82.1164" fill="url(#paint0_linear_58_1414)" fill-opacity="0.2" shape-rendering="crispEdges"/>
<circle cx="283.733" cy="469.905" r="80.6164" stroke="white" stroke-opacity="0.04" stroke-width="3" shape-rendering="crispEdges"/>
</g>
<path d="M292.663 469.825C292.663 465.044 288.665 461.167 283.733 461.167C278.802 461.167 274.804 465.044 274.804 469.825C274.804 474.607 278.802 478.483 283.733 478.483C288.665 478.483 292.663 474.607 292.663 469.825Z" fill="#53C1DE"/>
<path fill-rule="evenodd" clip-rule="evenodd" d="M312.735 453.751C314.62 446.321 316.991 432.543 308.635 427.872C300.318 423.222 289.495 432.133 283.78 437.482C278.081 432.187 266.954 423.313 258.605 427.999C250.292 432.665 252.856 446.214 254.783 453.691C247.028 455.826 233.733 460.426 233.733 469.825C233.733 479.196 247.014 484.201 254.723 486.335C252.789 493.852 250.353 507.208 258.678 511.864C267.058 516.549 278.15 507.887 283.918 502.479C289.67 507.86 300.389 516.579 308.707 511.91C317.052 507.226 314.879 493.633 312.951 486.113C320.424 483.975 333.733 479.079 333.733 469.825C333.733 460.517 320.368 455.879 312.735 453.751ZM311.787 482.128C310.522 478.244 308.813 474.113 306.724 469.845C308.718 465.679 310.36 461.601 311.591 457.741C317.186 459.314 329.462 462.909 329.462 469.825C329.462 476.805 317.682 480.434 311.787 482.128ZM306.567 508.325C300.36 511.808 291.14 503.47 286.893 499.508C289.711 496.52 292.527 493.046 295.275 489.188C300.11 488.772 304.677 488.092 308.819 487.164C310.175 492.483 312.801 504.826 306.567 508.325ZM260.812 508.275C254.605 504.805 257.442 492.887 258.865 487.349C262.961 488.228 267.495 488.86 272.341 489.241C275.108 493.016 278.005 496.485 280.925 499.524C277.318 502.908 267.048 511.762 260.812 508.275ZM238.005 469.825C238.005 462.818 250.207 459.249 255.93 457.68C257.182 461.627 258.823 465.753 260.804 469.926C258.798 474.16 257.133 478.352 255.87 482.345C250.412 480.83 238.005 476.835 238.005 469.825ZM260.746 431.584C266.978 428.086 276.649 436.605 280.786 440.439C277.881 443.464 275.01 446.907 272.268 450.66C267.565 451.083 263.063 451.761 258.924 452.671C257.371 446.641 254.52 435.078 260.746 431.584ZM298.331 455.162C301.522 455.552 304.579 456.072 307.449 456.707C306.587 459.385 305.513 462.185 304.248 465.056C302.415 461.683 300.446 458.377 298.331 455.162ZM283.781 443.399C285.751 445.468 287.725 447.779 289.666 450.287C285.728 450.106 281.784 450.105 277.847 450.284C279.79 447.8 281.78 445.492 283.781 443.399ZM263.255 465.053C262.011 462.192 260.947 459.38 260.077 456.663C262.931 456.044 265.973 455.538 269.143 455.154C267.022 458.362 265.057 461.667 263.255 465.053ZM269.234 484.791C265.96 484.436 262.871 483.956 260.019 483.354C260.902 480.59 261.989 477.717 263.26 474.794C265.087 478.216 267.082 481.552 269.234 484.791ZM283.899 496.543C281.875 494.425 279.855 492.082 277.883 489.562C281.843 489.713 285.81 489.713 289.77 489.542C287.823 492.108 285.856 494.454 283.899 496.543ZM304.289 474.646C305.626 477.6 306.752 480.457 307.647 483.175C304.748 483.816 301.617 484.333 298.319 484.717C300.45 481.441 302.45 478.084 304.289 474.646ZM292.891 485.219C286.834 485.638 280.739 485.634 274.679 485.253C271.236 480.377 268.171 475.248 265.526 469.924C268.159 464.611 271.201 459.493 274.628 454.624C280.692 454.18 286.793 454.179 292.856 454.627C296.254 459.495 299.292 464.6 301.986 469.865C299.324 475.176 296.265 480.304 292.891 485.219ZM306.501 431.46C312.735 434.947 309.96 447.329 308.598 452.714C304.45 451.785 299.944 451.095 295.228 450.665C292.48 446.872 289.633 443.422 286.775 440.437C290.965 436.52 300.327 428.008 306.501 431.46Z" fill="#53C1DE"/>
<g filter="url(#filter1_d_58_1414)">
<circle cx="1093.04" cy="176.148" r="76.1905" fill="url(#paint1_linear_58_1414)" fill-opacity="0.2" shape-rendering="crispEdges"/>
<circle cx="1093.04" cy="176.148" r="74.6905" stroke="white" stroke-opacity="0.04" stroke-width="3" shape-rendering="crispEdges"/>
</g>
<path d="M1093.04 222.074C1118.41 222.074 1138.97 201.512 1138.97 176.148C1138.97 150.784 1118.41 130.222 1093.04 130.222C1067.68 130.222 1047.12 150.784 1047.12 176.148C1047.12 201.512 1067.68 222.074 1093.04 222.074Z" fill="#8892BF"/>
<path d="M1087.92 156.465H1093.44L1091.88 164.746H1096.83C1099.55 164.804 1101.57 165.411 1102.9 166.567C1104.26 167.722 1104.66 169.92 1104.1 173.156L1101.42 187.593H1095.83L1098.39 173.807C1098.65 172.361 1098.57 171.335 1098.15 170.729C1097.72 170.122 1096.8 169.818 1095.39 169.818L1090.96 169.775L1087.68 187.593H1082.17L1087.92 156.465Z" fill="white"/>
<path fill-rule="evenodd" clip-rule="evenodd" d="M1062.67 164.746H1073.37C1076.52 164.775 1078.79 165.758 1080.2 167.694C1081.61 169.63 1082.08 172.275 1081.6 175.628C1081.42 177.16 1081 178.662 1080.36 180.137C1079.75 181.61 1078.9 182.94 1077.81 184.125C1076.48 185.628 1075.05 186.581 1073.53 186.986C1072.02 187.391 1070.45 187.593 1068.82 187.593H1064.03L1062.51 195.83H1056.96L1062.67 164.746ZM1064.95 182.694L1067.34 169.732H1068.14C1068.44 169.732 1068.74 169.717 1069.06 169.688C1071.19 169.66 1072.96 169.876 1074.37 170.339C1075.81 170.801 1076.29 172.55 1075.81 175.584C1075.22 179.197 1074.08 181.307 1072.38 181.914C1070.67 182.492 1068.54 182.766 1065.99 182.738H1065.43C1065.27 182.738 1065.11 182.723 1064.95 182.694Z" fill="white"/>
<path fill-rule="evenodd" clip-rule="evenodd" d="M1120.72 164.746H1110.02L1104.31 195.83H1109.86L1111.38 187.593H1116.17C1117.79 187.593 1119.36 187.391 1120.88 186.986C1122.4 186.581 1123.82 185.628 1125.15 184.125C1126.24 182.94 1127.1 181.61 1127.71 180.137C1128.35 178.662 1128.76 177.16 1128.95 175.628C1129.43 172.275 1128.96 169.63 1127.55 167.694C1126.14 165.758 1123.86 164.775 1120.72 164.746ZM1114.68 169.732L1112.29 182.694C1112.45 182.723 1112.61 182.738 1112.77 182.738H1113.33C1115.89 182.766 1118.02 182.492 1119.72 181.914C1121.43 181.307 1122.57 179.197 1123.16 175.584C1123.64 172.55 1123.16 170.801 1121.72 170.339C1120.31 169.876 1118.54 169.66 1116.41 169.688C1116.09 169.717 1115.78 169.732 1115.49 169.732H1114.68Z" fill="white"/>
<g filter="url(#filter2_d_58_1414)">
<circle cx="1074.42" cy="529.164" r="94.8148" fill="url(#paint2_linear_58_1414)" fill-opacity="0.2" shape-rendering="crispEdges"/>
<circle cx="1074.42" cy="529.164" r="93.3148" stroke="white" stroke-opacity="0.04" stroke-width="3" shape-rendering="crispEdges"/>
</g>
<g clip-path="url(#clip0_58_1414)">
<path d="M1104.39 486.045H1124.37L1074.42 572.204L1024.47 486.045H1062.68L1074.42 506.024L1085.91 486.045H1104.39Z" fill="#41B883"/>
<path d="M1024.47 486.045L1074.42 572.204L1124.37 486.045H1104.39L1074.42 537.741L1044.2 486.045H1024.47Z" fill="#41B883"/>
<path d="M1044.2 486.045L1074.42 537.99L1104.39 486.045H1085.91L1074.42 506.024L1062.68 486.045H1044.2Z" fill="white"/>
</g>
<g filter="url(#filter3_d_58_1414)">
<circle cx="595.267" cy="401.333" r="82.1164" fill="url(#paint3_linear_58_1414)" fill-opacity="0.2" shape-rendering="crispEdges"/>
<circle cx="595.267" cy="401.333" r="80.6164" stroke="white" stroke-opacity="0.04" stroke-width="3" shape-rendering="crispEdges"/>
</g>
<path d="M606.312 362.626C606.312 362.626 626.377 374.096 631.628 392.319C636.36 408.779 632.571 416.635 632.571 416.635C634.991 419.271 636.897 422.336 638.193 425.672C639.495 427.815 640.26 430.241 640.422 432.743C640.585 435.246 640.142 437.75 639.129 440.044C639.129 440.044 638.806 433.331 628.801 431.94C619.632 430.649 616.298 439.576 598.785 439.144C589.082 438.959 579.571 436.403 571.082 431.7C562.593 426.996 555.384 420.287 550.082 412.158C558.638 416.825 569.847 424.071 583.806 422.958C597.765 421.844 600.68 417.555 600.68 417.555C584.989 405.139 571.101 390.601 559.413 374.361C570.386 383.543 597.568 401.817 596.936 401.353C586.993 391.637 577.896 381.093 569.744 369.833C569.744 369.833 610.527 403.363 613.809 403.15C615.158 400.372 622.133 385.987 606.309 362.623L606.312 362.626Z" fill="url(#paint4_linear_58_1414)"/>
<g filter="url(#filter4_d_58_1414)">
<circle cx="420.876" cy="332.762" r="55.0265" fill="url(#paint5_linear_58_1414)" fill-opacity="0.2" shape-rendering="crispEdges"/>
<circle cx="420.876" cy="332.762" r="53.5265" stroke="white" stroke-opacity="0.04" stroke-width="3" shape-rendering="crispEdges"/>
</g>
<path d="M448.172 313.336C447.788 312.108 446.867 311.109 445.715 310.495L422.294 299.284C421.68 298.977 420.989 298.9 420.374 298.9C419.76 298.9 419.069 298.9 418.454 299.053L395.034 310.342C393.882 310.879 393.037 311.877 392.73 313.183L386.971 338.446C386.74 339.752 387.048 341.057 387.815 342.132L404.018 362.174C404.94 363.096 406.245 363.71 407.55 363.787H433.352C434.734 363.94 436.039 363.326 436.884 362.174L453.086 342.132C453.854 341.057 454.162 339.752 454.008 338.446L448.172 313.336Z" fill="#326DE6"/>
<path d="M444.564 337.448C444.487 337.448 444.411 337.448 444.411 337.371C444.411 337.294 444.257 337.294 444.103 337.294C443.796 337.218 443.489 337.218 443.182 337.218C443.028 337.218 442.875 337.218 442.721 337.141H442.644C441.8 337.064 440.878 336.911 440.034 336.68C439.803 336.603 439.573 336.373 439.496 336.143L438.882 335.989C439.189 333.762 439.035 331.459 438.575 329.232C438.037 327.005 437.116 324.855 435.887 322.935L436.348 322.474V322.397C436.348 322.167 436.425 321.86 436.578 321.706C437.269 321.092 437.96 320.631 438.728 320.17C438.882 320.094 439.035 320.017 439.189 319.94C439.496 319.787 439.726 319.633 440.034 319.479C440.11 319.403 440.187 319.403 440.264 319.326C440.341 319.249 440.264 319.249 440.264 319.172C440.955 318.635 441.109 317.713 440.571 317.022C440.341 316.715 439.88 316.485 439.496 316.485C439.112 316.485 438.728 316.638 438.421 316.869L438.344 316.945C438.267 317.022 438.191 317.099 438.114 317.099C437.884 317.329 437.653 317.56 437.5 317.79C437.423 317.944 437.269 318.02 437.192 318.097C436.655 318.711 435.964 319.326 435.273 319.787C435.119 319.863 434.966 319.94 434.812 319.94C434.735 319.94 434.582 319.94 434.505 319.863H434.428L433.814 320.247C433.199 319.633 432.508 319.019 431.894 318.404C429.053 316.177 425.52 314.795 421.911 314.411L421.835 313.797V313.874C421.604 313.72 421.527 313.49 421.451 313.259C421.451 312.415 421.451 311.57 421.604 310.649V310.572C421.604 310.418 421.681 310.265 421.681 310.111C421.758 309.804 421.758 309.497 421.835 309.19V308.729C421.911 307.961 421.297 307.193 420.529 307.116C420.068 307.039 419.608 307.27 419.224 307.654C418.917 307.961 418.763 308.345 418.763 308.729V309.113C418.763 309.42 418.84 309.727 418.917 310.034C418.993 310.188 418.993 310.341 418.993 310.495V310.572C419.147 311.416 419.147 312.261 419.147 313.183C419.07 313.413 418.993 313.643 418.763 313.797V313.951L418.686 314.565C417.842 314.642 416.997 314.795 416.075 314.949C412.466 315.717 409.164 317.636 406.63 320.324L406.17 320.017H406.093C406.016 320.017 405.939 320.094 405.786 320.094C405.632 320.094 405.478 320.017 405.325 319.94C404.634 319.403 403.943 318.788 403.405 318.174C403.328 318.02 403.175 317.944 403.098 317.867C402.868 317.636 402.714 317.406 402.484 317.176C402.407 317.099 402.33 317.099 402.253 317.022C402.176 316.945 402.176 316.945 402.176 316.945C401.869 316.715 401.485 316.561 401.101 316.561C400.641 316.561 400.257 316.715 400.026 317.099C399.566 317.79 399.719 318.711 400.334 319.249C400.41 319.249 400.41 319.326 400.41 319.326C400.41 319.326 400.564 319.479 400.641 319.479C400.871 319.633 401.178 319.787 401.485 319.94C401.639 320.017 401.793 320.094 401.946 320.17C402.714 320.631 403.482 321.092 404.096 321.706C404.25 321.86 404.403 322.167 404.327 322.397V322.321L404.787 322.781C404.711 322.935 404.634 323.012 404.557 323.165C402.176 326.928 401.178 331.382 401.869 335.759L401.255 335.912C401.255 335.989 401.178 335.989 401.178 335.989C401.101 336.219 400.871 336.373 400.641 336.527C399.796 336.757 398.951 336.911 398.03 336.987C397.876 336.987 397.723 336.987 397.569 337.064C397.262 337.064 396.955 337.141 396.648 337.141C396.571 337.141 396.494 337.218 396.34 337.218C396.264 337.218 396.264 337.218 396.187 337.294C395.342 337.448 394.805 338.216 394.958 339.061C395.112 339.752 395.803 340.212 396.494 340.136C396.648 340.136 396.724 340.136 396.878 340.059C396.955 340.059 396.955 340.059 396.955 339.982C396.955 339.905 397.185 339.982 397.262 339.982C397.569 339.905 397.876 339.752 398.107 339.675C398.26 339.598 398.414 339.521 398.567 339.521H398.644C399.489 339.214 400.257 338.984 401.178 338.83H401.255C401.485 338.83 401.716 338.907 401.869 339.061C401.946 339.061 401.946 339.137 401.946 339.137L402.637 339.061C403.789 342.593 405.939 345.741 408.934 348.045C409.625 348.583 410.239 349.043 411.007 349.427L410.623 349.965C410.623 350.042 410.7 350.042 410.7 350.042C410.854 350.272 410.854 350.579 410.777 350.809C410.47 351.577 410.009 352.345 409.548 353.036V353.113C409.471 353.267 409.395 353.343 409.241 353.497C409.088 353.651 408.934 353.958 408.704 354.265C408.627 354.342 408.627 354.419 408.55 354.495C408.55 354.495 408.55 354.572 408.473 354.572C408.089 355.34 408.396 356.261 409.088 356.645C409.241 356.722 409.471 356.799 409.625 356.799C410.239 356.799 410.777 356.415 411.084 355.878C411.084 355.878 411.084 355.801 411.161 355.801C411.161 355.724 411.238 355.647 411.314 355.57C411.391 355.263 411.545 355.033 411.622 354.726L411.775 354.265C412.006 353.42 412.389 352.652 412.773 351.884C412.927 351.654 413.157 351.501 413.388 351.424C413.465 351.424 413.465 351.424 413.465 351.347L413.772 350.733C415.922 351.577 418.149 351.961 420.452 351.961C421.835 351.961 423.217 351.808 424.599 351.424C425.444 351.27 426.288 350.963 427.056 350.733L427.363 351.27C427.44 351.27 427.44 351.27 427.44 351.347C427.671 351.424 427.901 351.577 428.054 351.808C428.438 352.576 428.822 353.343 429.053 354.188V354.265L429.206 354.726C429.283 355.033 429.36 355.34 429.513 355.57C429.59 355.647 429.59 355.724 429.667 355.801C429.667 355.801 429.667 355.878 429.744 355.878C430.051 356.415 430.589 356.799 431.203 356.799C431.433 356.799 431.587 356.722 431.817 356.645C432.124 356.492 432.431 356.185 432.508 355.801C432.585 355.417 432.585 355.033 432.431 354.649C432.431 354.572 432.355 354.572 432.355 354.572C432.355 354.495 432.278 354.419 432.201 354.342C432.048 354.035 431.894 353.804 431.664 353.574C431.587 353.42 431.51 353.343 431.356 353.19V353.036C430.819 352.345 430.435 351.577 430.128 350.809C430.051 350.579 430.051 350.272 430.205 350.042C430.205 349.965 430.281 349.965 430.281 349.965L430.051 349.35C433.967 346.97 436.962 343.284 438.344 338.907L438.959 338.984C439.035 338.984 439.035 338.907 439.035 338.907C439.189 338.753 439.419 338.677 439.65 338.677H439.726C440.571 338.83 441.416 339.061 442.184 339.368H442.261C442.414 339.445 442.568 339.521 442.721 339.521C443.028 339.675 443.259 339.829 443.566 339.905C443.643 339.905 443.72 339.982 443.873 339.982C443.95 339.982 443.95 339.982 444.027 340.059C444.18 340.136 444.257 340.136 444.411 340.136C445.102 340.136 445.716 339.675 445.946 339.061C445.87 338.216 445.255 337.602 444.564 337.448ZM422.372 335.068L420.299 336.066L418.225 335.068L417.688 332.841L419.147 330.998H421.451L422.91 332.841L422.372 335.068ZM434.889 330.076C435.273 331.689 435.349 333.301 435.196 334.914L427.901 332.841C427.21 332.687 426.826 331.996 426.979 331.305C427.056 331.075 427.133 330.921 427.287 330.767L433.046 325.546C433.89 326.928 434.505 328.464 434.889 330.076ZM430.742 322.705L424.445 327.158C423.908 327.465 423.14 327.389 422.756 326.851C422.602 326.698 422.526 326.544 422.526 326.314L422.065 318.558C425.444 318.942 428.438 320.401 430.742 322.705ZM416.843 318.788L418.379 318.481L417.995 326.16C417.995 326.851 417.381 327.389 416.69 327.389C416.459 327.389 416.306 327.312 416.075 327.235L409.702 322.705C411.698 320.785 414.156 319.403 416.843 318.788ZM407.475 325.546L413.157 330.614C413.695 331.075 413.772 331.842 413.311 332.38C413.157 332.61 413.004 332.687 412.697 332.764L405.248 334.914C405.018 331.689 405.786 328.387 407.475 325.546ZM406.17 338.523L413.772 337.218C414.386 337.218 415 337.602 415.077 338.216C415.154 338.446 415.154 338.753 415 338.984L412.082 346.048C409.395 344.282 407.245 341.595 406.17 338.523ZM423.601 348.045C422.526 348.275 421.451 348.429 420.299 348.429C418.686 348.429 416.997 348.122 415.461 347.661L419.224 340.827C419.608 340.366 420.222 340.212 420.76 340.52C420.99 340.673 421.143 340.827 421.374 341.057L425.06 347.738C424.599 347.815 424.138 347.891 423.601 348.045ZM432.969 341.364C431.817 343.207 430.205 344.82 428.362 345.972L425.367 338.753C425.213 338.139 425.52 337.525 426.058 337.294C426.288 337.218 426.519 337.141 426.749 337.141L434.428 338.446C434.044 339.521 433.583 340.52 432.969 341.364Z" fill="white"/>
<g filter="url(#filter5_d_58_1414)">
<circle cx="122.04" cy="374.243" r="55.0265" fill="url(#paint6_linear_58_1414)" fill-opacity="0.2" shape-rendering="crispEdges"/>
<circle cx="122.04" cy="374.243" r="53.5265" stroke="white" stroke-opacity="0.04" stroke-width="3" shape-rendering="crispEdges"/>
</g>
<g clip-path="url(#clip1_58_1414)">
<path d="M122.04 408.106C140.741 408.106 155.902 392.945 155.902 374.243C155.902 355.542 140.741 340.381 122.04 340.381C103.338 340.381 88.1772 355.542 88.1772 374.243C88.1772 392.945 103.338 408.106 122.04 408.106Z" fill="#5C2D91"/>
<path opacity="0.1" d="M98.569 349.905C95.1266 352.972 92.347 356.711 90.4004 360.89C88.4539 365.07 87.3814 369.603 87.2489 374.212C87.1163 378.821 87.9263 383.409 89.6294 387.693C91.3324 391.978 93.8926 395.87 97.1529 399.13C100.413 402.391 104.305 404.951 108.59 406.654C112.875 408.357 117.462 409.167 122.071 409.034C126.68 408.902 131.213 407.829 135.393 405.883C139.573 403.936 143.311 401.157 146.378 397.714L98.569 349.905Z" fill="white"/>
<path d="M96.0078 384.032C95.8103 384.035 95.6143 383.997 95.4321 383.92C95.25 383.844 95.0857 383.73 94.9496 383.587C94.8098 383.449 94.6993 383.284 94.6248 383.102C94.5502 382.92 94.5131 382.725 94.5158 382.529C94.5143 382.333 94.552 382.138 94.6265 381.956C94.7009 381.775 94.8108 381.61 94.9496 381.471C95.0843 381.325 95.2482 381.209 95.4304 381.131C95.6127 381.053 95.8094 381.013 96.0078 381.016C96.2059 381.015 96.402 381.055 96.584 381.134C96.7661 381.212 96.9301 381.327 97.066 381.471C97.2072 381.608 97.3194 381.773 97.3957 381.955C97.4721 382.137 97.5111 382.332 97.5105 382.529C97.5123 382.726 97.4738 382.922 97.3974 383.104C97.321 383.286 97.2082 383.45 97.066 383.587C96.9288 383.729 96.7643 383.841 96.5824 383.918C96.4005 383.994 96.2051 384.033 96.0078 384.032Z" fill="white"/>
<path d="M117.034 383.767H114.262L104.347 368.381C104.1 368.001 103.894 367.597 103.733 367.174H103.648C103.742 368.053 103.778 368.937 103.754 369.82V383.767H101.5V364.476H104.431L114.082 379.587C114.484 380.215 114.745 380.645 114.865 380.878H114.918C114.806 379.937 114.76 378.99 114.78 378.042V364.476H117.034V383.767Z" fill="white"/>
<path d="M132.294 383.767H122.04V364.476H131.817V366.518H124.346V372.931H131.309V374.963H124.346V381.651H132.304L132.294 383.767Z" fill="white"/>
<path d="M147.437 366.518H141.828V383.767H139.574V366.518H134.029V364.476H147.437V366.518Z" fill="white"/>
</g>
<g filter="url(#filter6_d_58_1414)">
<circle cx="770.929" cy="308.635" r="65.6085" fill="url(#paint7_linear_58_1414)" fill-opacity="0.2" shape-rendering="crispEdges"/>
<circle cx="770.929" cy="308.635" r="64.1085" stroke="white" stroke-opacity="0.04" stroke-width="3" shape-rendering="crispEdges"/>
</g>
<path d="M799.05 281.809C795.582 277.05 790.468 273.75 784.702 272.55C778.937 271.35 772.931 272.337 767.852 275.317L750.082 286.307C747.7 287.742 745.648 289.665 744.061 291.948C742.474 294.232 741.388 296.825 740.873 299.558C740.028 304.129 740.775 308.852 742.989 312.939C741.472 315.17 740.435 317.693 739.944 320.346C739.439 323.116 739.508 325.961 740.145 328.703C740.782 331.446 741.974 334.029 743.648 336.293C747.117 341.053 752.23 344.354 757.996 345.556C763.762 346.758 769.768 345.774 774.849 342.796L792.622 331.809C795.003 330.373 797.054 328.45 798.641 326.167C800.228 323.883 801.315 321.29 801.831 318.558C802.681 313.983 801.934 309.256 799.714 305.166C801.233 302.936 802.271 300.413 802.762 297.759C803.267 294.988 803.198 292.143 802.559 289.399C801.921 286.656 800.727 284.073 799.05 281.809Z" fill="#FF3E00"/>
<path d="M766.119 337.206C763.341 337.919 760.412 337.781 757.713 336.809C755.014 335.838 752.669 334.079 750.982 331.759C749.971 330.399 749.251 328.847 748.865 327.197C748.479 325.547 748.436 323.836 748.738 322.169C748.839 321.622 748.979 321.082 749.159 320.555L749.495 319.563L750.405 320.193C752.517 321.698 754.868 322.837 757.357 323.563L758.005 323.756L757.939 324.383C757.863 325.295 758.118 326.204 758.656 326.944C759.163 327.66 759.875 328.205 760.699 328.506C761.523 328.806 762.419 328.849 763.267 328.627C763.651 328.527 764.017 328.371 764.355 328.164L782.08 317.174C782.511 316.913 782.883 316.564 783.172 316.149C783.46 315.735 783.658 315.265 783.754 314.77C783.849 314.27 783.841 313.756 783.73 313.26C783.619 312.763 783.408 312.295 783.109 311.883C782.6 311.184 781.892 310.653 781.078 310.359C780.264 310.066 779.381 310.024 778.542 310.238C778.157 310.338 777.789 310.495 777.45 310.704L770.646 314.894C769.527 315.586 768.311 316.105 767.037 316.434C764.256 317.148 761.325 317.011 758.624 316.039C755.922 315.067 753.575 313.306 751.886 310.984C750.883 309.62 750.17 308.064 749.792 306.413C749.413 304.762 749.378 303.051 749.688 301.386C750 299.746 750.654 298.189 751.606 296.818C752.558 295.446 753.787 294.289 755.214 293.423L772.96 282.434C774.079 281.742 775.296 281.224 776.569 280.897C779.35 280.181 782.282 280.317 784.984 281.289C787.686 282.26 790.034 284.021 791.722 286.344C792.733 287.704 793.453 289.256 793.839 290.906C794.225 292.556 794.268 294.267 793.966 295.934C793.865 296.481 793.725 297.021 793.545 297.547L793.209 298.54L792.299 297.913C790.188 296.406 787.837 295.266 785.347 294.542L784.699 294.346L784.765 293.719C784.841 292.807 784.585 291.898 784.045 291.159C783.538 290.458 782.831 289.926 782.017 289.633C781.203 289.339 780.32 289.298 779.482 289.513C779.098 289.612 778.731 289.769 778.394 289.979L760.611 300.931C760.18 301.191 759.808 301.54 759.52 301.954C759.232 302.368 759.035 302.838 758.942 303.333C758.844 303.833 758.851 304.348 758.962 304.845C759.073 305.342 759.286 305.811 759.587 306.222C760.097 306.921 760.804 307.452 761.618 307.745C762.432 308.038 763.315 308.079 764.154 307.865C764.538 307.765 764.907 307.609 765.246 307.402L772.024 303.209C773.142 302.516 774.359 301.998 775.632 301.672C778.413 300.957 781.345 301.095 784.047 302.066C786.748 303.037 789.096 304.797 790.786 307.119C791.794 308.48 792.511 310.033 792.895 311.683C793.279 313.332 793.32 315.043 793.016 316.709C792.706 318.351 792.054 319.909 791.101 321.283C790.149 322.656 788.919 323.813 787.49 324.68L769.746 335.669C768.628 336.362 767.412 336.88 766.138 337.206" fill="white"/>
<g filter="url(#filter7_d_58_1414)">
<circle cx="262.992" cy="277.312" r="65.6085" fill="url(#paint8_linear_58_1414)" fill-opacity="0.2" shape-rendering="crispEdges"/>
<circle cx="262.992" cy="277.312" r="64.1085" stroke="white" stroke-opacity="0.04" stroke-width="3" shape-rendering="crispEdges"/>
</g>
<path d="M274.394 258.704L267.103 246.006H247.972C246.269 246.006 244.682 246.915 243.855 248.403L228.379 275.371C227.536 276.843 227.536 278.628 228.379 280.116L234.265 290.384L241.54 277.752L252.486 258.704H274.394Z" fill="#F8BB16"/>
<path d="M298.501 275.371L283.025 248.403C282.165 246.932 280.595 246.006 278.908 246.006H267.103L274.394 258.704L285.34 277.752L274.394 296.8H288.944L298.501 280.116C299.328 278.645 299.328 276.842 298.501 275.371Z" fill="#EA4334"/>
<path d="M288.928 296.783H252.453L241.508 277.735L234.232 290.368L243.822 307.067C244.682 308.539 246.253 309.465 247.939 309.465H278.875C280.578 309.465 282.166 308.555 282.992 307.067L288.928 296.783Z" fill="#0074BC"/>
<path d="M274.361 296.783H252.437L241.507 277.735L252.453 258.688H274.361L285.34 277.735L274.361 296.783ZM263.415 268.228C258.141 268.228 253.892 272.477 253.892 277.752C253.892 283.026 258.141 287.275 263.415 287.275C268.69 287.275 272.939 283.026 272.939 277.752C272.939 272.477 268.673 268.228 263.415 268.228Z" fill="#E2E3E4"/>
<g filter="url(#filter8_d_58_1414)">
<circle cx="1228.92" cy="356.889" r="65.6085" fill="url(#paint9_linear_58_1414)" fill-opacity="0.2" shape-rendering="crispEdges"/>
<circle cx="1228.92" cy="356.889" r="64.1085" stroke="white" stroke-opacity="0.04" stroke-width="3" shape-rendering="crispEdges"/>
</g>
<path d="M1227.71 363.439L1236.6 354.777H1258.69L1239.12 374.343L1227.71 363.439Z" fill="#40D0FD"/>
<path d="M1199.99 357.643L1211.1 369.016L1258.69 321.034H1236.6L1199.99 357.643Z" fill="#41D0FD"/>
<path d="M1216.58 374.452L1227.85 385.553L1239.12 374.344L1227.71 363.439L1216.58 374.452Z" fill="#1FBCFD"/>
<path d="M1227.85 385.553L1239.12 374.344L1258.41 393.854H1236.2L1227.85 385.553Z" fill="#095A9D"/>
<path d="M1227.85 385.553L1238.35 382.058L1234.81 378.627L1227.85 385.553Z" fill="#0E5199"/>
<g filter="url(#filter9_d_58_1414)">
<circle cx="608.812" cy="581.651" r="55.0265" fill="url(#paint10_linear_58_1414)" fill-opacity="0.2" shape-rendering="crispEdges"/>
<circle cx="608.812" cy="581.651" r="53.5265" stroke="white" stroke-opacity="0.04" stroke-width="3" shape-rendering="crispEdges"/>
</g>
<path d="M606.487 601.102C614.938 599.609 621.919 598.373 621.999 598.356L622.145 598.325L614.166 588.834C609.777 583.614 606.186 579.323 606.186 579.299C606.186 579.252 614.426 556.563 614.472 556.482C614.487 556.455 620.094 566.136 628.064 579.948C635.524 592.879 641.676 603.541 641.733 603.641L641.837 603.823L616.478 603.82L591.12 603.816L606.487 601.102ZM576.054 598.208C576.054 598.194 579.813 591.668 584.409 583.704L592.764 569.225L602.5 561.054C607.856 556.56 612.252 552.877 612.269 552.87C612.287 552.864 612.216 553.041 612.113 553.264C612.009 553.488 607.251 563.693 601.54 575.942L591.156 598.213L583.605 598.222C579.452 598.228 576.054 598.221 576.054 598.208Z" fill="white"/>
<g filter="url(#filter10_d_58_1414)">
<circle cx="459.818" cy="516.466" r="46.5608" fill="url(#paint11_linear_58_1414)" fill-opacity="0.2" shape-rendering="crispEdges"/>
<circle cx="459.818" cy="516.466" r="45.0608" stroke="white" stroke-opacity="0.04" stroke-width="3" shape-rendering="crispEdges"/>
</g>
<g clip-path="url(#clip2_58_1414)">
<path d="M448.71 506.054L445.755 503.099L445.767 524.456L445.803 525.454C445.817 525.924 445.905 526.454 446.05 527.003L469.461 535.259L475.313 532.666L475.316 532.659L448.71 506.054Z" fill="#00D2B8"/>
<path d="M446.05 527.004L446.051 527.005C446.05 526.995 446.045 526.985 446.045 526.975C446.045 526.985 446.046 526.994 446.05 527.004ZM475.313 532.666L469.461 535.259L446.051 527.005C446.498 528.721 447.488 530.649 448.554 531.704L456.194 539.3L473.181 539.322L475.316 532.659L475.313 532.666Z" fill="#55DDCA"/>
<path d="M436.656 516.843C435.899 517.651 436.275 519.316 437.493 520.543L442.746 525.84L446.05 527.003C445.904 526.454 445.817 525.924 445.803 525.454L445.767 524.456L445.755 503.099L436.656 516.843Z" fill="#0081C6"/>
<path d="M469.653 503.374C469.104 503.233 468.577 503.147 468.1 503.132L467.045 503.095L445.755 503.098L475.318 532.659H475.321L477.917 526.801L469.653 503.374Z" fill="#0079B3"/>
<path d="M469.626 503.368C469.638 503.37 469.647 503.373 469.654 503.374L469.653 503.373C469.647 503.37 469.638 503.37 469.626 503.368ZM474.349 505.882C473.276 504.8 471.373 503.817 469.654 503.374L477.917 526.801L475.321 532.659H475.318L481.663 530.632L481.677 513.237L474.349 505.882Z" fill="#00A4E4"/>
<path d="M468.496 500.09L463.201 494.834C461.976 493.62 460.31 493.243 459.504 493.997L445.755 503.098L467.045 503.095L468.1 503.131C468.577 503.146 469.104 503.233 469.653 503.374L468.496 500.09Z" fill="#00D2B8"/>
</g>
<g filter="url(#filter11_d_58_1414)">
<circle cx="442.886" cy="160.063" r="63.4921" fill="url(#paint12_linear_58_1414)" fill-opacity="0.2" shape-rendering="crispEdges"/>
<circle cx="442.886" cy="160.063" r="61.9921" stroke="white" stroke-opacity="0.04" stroke-width="3" shape-rendering="crispEdges"/>
</g>
<path d="M442.886 154.294L471.852 161.487C476.894 159.513 479.923 157.011 479.923 154.294V142.722C479.923 136.349 463.336 131.164 442.886 131.164C422.436 131.164 405.849 136.347 405.849 142.722V154.296C405.849 160.675 422.428 165.855 442.886 165.855V154.294Z" fill="#D33E44"/>
<path d="M471.849 161.487L442.886 154.291V165.852L471.852 173.048C476.892 171.069 479.923 168.571 479.923 165.852V154.291C479.923 157.011 476.892 159.511 471.849 161.487Z" fill="white"/>
<path d="M405.849 154.291V165.852C405.849 172.23 422.428 177.402 442.886 177.402V165.852C422.428 165.852 405.849 160.667 405.849 154.291Z" fill="white"/>
<path d="M471.849 173.047L442.886 165.852V177.412L471.852 184.608C476.892 182.632 479.923 180.132 479.923 177.412V165.852C479.923 168.571 476.892 171.071 471.849 173.047Z" fill="#D33E44"/>
<path d="M405.849 165.852V177.412C405.849 183.791 422.428 188.963 442.886 188.963V177.412C422.428 177.412 405.849 172.233 405.849 165.852Z" fill="#D33E44"/>
<g filter="url(#filter12_d_58_1414)">
<circle cx="595.267" cy="217.63" r="46.5608" fill="url(#paint13_linear_58_1414)" fill-opacity="0.2" shape-rendering="crispEdges"/>
<circle cx="595.267" cy="217.63" r="45.0608" stroke="white" stroke-opacity="0.04" stroke-width="3" shape-rendering="crispEdges"/>
</g>
<g clip-path="url(#clip3_58_1414)">
<path d="M619.193 231.809C619.578 231.145 619.818 230.396 619.818 229.724V206.382C619.818 205.71 619.579 204.961 619.193 204.296L595.268 218.053L619.193 231.809Z" fill="#00599C"/>
<path d="M597.393 245.061L617.692 233.391C618.276 233.055 618.808 232.474 619.193 231.809L595.267 218.053L571.342 231.809C571.727 232.474 572.259 233.055 572.843 233.391L593.141 245.061C594.311 245.734 596.224 245.734 597.393 245.061Z" fill="#004482"/>
<path d="M619.193 204.296C618.808 203.631 618.276 203.051 617.692 202.715L597.394 191.044C596.224 190.371 594.311 190.371 593.141 191.044L572.843 202.715C571.674 203.387 570.717 205.037 570.717 206.382V229.723C570.717 230.396 570.957 231.145 571.342 231.809L595.268 218.053L619.193 204.296Z" fill="#659AD2"/>
<path d="M595.268 234.352C586.243 234.352 578.901 227.04 578.901 218.053C578.901 209.065 586.243 201.753 595.268 201.753C601.091 201.753 606.522 204.874 609.441 209.898L602.358 213.98C600.897 211.465 598.18 209.903 595.268 209.903C590.755 209.903 587.084 213.559 587.084 218.053C587.084 222.546 590.755 226.203 595.268 226.203C598.18 226.203 600.897 224.64 602.359 222.125L609.442 226.207C606.523 231.231 601.091 234.352 595.268 234.352Z" fill="white"/>
<path d="M611.634 217.147H609.816V215.336H607.997V217.147H606.179V218.958H607.997V220.77H609.816V218.958H611.634V217.147Z" fill="white"/>
<path d="M618.454 217.147H616.636V215.336H614.817V217.147H612.999V218.958H614.817V220.77H616.636V218.958H618.454V217.147Z" fill="white"/>
</g>
<g filter="url(#filter13_d_58_1414)">
<circle cx="595.267" cy="74.5609" r="46.5608" fill="url(#paint14_linear_58_1414)" fill-opacity="0.2" shape-rendering="crispEdges"/>
<circle cx="595.267" cy="74.5609" r="45.0608" stroke="white" stroke-opacity="0.04" stroke-width="3" shape-rendering="crispEdges"/>
</g>
<g clip-path="url(#clip4_58_1414)">
<path d="M566.851 71.297C566.732 71.297 566.704 71.2386 566.762 71.1471L567.387 70.3471C567.445 70.2582 567.593 70.1998 567.712 70.1998H578.307C578.424 70.1998 578.455 70.2887 578.396 70.3776L577.891 71.1471C577.833 71.2386 577.683 71.3249 577.594 71.3249L566.851 71.297ZM562.371 74.0271C562.252 74.0271 562.221 73.9687 562.282 73.8798L562.904 73.0773C562.963 72.9884 563.113 72.93 563.232 72.93H576.763C576.883 72.93 576.941 73.0189 576.911 73.1078L576.674 73.8189C576.644 73.9382 576.527 73.9967 576.408 73.9967L562.371 74.0271ZM569.553 76.7573C569.434 76.7573 569.403 76.6684 569.464 76.5795L569.878 75.8379C569.937 75.749 570.056 75.6602 570.175 75.6602H576.111C576.23 75.6602 576.288 75.749 576.288 75.8684L576.23 76.5795C576.23 76.6989 576.111 76.7878 576.022 76.7878L569.553 76.7573ZM600.357 70.7636C598.488 71.2386 597.21 71.5941 595.372 72.069C594.925 72.1859 594.897 72.2163 594.508 71.7719C594.066 71.2665 593.739 70.9414 593.116 70.6443C591.245 69.7249 589.434 69.9916 587.745 71.0887C585.726 72.3941 584.687 74.3243 584.718 76.7268C584.746 79.1014 586.379 81.0595 588.723 81.3871C590.742 81.6538 592.431 80.9427 593.769 79.429C594.036 79.1014 594.272 78.7459 594.569 78.3294H588.842C588.22 78.3294 588.07 77.9433 588.278 77.4405C588.664 76.5211 589.375 74.977 589.792 74.2049C589.855 74.0619 589.96 73.9406 590.091 73.8562C590.223 73.7718 590.377 73.7279 590.533 73.73H601.335C601.276 74.5325 601.276 75.3325 601.157 76.1351C600.85 78.2479 600.013 80.2486 598.724 81.9509C596.588 84.77 593.797 86.5224 590.267 86.9948C587.359 87.3808 584.657 86.817 582.285 85.0392C580.088 83.3757 578.841 81.1789 578.516 78.4487C578.13 75.2132 579.079 72.3052 581.038 69.7529C583.146 66.9948 585.934 65.2424 589.347 64.6202C592.136 64.1148 594.808 64.4424 597.21 66.0729C598.785 67.1141 599.91 68.5363 600.654 70.2582C600.832 70.5249 600.713 70.6748 600.357 70.7636ZM610.18 87.1751C607.478 87.1141 605.015 86.3421 602.937 84.5617C601.209 83.1052 600.07 81.0696 599.732 78.8348C599.199 75.4824 600.118 72.5135 602.137 69.8722C604.304 67.0227 606.914 65.5395 610.447 64.9173C613.474 64.384 616.324 64.6786 618.904 66.4309C621.248 68.0309 622.704 70.1998 623.09 73.0468C623.593 77.0544 622.437 80.3179 619.676 83.109C617.718 85.0976 615.313 86.3421 612.553 86.9059C611.753 87.0557 610.953 87.0836 610.18 87.1751ZM617.241 75.1852C617.213 74.7992 617.213 74.5021 617.154 74.2049C616.621 71.2665 613.919 69.6055 611.1 70.2582C608.339 70.8805 606.559 72.6328 605.906 75.4214C605.373 77.7376 606.5 80.0817 608.636 81.0316C610.269 81.7427 611.9 81.6538 613.474 80.8538C615.819 79.6348 617.091 77.7376 617.241 75.1852Z" fill="#00FF8F"/>
</g>
<g filter="url(#filter14_d_58_1414)">
<circle cx="893.257" cy="412.339" r="57.5661" fill="url(#paint15_linear_58_1414)" fill-opacity="0.2" shape-rendering="crispEdges"/>
<circle cx="893.257" cy="412.339" r="56.0661" stroke="white" stroke-opacity="0.04" stroke-width="3" shape-rendering="crispEdges"/>
</g>
<g clip-path="url(#clip5_58_1414)">
<path d="M893.255 374.317C872.258 374.317 855.235 391.339 855.235 412.336C855.235 433.336 872.258 450.359 893.255 450.359C914.255 450.359 931.277 433.336 931.277 412.336C931.277 391.339 914.255 374.317 893.255 374.317ZM913.76 396.322C912 396.384 910.785 395.333 910.728 393.734C910.71 393.148 910.861 392.638 911.263 392.038C911.655 391.27 911.74 391.181 911.73 390.845C911.694 389.84 910.173 389.802 909.757 389.821C904.05 390.01 902.545 397.712 901.326 403.976L900.73 407.278C904.016 407.759 906.349 407.166 907.651 406.324C909.483 405.135 907.137 403.913 907.432 402.56C907.734 401.181 908.987 400.515 909.983 400.489C911.378 400.452 912.374 401.901 912.343 403.369C912.294 405.798 909.072 409.134 902.627 408.997C901.842 408.98 901.12 408.924 900.447 408.842L899.23 415.554C898.142 420.633 896.697 427.576 891.523 433.633C887.078 438.92 882.568 439.739 880.549 439.807C876.769 439.937 874.265 437.921 874.173 435.232C874.087 432.627 876.389 431.203 877.901 431.156C879.917 431.089 881.313 432.551 881.367 434.235C881.419 435.659 880.675 436.104 880.181 436.373C879.853 436.638 879.359 436.909 879.377 437.495C879.389 437.745 879.658 438.323 880.497 438.296C882.095 438.242 883.156 437.451 883.897 436.922C887.579 433.857 888.995 428.51 890.85 418.779L891.239 416.422C891.873 413.256 892.573 409.729 893.644 406.213C891.049 404.259 889.493 401.838 886.004 400.891C883.611 400.24 882.152 400.792 881.127 402.089C879.912 403.625 880.315 405.624 881.488 406.796L883.427 408.94C885.802 411.686 887.104 413.822 886.613 416.694C885.838 421.285 880.37 424.803 873.908 422.817C868.391 421.118 867.36 417.212 868.023 415.058C868.608 413.165 870.112 412.808 871.584 413.257C873.159 413.746 873.777 415.662 873.326 417.13C873.275 417.287 873.194 417.553 873.03 417.903C872.847 418.309 872.509 418.665 872.361 419.137C872.007 420.293 873.59 421.114 874.693 421.453C877.162 422.213 879.571 420.922 880.181 418.925C880.748 417.089 879.588 415.808 879.106 415.317L876.769 412.814C875.7 411.623 873.349 408.304 874.495 404.576C874.937 403.139 875.87 401.614 877.22 400.604C880.074 398.478 883.178 398.128 886.134 398.979C889.956 400.078 891.794 402.607 894.176 404.558C895.509 400.649 897.357 396.821 900.136 393.591C902.646 390.647 906.017 388.517 909.879 388.384C913.739 388.257 916.656 390.006 916.752 392.775C916.791 393.954 916.114 396.244 913.76 396.322Z" fill="#00FF8F"/>
</g>
<g filter="url(#filter15_d_58_1414)">
<circle cx="1247.97" cy="496.148" r="38.0952" fill="url(#paint16_linear_58_1414)" fill-opacity="0.2" shape-rendering="crispEdges"/>
<circle cx="1247.97" cy="496.148" r="36.5952" stroke="white" stroke-opacity="0.04" stroke-width="3" shape-rendering="crispEdges"/>
</g>
<g clip-path="url(#clip6_58_1414)">
<path d="M1248.04 478.37L1230.19 497.143V513.926L1248.01 496.069L1265.74 478.37H1248.04Z" fill="url(#paint17_linear_58_1414)"/>
<path d="M1230.19 513.926L1248.01 496.069L1265.74 513.926H1230.19Z" fill="url(#paint18_linear_58_1414)"/>
<path d="M1230.19 478.37H1248.04L1230.19 497.143V478.37Z" fill="url(#paint19_linear_58_1414)"/>
</g>
<g filter="url(#filter16_d_58_1414)">
<circle cx="131.775" cy="574.455" r="67.3016" fill="url(#paint20_linear_58_1414)" fill-opacity="0.2" shape-rendering="crispEdges"/>
<circle cx="131.775" cy="574.455" r="65.8016" stroke="white" stroke-opacity="0.04" stroke-width="3" shape-rendering="crispEdges"/>
</g>
<g clip-path="url(#clip7_58_1414)">
<path d="M159.127 584.869C162.107 584.507 168.679 583.725 169.849 585.232C171.018 586.712 168.54 592.935 167.426 595.698C167.092 596.536 167.816 596.87 168.568 596.229C173.469 592.098 174.75 583.474 173.747 582.218C172.745 580.99 164.14 579.929 158.904 583.614C158.097 584.2 158.236 584.981 159.127 584.869Z" fill="#FF9900"/>
<path d="M132.115 599.968C143.56 599.968 156.871 596.368 166.033 589.586C167.537 588.47 166.228 586.768 164.696 587.465C154.421 591.819 143.254 593.94 133.09 593.94C118.024 593.94 103.46 589.782 91.6533 582.916C90.6222 582.302 89.8428 583.363 90.7057 584.144C101.622 594.024 116.075 599.968 132.115 599.968Z" fill="#FF9900"/>
<path d="M113.931 568.013C113.931 569.046 114.042 569.883 114.237 570.497C114.484 571.187 114.782 571.859 115.129 572.506C115.267 572.729 115.323 572.953 115.323 573.148C115.323 573.427 115.156 573.707 114.794 573.986L113.04 575.158C112.789 575.325 112.538 575.409 112.316 575.409C112.037 575.409 111.759 575.269 111.48 575.018C111.105 574.614 110.769 574.174 110.478 573.706C110.166 573.17 109.878 572.62 109.614 572.059C107.442 574.627 104.713 575.911 101.427 575.911C99.0879 575.911 97.2226 575.241 95.858 573.902C94.4933 572.562 93.7969 570.775 93.7969 568.543C93.7969 566.171 94.6321 564.245 96.3309 562.794C98.0297 561.342 100.285 560.617 103.154 560.617C104.101 560.617 105.075 560.701 106.106 560.84C107.136 560.98 108.194 561.203 109.308 561.454V559.417C109.308 557.296 108.862 555.817 107.999 554.951C107.108 554.086 105.604 553.668 103.46 553.668C102.485 553.668 101.483 553.779 100.453 554.03C99.4287 554.275 98.4237 554.592 97.445 554.98C97.1283 555.122 96.8028 555.243 96.4703 555.343C96.2756 555.398 96.1362 555.426 96.0245 555.426C95.635 555.426 95.4398 555.147 95.4398 554.561V553.193C95.4398 552.747 95.4962 552.412 95.635 552.217C95.7739 552.021 96.0245 551.826 96.4144 551.63C97.3891 551.128 98.5591 550.71 99.9232 550.374C101.288 550.012 102.737 549.844 104.268 549.844C107.582 549.844 110.004 550.598 111.563 552.105C113.095 553.612 113.875 555.901 113.875 558.97V568.013H113.931ZM102.625 572.255C103.544 572.255 104.491 572.088 105.493 571.753C106.495 571.418 107.386 570.804 108.138 569.967C108.584 569.436 108.918 568.85 109.085 568.18C109.252 567.51 109.363 566.701 109.363 565.752V564.58C108.519 564.374 107.664 564.216 106.802 564.106C105.934 563.995 105.059 563.939 104.184 563.938C102.318 563.938 100.954 564.301 100.035 565.054C99.1161 565.808 98.6702 566.869 98.6702 568.264C98.6702 569.576 99.0044 570.552 99.7008 571.222C100.369 571.92 101.344 572.255 102.624 572.255H102.625ZM124.986 575.269C124.485 575.269 124.151 575.185 123.928 574.99C123.705 574.823 123.51 574.431 123.343 573.901L116.799 552.328C116.632 551.77 116.548 551.407 116.548 551.212C116.548 550.766 116.771 550.514 117.217 550.514H119.945C120.475 550.514 120.837 550.598 121.032 550.793C121.255 550.961 121.421 551.352 121.589 551.882L126.268 570.357L130.612 551.882C130.75 551.323 130.917 550.961 131.14 550.793C131.363 550.626 131.753 550.514 132.254 550.514H134.482C135.011 550.514 135.373 550.598 135.596 550.793C135.819 550.961 136.014 551.352 136.125 551.882L140.525 570.581L145.343 551.882C145.509 551.323 145.704 550.961 145.899 550.793C146.122 550.626 146.484 550.514 146.986 550.514H149.575C150.021 550.514 150.272 550.737 150.272 551.212C150.272 551.351 150.244 551.491 150.216 551.658C150.172 551.896 150.107 552.13 150.021 552.356L143.31 573.93C143.142 574.488 142.948 574.851 142.725 575.018C142.502 575.186 142.14 575.298 141.667 575.298H139.272C138.742 575.298 138.38 575.214 138.158 575.018C137.935 574.823 137.74 574.46 137.629 573.902L133.313 555.901L129.024 573.874C128.885 574.433 128.718 574.795 128.495 574.991C128.272 575.186 127.882 575.269 127.381 575.269L124.986 575.269ZM160.77 576.023C159.322 576.023 157.874 575.855 156.481 575.521C155.089 575.185 154.003 574.823 153.279 574.404C152.833 574.153 152.527 573.873 152.416 573.623C152.307 573.376 152.25 573.11 152.249 572.841V571.418C152.249 570.832 152.471 570.552 152.889 570.552C153.056 570.552 153.223 570.581 153.39 570.636C153.557 570.692 153.808 570.804 154.087 570.915C155.07 571.349 156.097 571.676 157.15 571.892C158.264 572.115 159.35 572.227 160.464 572.227C162.218 572.227 163.583 571.92 164.529 571.306C165.476 570.692 165.977 569.799 165.977 568.654C165.977 567.873 165.727 567.232 165.226 566.701C164.725 566.171 163.778 565.697 162.413 565.25L158.375 563.994C156.342 563.352 154.838 562.403 153.92 561.147C153.001 559.919 152.527 558.552 152.527 557.101C152.527 555.928 152.778 554.896 153.279 554.003C153.78 553.11 154.448 552.328 155.284 551.714C156.12 551.073 157.066 550.598 158.18 550.263C159.294 549.928 160.464 549.789 161.689 549.789C162.302 549.789 162.942 549.817 163.555 549.9C164.195 549.984 164.78 550.096 165.365 550.207C165.922 550.347 166.451 550.486 166.952 550.653C167.453 550.821 167.843 550.988 168.122 551.156C168.512 551.38 168.79 551.602 168.957 551.854C169.124 552.077 169.208 552.384 169.208 552.775V554.087C169.208 554.673 168.985 554.98 168.567 554.98C168.344 554.98 167.983 554.869 167.509 554.645C165.922 553.92 164.139 553.557 162.162 553.557C160.575 553.557 159.322 553.808 158.459 554.338C157.595 554.869 157.15 555.678 157.15 556.822C157.15 557.603 157.428 558.273 157.985 558.803C158.542 559.334 159.572 559.864 161.048 560.338L165.003 561.595C167.008 562.236 168.456 563.13 169.319 564.274C170.183 565.418 170.6 566.729 170.6 568.181C170.6 569.381 170.35 570.469 169.876 571.418C169.375 572.367 168.707 573.204 167.843 573.874C166.98 574.572 165.95 575.074 164.752 575.437C163.499 575.828 162.19 576.023 160.77 576.023Z" fill="white"/>
</g>
<g filter="url(#filter17_d_58_1414)">
<circle cx="375.162" cy="619.746" r="38.0952" fill="url(#paint21_linear_58_1414)" fill-opacity="0.2" shape-rendering="crispEdges"/>
<circle cx="375.162" cy="619.746" r="36.5952" stroke="white" stroke-opacity="0.04" stroke-width="3" shape-rendering="crispEdges"/>
</g>
<g clip-path="url(#clip8_58_1414)">
<rect x="357.384" y="601.968" width="35.5556" height="35.5556" rx="9" fill="url(#paint22_linear_58_1414)" fill-opacity="0.2"/>
<path d="M392.939 601.968H357.384V637.524H392.939V601.968Z" fill="#F7DF1E"/>
<path d="M381.268 629.746C381.984 630.915 382.916 631.775 384.564 631.775C385.948 631.775 386.833 631.083 386.833 630.127C386.833 628.981 385.924 628.576 384.4 627.909L383.565 627.551C381.154 626.523 379.552 625.237 379.552 622.516C379.552 620.011 381.462 618.103 384.445 618.103C386.57 618.103 388.097 618.842 389.198 620.778L386.596 622.449C386.023 621.422 385.405 621.017 384.445 621.017C383.467 621.017 382.847 621.638 382.847 622.449C382.847 623.451 383.467 623.857 384.901 624.478L385.736 624.835C388.575 626.053 390.178 627.294 390.178 630.084C390.178 633.092 387.815 634.74 384.641 634.74C381.538 634.74 379.534 633.262 378.553 631.323L381.268 629.746ZM369.465 630.036C369.99 630.967 370.468 631.754 371.616 631.754C372.713 631.754 373.406 631.325 373.406 629.655V618.294H376.747V629.7C376.747 633.159 374.719 634.734 371.758 634.734C369.083 634.734 367.533 633.35 366.746 631.682L369.465 630.036Z" fill="black"/>
</g>
<rect x="358.884" y="603.468" width="32.5556" height="32.5556" rx="7.5" stroke="white" stroke-opacity="0.04" stroke-width="3"/>
<g filter="url(#filter18_d_58_1414)">
<circle cx="283.733" cy="113.502" r="38.0952" fill="url(#paint23_linear_58_1414)" fill-opacity="0.2" shape-rendering="crispEdges"/>
<circle cx="283.733" cy="113.502" r="36.5952" stroke="white" stroke-opacity="0.04" stroke-width="3" shape-rendering="crispEdges"/>
</g>
<g clip-path="url(#clip9_58_1414)">
<path d="M282.418 117.49C282.418 120.623 280.786 122.595 278.178 122.595C275.571 122.595 273.939 120.612 273.939 117.49C273.939 114.346 275.571 112.374 278.178 112.374C280.786 112.374 282.418 114.346 282.418 117.49ZM286.055 106.436L284.916 106.513C284.27 106.556 283.985 106.787 283.985 107.203C283.985 107.641 284.346 107.882 284.85 107.882C285.54 107.882 286.055 107.433 286.055 106.83V106.436ZM302.357 113.502C302.357 123.899 294.129 132.127 283.733 132.127C273.336 132.127 265.108 123.899 265.108 113.502C265.108 103.106 273.336 94.8779 283.733 94.8779C294.129 94.8779 302.357 103.106 302.357 113.502ZM288.049 106.206C288.049 107.718 288.882 108.638 290.24 108.638C291.391 108.638 292.114 107.992 292.234 107.071H291.336C291.215 107.575 290.821 107.849 290.24 107.849C289.473 107.849 289.002 107.225 289.002 106.206C289.002 105.198 289.473 104.595 290.24 104.595C290.854 104.595 291.237 104.946 291.336 105.395H292.234C292.114 104.497 291.413 103.818 290.24 103.818C288.882 103.807 288.049 104.727 288.049 106.206ZM275.527 103.905V108.55H276.447V105.702C276.447 105.099 276.875 104.617 277.433 104.617C277.981 104.617 278.332 104.946 278.332 105.472V108.55H279.23V105.614C279.23 105.056 279.613 104.617 280.216 104.617C280.819 104.617 281.114 104.924 281.114 105.57V108.55H282.035V105.34C282.035 104.376 281.487 103.807 280.545 103.807C279.898 103.807 279.361 104.135 279.131 104.639H279.055C278.847 104.135 278.408 103.807 277.773 103.807C277.148 103.807 276.677 104.113 276.48 104.639H276.414V103.894L275.527 103.905ZM284.05 117.49C284.05 113.447 281.794 110.906 278.178 110.906C274.563 110.906 272.306 113.447 272.306 117.49C272.306 121.533 274.563 124.063 278.178 124.063C281.794 124.063 284.05 121.522 284.05 117.49ZM284.62 108.627C285.234 108.627 285.738 108.364 286.022 107.893H286.099V108.55H286.987V105.373C286.987 104.398 286.329 103.818 285.157 103.818C284.094 103.818 283.349 104.333 283.251 105.11H284.138C284.237 104.771 284.598 104.584 285.113 104.584C285.738 104.584 286.066 104.869 286.066 105.384V105.79L284.806 105.866C283.7 105.932 283.075 106.414 283.075 107.258C283.064 108.09 283.722 108.627 284.62 108.627ZM294.666 120.229C294.666 118.421 293.615 117.37 290.963 116.789L289.55 116.482C287.808 116.099 287.129 115.409 287.129 114.412C287.129 113.119 288.356 112.341 289.945 112.341C291.61 112.341 292.705 113.196 292.848 114.598H294.436C294.36 112.44 292.53 110.917 289.988 110.917C287.348 110.917 285.497 112.396 285.497 114.488C285.497 116.296 286.603 117.457 289.156 118.016L290.569 118.323C292.333 118.706 293.045 119.418 293.045 120.481C293.045 121.73 291.785 122.639 290.065 122.639C288.235 122.639 286.965 121.807 286.778 120.437H285.19C285.343 122.639 287.195 124.063 289.977 124.063C292.815 124.063 294.666 122.584 294.666 120.229Z" fill="white"/>
</g>
<g filter="url(#filter19_d_58_1414)">
<circle cx="1065.11" cy="339.534" r="48.254" fill="url(#paint24_linear_58_1414)" fill-opacity="0.2" shape-rendering="crispEdges"/>
<circle cx="1065.11" cy="339.534" r="46.754" stroke="white" stroke-opacity="0.04" stroke-width="3" shape-rendering="crispEdges"/>
</g>
<g clip-path="url(#clip10_58_1414)">
<path d="M1077.24 316.911H1052.98C1047.18 316.911 1042.48 321.61 1042.48 327.406V351.663C1042.48 357.459 1047.18 362.158 1052.98 362.158H1077.24C1083.03 362.158 1087.73 357.459 1087.73 351.663V327.406C1087.73 321.61 1083.03 316.911 1077.24 316.911Z" fill="url(#paint25_linear_58_1414)" stroke="#D9D9D9"/>
<path fill-rule="evenodd" clip-rule="evenodd" d="M1049.92 348.757H1048.86V334.534H1049.92V348.757ZM1049.37 331.048C1048.92 331.048 1048.55 330.692 1048.55 330.243C1048.55 329.781 1048.92 329.423 1049.37 329.423C1049.84 329.423 1050.2 329.779 1050.2 330.243C1050.2 330.692 1049.84 331.048 1049.37 331.048Z" fill="url(#paint26_linear_58_1414)"/>
<path fill-rule="evenodd" clip-rule="evenodd" d="M1060.26 349.034C1055.05 349.034 1051.77 345.245 1051.77 339.221C1051.77 333.227 1055.07 329.422 1060.26 329.422C1065.45 329.422 1068.75 333.227 1068.75 339.221C1068.75 345.245 1065.46 349.034 1060.26 349.034ZM1060.26 330.401C1055.73 330.401 1052.84 333.821 1052.84 339.221C1052.84 344.624 1055.74 348.057 1060.26 348.057C1064.79 348.057 1067.68 344.624 1067.68 339.221C1067.68 333.82 1064.79 330.401 1060.26 330.401Z" fill="url(#paint27_linear_58_1414)"/>
<path fill-rule="evenodd" clip-rule="evenodd" d="M1076.33 349.034C1072.42 349.034 1069.62 346.828 1069.46 343.673H1070.5C1070.66 346.26 1073.09 348.07 1076.41 348.07C1079.64 348.07 1081.9 346.233 1081.9 343.752C1081.9 341.756 1080.55 340.609 1077.36 339.804L1075.1 339.249C1071.58 338.349 1069.98 336.923 1069.98 334.535C1069.98 331.564 1072.75 329.424 1076.22 329.424C1079.81 329.424 1082.49 331.537 1082.61 334.336H1081.57C1081.42 332.053 1079.19 330.388 1076.2 330.388C1073.33 330.388 1071.04 332.105 1071.04 334.509C1071.04 336.412 1072.44 337.507 1075.51 338.272L1077.63 338.813C1081.32 339.724 1082.97 341.139 1082.97 343.673C1082.97 346.828 1080.31 349.034 1076.33 349.034L1076.33 349.034Z" fill="url(#paint28_linear_58_1414)"/>
</g>
<g filter="url(#filter20_d_58_1414)">
<circle cx="781.087" cy="113.079" r="74.0741" fill="url(#paint29_linear_58_1414)" fill-opacity="0.2" shape-rendering="crispEdges"/>
<circle cx="781.087" cy="113.079" r="72.5741" stroke="white" stroke-opacity="0.04" stroke-width="3" shape-rendering="crispEdges"/>
</g>
<g clip-path="url(#clip11_58_1414)">
<path d="M823.537 111.59C822.933 110.986 815.182 101.222 813.873 99.6115C812.464 98.001 811.86 98.303 810.954 98.4036C810.048 98.5043 800.284 100.216 799.177 100.316C798.07 100.517 797.365 100.92 798.07 101.927C798.674 102.833 805.116 111.892 806.525 114.006L780.857 120.146L760.523 86.0223C759.718 84.8144 759.516 84.4117 757.704 84.5124C755.893 84.613 741.699 85.821 740.693 85.821C739.686 85.9216 738.579 86.3243 739.585 88.7401C740.592 91.156 756.698 125.783 757.101 126.79C757.503 127.797 758.711 129.407 761.429 128.803C764.247 128.099 773.911 125.582 779.246 124.173C782.064 129.206 787.702 139.473 788.809 140.983C790.218 142.997 791.225 142.594 793.339 141.99C795.05 141.487 819.712 132.628 820.819 132.125C821.926 131.622 822.631 131.32 821.826 130.213C821.222 129.407 814.779 120.65 811.357 116.12C813.672 115.516 822.027 113.301 822.933 112.999C823.94 112.698 824.141 112.194 823.537 111.59ZM776.931 121.153C776.629 121.254 762.234 124.676 761.53 124.878C760.724 125.079 760.724 124.978 760.724 124.676C760.523 124.374 743.612 89.3441 743.31 88.9415C743.109 88.5388 743.109 88.1362 743.31 88.1362C743.511 88.1362 756.899 86.9282 757.302 86.9282C757.805 86.9282 757.704 87.0289 757.906 87.3309C757.906 87.3309 776.729 119.844 777.031 120.348C777.434 120.851 777.233 121.052 776.931 121.153ZM817.397 128.703C817.598 129.105 817.9 129.307 817.095 129.508C816.39 129.81 792.835 137.762 792.332 137.963C791.829 138.165 791.527 138.265 790.923 137.36C790.319 136.454 782.668 123.267 782.668 123.267L807.733 116.724C808.337 116.523 808.538 116.422 808.941 117.026C809.344 117.731 817.195 128.401 817.397 128.703ZM819.007 110.986C818.403 111.087 809.243 113.402 809.243 113.402L801.693 103.135C801.492 102.833 801.291 102.531 801.794 102.43C802.297 102.329 810.854 100.819 811.256 100.719C811.659 100.618 811.961 100.518 812.464 101.222C812.967 101.826 819.41 110.08 819.712 110.382C820.014 110.684 819.611 110.886 819.007 110.986Z" fill="#FB503B"/>
</g>
<g filter="url(#filter21_d_58_1414)">
<circle cx="755.691" cy="483.026" r="51.2169" fill="url(#paint30_linear_58_1414)" fill-opacity="0.2" shape-rendering="crispEdges"/>
<circle cx="755.691" cy="483.026" r="49.7169" stroke="white" stroke-opacity="0.04" stroke-width="3" shape-rendering="crispEdges"/>
</g>
<g clip-path="url(#clip12_58_1414)">
<path d="M772.348 459.747C775.566 461.386 778.33 465.69 778.192 471.529C777.771 478.724 772.554 484.925 766.878 490.638C766.56 483.671 765.046 479.231 762.68 472.987C760.447 466.695 766.976 459.948 772.348 459.747Z" fill="url(#paint31_linear_58_1414)"/>
<path d="M754.94 490.393C756.668 488.243 757.893 486.329 758.748 484.6C764.603 487.661 763.221 487.089 766.045 490.351C766.055 490.452 766.064 490.554 766.072 490.654C766.306 495.177 763.007 505.632 750.017 507.064C749.118 500.039 752.041 494.047 754.94 490.393Z" fill="url(#paint32_linear_58_1414)"/>
<path d="M734.035 464.114C743.29 460.452 753.252 464.204 759.003 472.021C759.559 472.777 760.087 473.562 760.584 474.371C761.483 480.107 760.798 483.293 759.048 484.982C757.898 484.402 756.671 483.887 755.362 483.411C752.316 482.305 749.506 481.573 745.492 480.384C735.96 477.783 733.61 469.61 734.035 464.114Z" fill="url(#paint33_linear_58_1414)"/>
<path d="M760.23 473.809C760.291 473.903 760.351 473.997 760.41 474.092L760.483 474.209C760.632 474.448 760.777 474.688 760.921 474.93L760.945 474.971L760.984 475.037L761.019 475.098L761.122 475.274L761.129 475.287L761.268 475.531L761.272 475.538C761.373 475.716 761.472 475.895 761.57 476.075L761.582 476.097L761.691 476.299L761.694 476.304L761.813 476.528L761.847 476.594L761.914 476.722L761.995 476.88L762.074 477.032C762.154 477.191 762.233 477.349 762.311 477.508L762.331 477.547C762.472 477.835 762.608 478.124 762.742 478.414L762.843 478.637L762.853 478.659L762.918 478.803L762.994 478.974L763.037 479.072L763.105 479.23L763.154 479.344L763.258 479.588L763.265 479.605L763.376 479.871L763.389 479.903C763.507 480.19 763.621 480.477 763.732 480.766L763.743 480.793L763.834 481.035L763.84 481.048L763.893 481.191C763.951 481.35 764.009 481.508 764.066 481.668L764.089 481.73C764.151 481.908 764.214 482.086 764.274 482.264L764.293 482.32C764.349 482.488 764.404 482.655 764.458 482.822L764.484 482.904L764.491 482.923L764.576 483.194L764.58 483.206L764.659 483.465L764.739 483.731L764.741 483.737L764.806 483.962L764.827 484.035L764.867 484.174C764.912 484.335 764.956 484.495 764.999 484.655L765.031 484.775L765.093 485.012L765.096 485.024C765.172 485.315 765.243 485.607 765.311 485.897L765.318 485.927L765.325 485.958C765.413 486.342 765.495 486.724 765.57 487.104L765.577 487.142C765.693 487.734 765.792 488.323 765.874 488.906L765.876 488.914C765.901 489.094 765.925 489.273 765.947 489.453L765.956 489.53L765.986 489.786V489.787L766.012 490.024L766.021 490.103L766.039 490.291L766.046 490.366L766.049 490.397L766.072 490.655C764.027 488.021 761.584 486.207 758.653 484.787C761.019 480.11 760.687 476.777 760.23 473.809Z" fill="url(#paint34_linear_58_1414)"/>
</g>
<g filter="url(#filter22_d_58_1414)">
<circle cx="889.447" cy="597.312" r="70.6878" fill="url(#paint35_linear_58_1414)" fill-opacity="0.2" shape-rendering="crispEdges"/>
<circle cx="889.447" cy="597.312" r="69.1878" stroke="white" stroke-opacity="0.04" stroke-width="3" shape-rendering="crispEdges"/>
</g>
<path d="M874.836 558.701C874.415 557.938 874.69 556.977 875.449 556.555C876.209 556.132 877.165 556.407 877.586 557.17L886.147 572.68C886.568 573.443 886.293 574.404 885.534 574.827C884.774 575.25 883.817 574.974 883.397 574.211L874.836 558.701Z" fill="#A4C639"/>
<path d="M912.849 588.203C912.849 584.983 915.448 582.373 918.654 582.373C921.86 582.373 924.458 584.983 924.458 588.203V608.852C924.458 612.071 921.86 614.682 918.654 614.682C915.448 614.682 912.849 612.071 912.849 608.852V588.203Z" fill="#A4C639"/>
<path d="M892.289 611.767C892.289 608.547 894.888 605.937 898.094 605.937C901.3 605.937 903.899 608.547 903.899 611.767V632.415C903.899 635.635 901.3 638.246 898.094 638.246C894.888 638.246 892.289 635.635 892.289 632.415V611.767Z" fill="#A4C639"/>
<path d="M904.904 558.701C905.325 557.938 905.051 556.977 904.292 556.555C903.532 556.132 902.575 556.407 902.154 557.17L893.594 572.68C893.173 573.443 893.448 574.404 894.207 574.827C894.966 575.25 895.923 574.974 896.344 574.211L904.904 558.701Z" fill="#A4C639"/>
<path d="M866.892 588.203C866.892 584.983 864.293 582.373 861.087 582.373C857.881 582.373 855.282 584.983 855.282 588.203V608.852C855.282 612.071 857.881 614.682 861.087 614.682C864.293 614.682 866.892 612.071 866.892 608.852V588.203Z" fill="#A4C639"/>
<path d="M887.452 611.767C887.452 608.547 884.853 605.937 881.647 605.937C878.441 605.937 875.842 608.547 875.842 611.767V632.415C875.842 635.635 878.441 638.246 881.647 638.246C884.853 638.246 887.452 635.635 887.452 632.415V611.767Z" fill="#A4C639"/>
<path fill-rule="evenodd" clip-rule="evenodd" d="M867.86 583.262V616.139C867.86 619.091 870.242 621.484 873.181 621.484H906.56C909.499 621.484 911.881 619.091 911.881 616.139V583.262H867.86ZM889.87 561.967C901.311 561.967 910.712 570.058 911.78 580.405H867.961C869.029 570.058 878.43 561.967 889.87 561.967ZM879.815 575.205C880.939 575.205 881.849 574.291 881.849 573.163C881.849 572.035 880.939 571.12 879.815 571.12C878.692 571.12 877.782 572.035 877.782 573.163C877.782 574.291 878.692 575.205 879.815 575.205ZM903.129 573.484C903.129 574.612 902.219 575.526 901.095 575.526C899.972 575.526 899.062 574.612 899.062 573.484C899.062 572.355 899.972 571.441 901.095 571.441C902.219 571.441 903.129 572.355 903.129 573.484Z" fill="#A4C639"/>
<g filter="url(#filter23_d_58_1414)">
<circle cx="925.003" cy="251.915" r="56.2963" fill="url(#paint36_linear_58_1414)" fill-opacity="0.2" shape-rendering="crispEdges"/>
<circle cx="925.003" cy="251.915" r="54.7963" stroke="white" stroke-opacity="0.04" stroke-width="3" shape-rendering="crispEdges"/>
</g>
<g clip-path="url(#clip13_58_1414)">
<path d="M942.427 238.776L943.014 237.887L944.04 238.51L944.494 238.835C945.59 239.68 947.896 241.842 948.394 245.428C949.267 245.272 950.148 245.193 951.029 245.193C953.119 245.193 954.525 245.679 955.324 246.082L955.735 246.305L956.001 246.481L956.749 247.092L956.49 247.875C956.089 248.949 955.461 249.923 954.65 250.733C953.515 251.904 951.518 253.286 948.35 253.466L947.654 253.486H947.074C945.625 257.311 943.679 261.622 940.41 265.49C938.47 267.789 936.169 269.757 933.597 271.316C930.514 273.146 927.138 274.428 923.617 275.106C921.096 275.596 918.535 275.839 915.971 275.831C910.293 275.831 905.282 274.703 902.2 272.73C899.448 270.972 897.334 268.102 895.912 264.206C894.668 260.646 894.058 256.896 894.107 253.126C894.101 252.642 894.268 252.173 894.578 251.802C894.889 251.431 895.322 251.184 895.799 251.105L896.065 251.086H937.333L937.693 251.058L938.276 250.996C939.279 250.863 940.806 250.565 941.878 249.939C940.594 247.813 940.23 245.326 940.829 242.68C941.08 241.576 941.475 240.509 942.004 239.508L942.427 238.776ZM905.419 243.662L905.575 243.69C905.647 243.717 905.711 243.759 905.764 243.815C905.816 243.871 905.855 243.938 905.877 244.011L905.9 244.167V249.316L905.877 249.477C905.854 249.55 905.815 249.617 905.762 249.673C905.709 249.729 905.644 249.771 905.571 249.798L905.419 249.821H899.89C899.787 249.82 899.687 249.786 899.605 249.724C899.523 249.662 899.462 249.575 899.432 249.477L899.405 249.32V244.164L899.432 244.007C899.454 243.933 899.493 243.865 899.546 243.808C899.599 243.752 899.665 243.709 899.738 243.682L899.89 243.658L905.419 243.662ZM913.042 243.662L913.195 243.69C913.267 243.716 913.332 243.759 913.385 243.814C913.438 243.87 913.477 243.937 913.5 244.011L913.523 244.167V249.316L913.496 249.477C913.473 249.55 913.434 249.617 913.381 249.673C913.328 249.729 913.263 249.771 913.191 249.798L913.038 249.821H907.51C907.407 249.819 907.307 249.785 907.225 249.723C907.143 249.661 907.082 249.575 907.051 249.477L907.024 249.324V244.167C907.023 244.063 907.055 243.96 907.114 243.874C907.174 243.788 907.259 243.722 907.357 243.686L907.51 243.658L913.042 243.662ZM920.779 243.662L920.931 243.69C921.003 243.717 921.067 243.759 921.12 243.815C921.172 243.871 921.211 243.938 921.233 244.011L921.26 244.167V249.316L921.233 249.477C921.21 249.55 921.171 249.617 921.118 249.673C921.065 249.729 921 249.771 920.927 249.798L920.775 249.821H915.246C915.143 249.82 915.043 249.786 914.961 249.724C914.879 249.662 914.818 249.575 914.788 249.477L914.765 249.32V244.164L914.788 244.007C914.81 243.933 914.849 243.865 914.902 243.808C914.955 243.752 915.021 243.709 915.094 243.682L915.246 243.658L920.779 243.662ZM928.421 243.662L928.574 243.69C928.646 243.716 928.712 243.759 928.765 243.814C928.818 243.87 928.857 243.937 928.879 244.011L928.907 244.167V249.316C928.908 249.421 928.876 249.523 928.817 249.61C928.757 249.696 928.672 249.761 928.574 249.798L928.417 249.821H922.893C922.79 249.82 922.69 249.786 922.608 249.724C922.525 249.662 922.465 249.575 922.435 249.477L922.411 249.32V244.164L922.435 244.007C922.457 243.933 922.496 243.865 922.549 243.808C922.602 243.752 922.668 243.709 922.74 243.682L922.897 243.658H928.425L928.421 243.662ZM936.135 243.662L936.287 243.69C936.36 243.716 936.425 243.759 936.478 243.814C936.531 243.87 936.57 243.937 936.593 244.011L936.616 244.167V249.316C936.617 249.421 936.586 249.523 936.526 249.61C936.466 249.696 936.382 249.761 936.283 249.798L936.131 249.821H930.602C930.499 249.82 930.399 249.786 930.317 249.724C930.235 249.662 930.174 249.575 930.144 249.477L930.121 249.32V244.164L930.144 244.007C930.166 243.933 930.205 243.865 930.258 243.808C930.311 243.752 930.377 243.709 930.45 243.682L930.606 243.658H936.131L936.135 243.662ZM913.034 236.255L913.191 236.282C913.262 236.308 913.326 236.351 913.378 236.406C913.43 236.461 913.469 236.527 913.492 236.599L913.52 236.76V241.908C913.52 242.013 913.489 242.116 913.429 242.202C913.37 242.288 913.285 242.354 913.187 242.39L913.034 242.417H907.51C907.406 242.415 907.305 242.379 907.223 242.316C907.141 242.253 907.08 242.165 907.051 242.065L907.024 241.908V236.76C907.024 236.655 907.056 236.554 907.115 236.468C907.175 236.383 907.259 236.318 907.357 236.282L907.51 236.255H913.034ZM920.771 236.255L920.927 236.282C920.999 236.308 921.063 236.351 921.115 236.406C921.167 236.461 921.206 236.527 921.229 236.599L921.256 236.76V241.908C921.257 242.013 921.226 242.116 921.166 242.202C921.106 242.288 921.022 242.354 920.923 242.39L920.771 242.417H915.246C915.142 242.415 915.042 242.379 914.96 242.316C914.877 242.253 914.817 242.165 914.788 242.065L914.765 241.908V236.76L914.788 236.603C914.811 236.529 914.85 236.462 914.903 236.407C914.956 236.351 915.021 236.308 915.094 236.282L915.246 236.255H920.771ZM928.417 236.255C928.629 236.255 928.809 236.399 928.876 236.599L928.903 236.76V241.908C928.904 242.013 928.872 242.116 928.813 242.202C928.753 242.288 928.668 242.354 928.57 242.39L928.414 242.417H922.893C922.789 242.415 922.689 242.379 922.606 242.316C922.524 242.253 922.464 242.165 922.435 242.065L922.411 241.908V236.76L922.435 236.603C922.457 236.529 922.497 236.462 922.55 236.407C922.603 236.351 922.668 236.308 922.74 236.282L922.897 236.255H928.425H928.417ZM928.417 228.847C928.629 228.847 928.809 228.992 928.876 229.191L928.903 229.348V234.5C928.904 234.605 928.872 234.708 928.813 234.794C928.753 234.88 928.668 234.946 928.57 234.982L928.414 235.006H922.893C922.79 235.004 922.69 234.97 922.608 234.908C922.525 234.846 922.465 234.76 922.435 234.661L922.411 234.504V229.348L922.435 229.191C922.457 229.118 922.497 229.051 922.55 228.995C922.603 228.939 922.668 228.896 922.74 228.87L922.893 228.847H928.421H928.417Z" fill="white"/>
</g>
<g filter="url(#filter24_d_58_1414)">
<circle cx="948.283" cy="99.9577" r="44.0212" fill="url(#paint37_linear_58_1414)" fill-opacity="0.2" shape-rendering="crispEdges"/>
<circle cx="948.283" cy="99.9577" r="42.5212" stroke="white" stroke-opacity="0.04" stroke-width="3" shape-rendering="crispEdges"/>
</g>
<g clip-path="url(#clip14_58_1414)">
<path d="M963.951 80.4868H932.615C930.515 80.4868 928.812 82.1894 928.812 84.2897V115.626C928.812 117.726 930.515 119.429 932.615 119.429H963.951C966.051 119.429 967.754 117.726 967.754 115.626V84.2897C967.754 82.1894 966.051 80.4868 963.951 80.4868Z" fill="#3178C6"/>
<path d="M963.951 80.4868H932.615C930.515 80.4868 928.812 82.1894 928.812 84.2897V115.626C928.812 117.726 930.515 119.429 932.615 119.429H963.951C966.051 119.429 967.754 117.726 967.754 115.626V84.2897C967.754 82.1894 966.051 80.4868 963.951 80.4868Z" fill="#3178C6"/>
<path fill-rule="evenodd" clip-rule="evenodd" d="M952.918 111.475V115.283C953.537 115.6 954.269 115.838 955.114 115.996C955.959 116.155 956.85 116.234 957.787 116.234C958.699 116.234 959.566 116.147 960.387 115.973C961.209 115.798 961.929 115.511 962.548 115.11C963.167 114.709 963.657 114.186 964.018 113.539C964.379 112.893 964.56 112.094 964.56 111.142C964.56 110.452 964.456 109.847 964.25 109.327C964.044 108.808 963.746 108.346 963.357 107.941C962.969 107.537 962.502 107.174 961.959 106.852C961.415 106.531 960.802 106.228 960.12 105.942C959.62 105.736 959.171 105.536 958.775 105.341C958.378 105.147 958.04 104.949 957.763 104.746C957.485 104.544 957.271 104.33 957.12 104.104C956.969 103.878 956.894 103.622 956.894 103.336C956.894 103.075 956.961 102.839 957.096 102.628C957.231 102.418 957.422 102.238 957.668 102.087C957.914 101.936 958.215 101.819 958.572 101.736C958.929 101.653 959.326 101.611 959.763 101.611C960.08 101.611 960.415 101.635 960.768 101.682C961.121 101.73 961.477 101.803 961.834 101.903C962.191 102.002 962.538 102.127 962.875 102.277C963.213 102.428 963.524 102.603 963.81 102.801V99.2433C963.23 99.0212 962.598 98.8566 961.911 98.7495C961.225 98.6424 960.437 98.5889 959.548 98.5889C958.644 98.5889 957.787 98.6861 956.977 98.8804C956.168 99.0747 955.456 99.3781 954.84 99.7906C954.225 100.203 953.739 100.729 953.382 101.367C953.025 102.006 952.847 102.769 952.847 103.658C952.847 104.792 953.174 105.76 953.829 106.561C954.483 107.362 955.477 108.04 956.81 108.596C957.334 108.81 957.822 109.02 958.275 109.226C958.727 109.432 959.118 109.647 959.447 109.869C959.776 110.091 960.036 110.333 960.227 110.595C960.417 110.856 960.512 111.154 960.512 111.487C960.512 111.733 960.453 111.961 960.334 112.171C960.215 112.381 960.034 112.564 959.792 112.718C959.55 112.873 959.249 112.994 958.888 113.081C958.527 113.169 958.104 113.212 957.62 113.212C956.795 113.212 955.977 113.067 955.168 112.778C954.358 112.488 953.608 112.054 952.918 111.475ZM946.517 102.094H951.402V98.9692H937.787V102.094H942.648V116.006H946.517V102.094Z" fill="white"/>
</g>
<defs>
<filter id="filter0_d_58_1414" x="137.617" y="359.789" width="292.233" height="292.233" filterUnits="userSpaceOnUse" color-interpolation-filters="sRGB">
<feFlood flood-opacity="0" result="BackgroundImageFix"/>
<feColorMatrix in="SourceAlpha" type="matrix" values="0 0 0 0 0 0 0 0 0 0 0 0 0 0 0 0 0 0 127 0" result="hardAlpha"/>
<feOffset dy="36"/>
<feGaussianBlur stdDeviation="32"/>
<feComposite in2="hardAlpha" operator="out"/>
<feColorMatrix type="matrix" values="0 0 0 0 0 0 0 0 0 0 0 0 0 0 0 0 0 0 0.33 0"/>
<feBlend mode="normal" in2="BackgroundImageFix" result="effect1_dropShadow_58_1414"/>
<feBlend mode="normal" in="SourceGraphic" in2="effect1_dropShadow_58_1414" result="shape"/>
</filter>
<filter id="filter1_d_58_1414" x="952.854" y="71.9575" width="280.381" height="280.381" filterUnits="userSpaceOnUse" color-interpolation-filters="sRGB">
<feFlood flood-opacity="0" result="BackgroundImageFix"/>
<feColorMatrix in="SourceAlpha" type="matrix" values="0 0 0 0 0 0 0 0 0 0 0 0 0 0 0 0 0 0 127 0" result="hardAlpha"/>
<feOffset dy="36"/>
<feGaussianBlur stdDeviation="32"/>
<feComposite in2="hardAlpha" operator="out"/>
<feColorMatrix type="matrix" values="0 0 0 0 0 0 0 0 0 0 0 0 0 0 0 0 0 0 0.33 0"/>
<feBlend mode="normal" in2="BackgroundImageFix" result="effect1_dropShadow_58_1414"/>
<feBlend mode="normal" in="SourceGraphic" in2="effect1_dropShadow_58_1414" result="shape"/>
</filter>
<filter id="filter2_d_58_1414" x="915.606" y="406.349" width="317.63" height="317.629" filterUnits="userSpaceOnUse" color-interpolation-filters="sRGB">
<feFlood flood-opacity="0" result="BackgroundImageFix"/>
<feColorMatrix in="SourceAlpha" type="matrix" values="0 0 0 0 0 0 0 0 0 0 0 0 0 0 0 0 0 0 127 0" result="hardAlpha"/>
<feOffset dy="36"/>
<feGaussianBlur stdDeviation="32"/>
<feComposite in2="hardAlpha" operator="out"/>
<feColorMatrix type="matrix" values="0 0 0 0 0 0 0 0 0 0 0 0 0 0 0 0 0 0 0.33 0"/>
<feBlend mode="normal" in2="BackgroundImageFix" result="effect1_dropShadow_58_1414"/>
<feBlend mode="normal" in="SourceGraphic" in2="effect1_dropShadow_58_1414" result="shape"/>
</filter>
<filter id="filter3_d_58_1414" x="449.151" y="291.217" width="292.233" height="292.233" filterUnits="userSpaceOnUse" color-interpolation-filters="sRGB">
<feFlood flood-opacity="0" result="BackgroundImageFix"/>
<feColorMatrix in="SourceAlpha" type="matrix" values="0 0 0 0 0 0 0 0 0 0 0 0 0 0 0 0 0 0 127 0" result="hardAlpha"/>
<feOffset dy="36"/>
<feGaussianBlur stdDeviation="32"/>
<feComposite in2="hardAlpha" operator="out"/>
<feColorMatrix type="matrix" values="0 0 0 0 0 0 0 0 0 0 0 0 0 0 0 0 0 0 0.33 0"/>
<feBlend mode="normal" in2="BackgroundImageFix" result="effect1_dropShadow_58_1414"/>
<feBlend mode="normal" in="SourceGraphic" in2="effect1_dropShadow_58_1414" result="shape"/>
</filter>
<filter id="filter4_d_58_1414" x="301.849" y="249.735" width="238.053" height="238.053" filterUnits="userSpaceOnUse" color-interpolation-filters="sRGB">
<feFlood flood-opacity="0" result="BackgroundImageFix"/>
<feColorMatrix in="SourceAlpha" type="matrix" values="0 0 0 0 0 0 0 0 0 0 0 0 0 0 0 0 0 0 127 0" result="hardAlpha"/>
<feOffset dy="36"/>
<feGaussianBlur stdDeviation="32"/>
<feComposite in2="hardAlpha" operator="out"/>
<feColorMatrix type="matrix" values="0 0 0 0 0 0 0 0 0 0 0 0 0 0 0 0 0 0 0.33 0"/>
<feBlend mode="normal" in2="BackgroundImageFix" result="effect1_dropShadow_58_1414"/>
<feBlend mode="normal" in="SourceGraphic" in2="effect1_dropShadow_58_1414" result="shape"/>
</filter>
<filter id="filter5_d_58_1414" x="3.01318" y="291.217" width="238.053" height="238.053" filterUnits="userSpaceOnUse" color-interpolation-filters="sRGB">
<feFlood flood-opacity="0" result="BackgroundImageFix"/>
<feColorMatrix in="SourceAlpha" type="matrix" values="0 0 0 0 0 0 0 0 0 0 0 0 0 0 0 0 0 0 127 0" result="hardAlpha"/>
<feOffset dy="36"/>
<feGaussianBlur stdDeviation="32"/>
<feComposite in2="hardAlpha" operator="out"/>
<feColorMatrix type="matrix" values="0 0 0 0 0 0 0 0 0 0 0 0 0 0 0 0 0 0 0.33 0"/>
<feBlend mode="normal" in2="BackgroundImageFix" result="effect1_dropShadow_58_1414"/>
<feBlend mode="normal" in="SourceGraphic" in2="effect1_dropShadow_58_1414" result="shape"/>
</filter>
<filter id="filter6_d_58_1414" x="641.32" y="215.026" width="259.217" height="259.217" filterUnits="userSpaceOnUse" color-interpolation-filters="sRGB">
<feFlood flood-opacity="0" result="BackgroundImageFix"/>
<feColorMatrix in="SourceAlpha" type="matrix" values="0 0 0 0 0 0 0 0 0 0 0 0 0 0 0 0 0 0 127 0" result="hardAlpha"/>
<feOffset dy="36"/>
<feGaussianBlur stdDeviation="32"/>
<feComposite in2="hardAlpha" operator="out"/>
<feColorMatrix type="matrix" values="0 0 0 0 0 0 0 0 0 0 0 0 0 0 0 0 0 0 0.33 0"/>
<feBlend mode="normal" in2="BackgroundImageFix" result="effect1_dropShadow_58_1414"/>
<feBlend mode="normal" in="SourceGraphic" in2="effect1_dropShadow_58_1414" result="shape"/>
</filter>
<filter id="filter7_d_58_1414" x="133.384" y="183.704" width="259.217" height="259.217" filterUnits="userSpaceOnUse" color-interpolation-filters="sRGB">
<feFlood flood-opacity="0" result="BackgroundImageFix"/>
<feColorMatrix in="SourceAlpha" type="matrix" values="0 0 0 0 0 0 0 0 0 0 0 0 0 0 0 0 0 0 127 0" result="hardAlpha"/>
<feOffset dy="36"/>
<feGaussianBlur stdDeviation="32"/>
<feComposite in2="hardAlpha" operator="out"/>
<feColorMatrix type="matrix" values="0 0 0 0 0 0 0 0 0 0 0 0 0 0 0 0 0 0 0.33 0"/>
<feBlend mode="normal" in2="BackgroundImageFix" result="effect1_dropShadow_58_1414"/>
<feBlend mode="normal" in="SourceGraphic" in2="effect1_dropShadow_58_1414" result="shape"/>
</filter>
<filter id="filter8_d_58_1414" x="1099.31" y="263.28" width="259.217" height="259.217" filterUnits="userSpaceOnUse" color-interpolation-filters="sRGB">
<feFlood flood-opacity="0" result="BackgroundImageFix"/>
<feColorMatrix in="SourceAlpha" type="matrix" values="0 0 0 0 0 0 0 0 0 0 0 0 0 0 0 0 0 0 127 0" result="hardAlpha"/>
<feOffset dy="36"/>
<feGaussianBlur stdDeviation="32"/>
<feComposite in2="hardAlpha" operator="out"/>
<feColorMatrix type="matrix" values="0 0 0 0 0 0 0 0 0 0 0 0 0 0 0 0 0 0 0.33 0"/>
<feBlend mode="normal" in2="BackgroundImageFix" result="effect1_dropShadow_58_1414"/>
<feBlend mode="normal" in="SourceGraphic" in2="effect1_dropShadow_58_1414" result="shape"/>
</filter>
<filter id="filter9_d_58_1414" x="489.786" y="498.625" width="238.053" height="238.053" filterUnits="userSpaceOnUse" color-interpolation-filters="sRGB">
<feFlood flood-opacity="0" result="BackgroundImageFix"/>
<feColorMatrix in="SourceAlpha" type="matrix" values="0 0 0 0 0 0 0 0 0 0 0 0 0 0 0 0 0 0 127 0" result="hardAlpha"/>
<feOffset dy="36"/>
<feGaussianBlur stdDeviation="32"/>
<feComposite in2="hardAlpha" operator="out"/>
<feColorMatrix type="matrix" values="0 0 0 0 0 0 0 0 0 0 0 0 0 0 0 0 0 0 0.33 0"/>
<feBlend mode="normal" in2="BackgroundImageFix" result="effect1_dropShadow_58_1414"/>
<feBlend mode="normal" in="SourceGraphic" in2="effect1_dropShadow_58_1414" result="shape"/>
</filter>
<filter id="filter10_d_58_1414" x="349.257" y="441.905" width="221.122" height="221.122" filterUnits="userSpaceOnUse" color-interpolation-filters="sRGB">
<feFlood flood-opacity="0" result="BackgroundImageFix"/>
<feColorMatrix in="SourceAlpha" type="matrix" values="0 0 0 0 0 0 0 0 0 0 0 0 0 0 0 0 0 0 127 0" result="hardAlpha"/>
<feOffset dy="36"/>
<feGaussianBlur stdDeviation="32"/>
<feComposite in2="hardAlpha" operator="out"/>
<feColorMatrix type="matrix" values="0 0 0 0 0 0 0 0 0 0 0 0 0 0 0 0 0 0 0.33 0"/>
<feBlend mode="normal" in2="BackgroundImageFix" result="effect1_dropShadow_58_1414"/>
<feBlend mode="normal" in="SourceGraphic" in2="effect1_dropShadow_58_1414" result="shape"/>
</filter>
<filter id="filter11_d_58_1414" x="315.394" y="68.5713" width="254.984" height="254.984" filterUnits="userSpaceOnUse" color-interpolation-filters="sRGB">
<feFlood flood-opacity="0" result="BackgroundImageFix"/>
<feColorMatrix in="SourceAlpha" type="matrix" values="0 0 0 0 0 0 0 0 0 0 0 0 0 0 0 0 0 0 127 0" result="hardAlpha"/>
<feOffset dy="36"/>
<feGaussianBlur stdDeviation="32"/>
<feComposite in2="hardAlpha" operator="out"/>
<feColorMatrix type="matrix" values="0 0 0 0 0 0 0 0 0 0 0 0 0 0 0 0 0 0 0.33 0"/>
<feBlend mode="normal" in2="BackgroundImageFix" result="effect1_dropShadow_58_1414"/>
<feBlend mode="normal" in="SourceGraphic" in2="effect1_dropShadow_58_1414" result="shape"/>
</filter>
<filter id="filter12_d_58_1414" x="484.707" y="143.069" width="221.122" height="221.122" filterUnits="userSpaceOnUse" color-interpolation-filters="sRGB">
<feFlood flood-opacity="0" result="BackgroundImageFix"/>
<feColorMatrix in="SourceAlpha" type="matrix" values="0 0 0 0 0 0 0 0 0 0 0 0 0 0 0 0 0 0 127 0" result="hardAlpha"/>
<feOffset dy="36"/>
<feGaussianBlur stdDeviation="32"/>
<feComposite in2="hardAlpha" operator="out"/>
<feColorMatrix type="matrix" values="0 0 0 0 0 0 0 0 0 0 0 0 0 0 0 0 0 0 0.33 0"/>
<feBlend mode="normal" in2="BackgroundImageFix" result="effect1_dropShadow_58_1414"/>
<feBlend mode="normal" in="SourceGraphic" in2="effect1_dropShadow_58_1414" result="shape"/>
</filter>
<filter id="filter13_d_58_1414" x="484.707" y="0" width="221.122" height="221.122" filterUnits="userSpaceOnUse" color-interpolation-filters="sRGB">
<feFlood flood-opacity="0" result="BackgroundImageFix"/>
<feColorMatrix in="SourceAlpha" type="matrix" values="0 0 0 0 0 0 0 0 0 0 0 0 0 0 0 0 0 0 127 0" result="hardAlpha"/>
<feOffset dy="36"/>
<feGaussianBlur stdDeviation="32"/>
<feComposite in2="hardAlpha" operator="out"/>
<feColorMatrix type="matrix" values="0 0 0 0 0 0 0 0 0 0 0 0 0 0 0 0 0 0 0.33 0"/>
<feBlend mode="normal" in2="BackgroundImageFix" result="effect1_dropShadow_58_1414"/>
<feBlend mode="normal" in="SourceGraphic" in2="effect1_dropShadow_58_1414" result="shape"/>
</filter>
<filter id="filter14_d_58_1414" x="771.69" y="326.772" width="243.132" height="243.132" filterUnits="userSpaceOnUse" color-interpolation-filters="sRGB">
<feFlood flood-opacity="0" result="BackgroundImageFix"/>
<feColorMatrix in="SourceAlpha" type="matrix" values="0 0 0 0 0 0 0 0 0 0 0 0 0 0 0 0 0 0 127 0" result="hardAlpha"/>
<feOffset dy="36"/>
<feGaussianBlur stdDeviation="32"/>
<feComposite in2="hardAlpha" operator="out"/>
<feColorMatrix type="matrix" values="0 0 0 0 0 0 0 0 0 0 0 0 0 0 0 0 0 0 0.33 0"/>
<feBlend mode="normal" in2="BackgroundImageFix" result="effect1_dropShadow_58_1414"/>
<feBlend mode="normal" in="SourceGraphic" in2="effect1_dropShadow_58_1414" result="shape"/>
</filter>
<filter id="filter15_d_58_1414" x="1145.87" y="430.053" width="204.19" height="204.19" filterUnits="userSpaceOnUse" color-interpolation-filters="sRGB">
<feFlood flood-opacity="0" result="BackgroundImageFix"/>
<feColorMatrix in="SourceAlpha" type="matrix" values="0 0 0 0 0 0 0 0 0 0 0 0 0 0 0 0 0 0 127 0" result="hardAlpha"/>
<feOffset dy="36"/>
<feGaussianBlur stdDeviation="32"/>
<feComposite in2="hardAlpha" operator="out"/>
<feColorMatrix type="matrix" values="0 0 0 0 0 0 0 0 0 0 0 0 0 0 0 0 0 0 0.33 0"/>
<feBlend mode="normal" in2="BackgroundImageFix" result="effect1_dropShadow_58_1414"/>
<feBlend mode="normal" in="SourceGraphic" in2="effect1_dropShadow_58_1414" result="shape"/>
</filter>
<filter id="filter16_d_58_1414" x="0.473633" y="479.153" width="262.603" height="262.603" filterUnits="userSpaceOnUse" color-interpolation-filters="sRGB">
<feFlood flood-opacity="0" result="BackgroundImageFix"/>
<feColorMatrix in="SourceAlpha" type="matrix" values="0 0 0 0 0 0 0 0 0 0 0 0 0 0 0 0 0 0 127 0" result="hardAlpha"/>
<feOffset dy="36"/>
<feGaussianBlur stdDeviation="32"/>
<feComposite in2="hardAlpha" operator="out"/>
<feColorMatrix type="matrix" values="0 0 0 0 0 0 0 0 0 0 0 0 0 0 0 0 0 0 0.33 0"/>
<feBlend mode="normal" in2="BackgroundImageFix" result="effect1_dropShadow_58_1414"/>
<feBlend mode="normal" in="SourceGraphic" in2="effect1_dropShadow_58_1414" result="shape"/>
</filter>
<filter id="filter17_d_58_1414" x="273.066" y="553.651" width="204.19" height="204.19" filterUnits="userSpaceOnUse" color-interpolation-filters="sRGB">
<feFlood flood-opacity="0" result="BackgroundImageFix"/>
<feColorMatrix in="SourceAlpha" type="matrix" values="0 0 0 0 0 0 0 0 0 0 0 0 0 0 0 0 0 0 127 0" result="hardAlpha"/>
<feOffset dy="36"/>
<feGaussianBlur stdDeviation="32"/>
<feComposite in2="hardAlpha" operator="out"/>
<feColorMatrix type="matrix" values="0 0 0 0 0 0 0 0 0 0 0 0 0 0 0 0 0 0 0.33 0"/>
<feBlend mode="normal" in2="BackgroundImageFix" result="effect1_dropShadow_58_1414"/>
<feBlend mode="normal" in="SourceGraphic" in2="effect1_dropShadow_58_1414" result="shape"/>
</filter>
<filter id="filter18_d_58_1414" x="181.638" y="47.4072" width="204.19" height="204.19" filterUnits="userSpaceOnUse" color-interpolation-filters="sRGB">
<feFlood flood-opacity="0" result="BackgroundImageFix"/>
<feColorMatrix in="SourceAlpha" type="matrix" values="0 0 0 0 0 0 0 0 0 0 0 0 0 0 0 0 0 0 127 0" result="hardAlpha"/>
<feOffset dy="36"/>
<feGaussianBlur stdDeviation="32"/>
<feComposite in2="hardAlpha" operator="out"/>
<feColorMatrix type="matrix" values="0 0 0 0 0 0 0 0 0 0 0 0 0 0 0 0 0 0 0.33 0"/>
<feBlend mode="normal" in2="BackgroundImageFix" result="effect1_dropShadow_58_1414"/>
<feBlend mode="normal" in="SourceGraphic" in2="effect1_dropShadow_58_1414" result="shape"/>
</filter>
<filter id="filter19_d_58_1414" x="952.854" y="263.28" width="224.508" height="224.508" filterUnits="userSpaceOnUse" color-interpolation-filters="sRGB">
<feFlood flood-opacity="0" result="BackgroundImageFix"/>
<feColorMatrix in="SourceAlpha" type="matrix" values="0 0 0 0 0 0 0 0 0 0 0 0 0 0 0 0 0 0 127 0" result="hardAlpha"/>
<feOffset dy="36"/>
<feGaussianBlur stdDeviation="32"/>
<feComposite in2="hardAlpha" operator="out"/>
<feColorMatrix type="matrix" values="0 0 0 0 0 0 0 0 0 0 0 0 0 0 0 0 0 0 0.33 0"/>
<feBlend mode="normal" in2="BackgroundImageFix" result="effect1_dropShadow_58_1414"/>
<feBlend mode="normal" in="SourceGraphic" in2="effect1_dropShadow_58_1414" result="shape"/>
</filter>
<filter id="filter20_d_58_1414" x="643.013" y="11.0054" width="276.148" height="276.148" filterUnits="userSpaceOnUse" color-interpolation-filters="sRGB">
<feFlood flood-opacity="0" result="BackgroundImageFix"/>
<feColorMatrix in="SourceAlpha" type="matrix" values="0 0 0 0 0 0 0 0 0 0 0 0 0 0 0 0 0 0 127 0" result="hardAlpha"/>
<feOffset dy="36"/>
<feGaussianBlur stdDeviation="32"/>
<feComposite in2="hardAlpha" operator="out"/>
<feColorMatrix type="matrix" values="0 0 0 0 0 0 0 0 0 0 0 0 0 0 0 0 0 0 0.33 0"/>
<feBlend mode="normal" in2="BackgroundImageFix" result="effect1_dropShadow_58_1414"/>
<feBlend mode="normal" in="SourceGraphic" in2="effect1_dropShadow_58_1414" result="shape"/>
</filter>
<filter id="filter21_d_58_1414" x="640.474" y="403.81" width="230.434" height="230.434" filterUnits="userSpaceOnUse" color-interpolation-filters="sRGB">
<feFlood flood-opacity="0" result="BackgroundImageFix"/>
<feColorMatrix in="SourceAlpha" type="matrix" values="0 0 0 0 0 0 0 0 0 0 0 0 0 0 0 0 0 0 127 0" result="hardAlpha"/>
<feOffset dy="36"/>
<feGaussianBlur stdDeviation="32"/>
<feComposite in2="hardAlpha" operator="out"/>
<feColorMatrix type="matrix" values="0 0 0 0 0 0 0 0 0 0 0 0 0 0 0 0 0 0 0.33 0"/>
<feBlend mode="normal" in2="BackgroundImageFix" result="effect1_dropShadow_58_1414"/>
<feBlend mode="normal" in="SourceGraphic" in2="effect1_dropShadow_58_1414" result="shape"/>
</filter>
<filter id="filter22_d_58_1414" x="754.759" y="498.625" width="269.376" height="269.375" filterUnits="userSpaceOnUse" color-interpolation-filters="sRGB">
<feFlood flood-opacity="0" result="BackgroundImageFix"/>
<feColorMatrix in="SourceAlpha" type="matrix" values="0 0 0 0 0 0 0 0 0 0 0 0 0 0 0 0 0 0 127 0" result="hardAlpha"/>
<feOffset dy="36"/>
<feGaussianBlur stdDeviation="32"/>
<feComposite in2="hardAlpha" operator="out"/>
<feColorMatrix type="matrix" values="0 0 0 0 0 0 0 0 0 0 0 0 0 0 0 0 0 0 0.33 0"/>
<feBlend mode="normal" in2="BackgroundImageFix" result="effect1_dropShadow_58_1414"/>
<feBlend mode="normal" in="SourceGraphic" in2="effect1_dropShadow_58_1414" result="shape"/>
</filter>
<filter id="filter23_d_58_1414" x="804.707" y="167.619" width="240.593" height="240.593" filterUnits="userSpaceOnUse" color-interpolation-filters="sRGB">
<feFlood flood-opacity="0" result="BackgroundImageFix"/>
<feColorMatrix in="SourceAlpha" type="matrix" values="0 0 0 0 0 0 0 0 0 0 0 0 0 0 0 0 0 0 127 0" result="hardAlpha"/>
<feOffset dy="36"/>
<feGaussianBlur stdDeviation="32"/>
<feComposite in2="hardAlpha" operator="out"/>
<feColorMatrix type="matrix" values="0 0 0 0 0 0 0 0 0 0 0 0 0 0 0 0 0 0 0.33 0"/>
<feBlend mode="normal" in2="BackgroundImageFix" result="effect1_dropShadow_58_1414"/>
<feBlend mode="normal" in="SourceGraphic" in2="effect1_dropShadow_58_1414" result="shape"/>
</filter>
<filter id="filter24_d_58_1414" x="840.262" y="27.9365" width="216.042" height="216.042" filterUnits="userSpaceOnUse" color-interpolation-filters="sRGB">
<feFlood flood-opacity="0" result="BackgroundImageFix"/>
<feColorMatrix in="SourceAlpha" type="matrix" values="0 0 0 0 0 0 0 0 0 0 0 0 0 0 0 0 0 0 127 0" result="hardAlpha"/>
<feOffset dy="36"/>
<feGaussianBlur stdDeviation="32"/>
<feComposite in2="hardAlpha" operator="out"/>
<feColorMatrix type="matrix" values="0 0 0 0 0 0 0 0 0 0 0 0 0 0 0 0 0 0 0.33 0"/>
<feBlend mode="normal" in2="BackgroundImageFix" result="effect1_dropShadow_58_1414"/>
<feBlend mode="normal" in="SourceGraphic" in2="effect1_dropShadow_58_1414" result="shape"/>
</filter>
<linearGradient id="paint0_linear_58_1414" x1="283.733" y1="387.789" x2="283.733" y2="552.021" gradientUnits="userSpaceOnUse">
<stop stop-color="#00FF8F"/>
<stop offset="1" stop-color="#00FF8F" stop-opacity="0"/>
</linearGradient>
<linearGradient id="paint1_linear_58_1414" x1="1093.04" y1="99.9575" x2="1093.04" y2="252.338" gradientUnits="userSpaceOnUse">
<stop stop-color="#00FF8F"/>
<stop offset="1" stop-color="#00FF8F" stop-opacity="0"/>
</linearGradient>
<linearGradient id="paint2_linear_58_1414" x1="1074.42" y1="434.349" x2="1074.42" y2="623.979" gradientUnits="userSpaceOnUse">
<stop stop-color="#00FF8F"/>
<stop offset="1" stop-color="#00FF8F" stop-opacity="0"/>
</linearGradient>
<linearGradient id="paint3_linear_58_1414" x1="595.267" y1="319.217" x2="595.267" y2="483.45" gradientUnits="userSpaceOnUse">
<stop stop-color="#00FF8F"/>
<stop offset="1" stop-color="#00FF8F" stop-opacity="0"/>
</linearGradient>
<linearGradient id="paint4_linear_58_1414" x1="596.687" y1="393.61" x2="594.981" y2="440.083" gradientUnits="userSpaceOnUse">
<stop stop-color="#F88535"/>
<stop offset="1" stop-color="#FD2221"/>
</linearGradient>
<linearGradient id="paint5_linear_58_1414" x1="420.876" y1="277.735" x2="420.876" y2="387.788" gradientUnits="userSpaceOnUse">
<stop stop-color="#00FF8F"/>
<stop offset="1" stop-color="#00FF8F" stop-opacity="0"/>
</linearGradient>
<linearGradient id="paint6_linear_58_1414" x1="122.04" y1="319.217" x2="122.04" y2="429.27" gradientUnits="userSpaceOnUse">
<stop stop-color="#00FF8F"/>
<stop offset="1" stop-color="#00FF8F" stop-opacity="0"/>
</linearGradient>
<linearGradient id="paint7_linear_58_1414" x1="770.929" y1="243.026" x2="770.929" y2="374.243" gradientUnits="userSpaceOnUse">
<stop stop-color="#00FF8F"/>
<stop offset="1" stop-color="#00FF8F" stop-opacity="0"/>
</linearGradient>
<linearGradient id="paint8_linear_58_1414" x1="262.992" y1="211.704" x2="262.992" y2="342.921" gradientUnits="userSpaceOnUse">
<stop stop-color="#00FF8F"/>
<stop offset="1" stop-color="#00FF8F" stop-opacity="0"/>
</linearGradient>
<linearGradient id="paint9_linear_58_1414" x1="1228.92" y1="291.28" x2="1228.92" y2="422.497" gradientUnits="userSpaceOnUse">
<stop stop-color="#00FF8F"/>
<stop offset="1" stop-color="#00FF8F" stop-opacity="0"/>
</linearGradient>
<linearGradient id="paint10_linear_58_1414" x1="608.812" y1="526.625" x2="608.812" y2="636.677" gradientUnits="userSpaceOnUse">
<stop stop-color="#00FF8F"/>
<stop offset="1" stop-color="#00FF8F" stop-opacity="0"/>
</linearGradient>
<linearGradient id="paint11_linear_58_1414" x1="459.818" y1="469.905" x2="459.818" y2="563.026" gradientUnits="userSpaceOnUse">
<stop stop-color="#00FF8F"/>
<stop offset="1" stop-color="#00FF8F" stop-opacity="0"/>
</linearGradient>
<linearGradient id="paint12_linear_58_1414" x1="442.886" y1="96.5713" x2="442.886" y2="223.555" gradientUnits="userSpaceOnUse">
<stop stop-color="#00FF8F"/>
<stop offset="1" stop-color="#00FF8F" stop-opacity="0"/>
</linearGradient>
<linearGradient id="paint13_linear_58_1414" x1="595.267" y1="171.069" x2="595.267" y2="264.191" gradientUnits="userSpaceOnUse">
<stop stop-color="#00FF8F"/>
<stop offset="1" stop-color="#00FF8F" stop-opacity="0"/>
</linearGradient>
<linearGradient id="paint14_linear_58_1414" x1="595.267" y1="28" x2="595.267" y2="121.122" gradientUnits="userSpaceOnUse">
<stop stop-color="#00FF8F"/>
<stop offset="1" stop-color="#00FF8F" stop-opacity="0"/>
</linearGradient>
<linearGradient id="paint15_linear_58_1414" x1="893.257" y1="354.772" x2="893.257" y2="469.905" gradientUnits="userSpaceOnUse">
<stop stop-color="#00FF8F"/>
<stop offset="1" stop-color="#00FF8F" stop-opacity="0"/>
</linearGradient>
<linearGradient id="paint16_linear_58_1414" x1="1247.97" y1="458.053" x2="1247.97" y2="534.243" gradientUnits="userSpaceOnUse">
<stop stop-color="#00FF8F"/>
<stop offset="1" stop-color="#00FF8F" stop-opacity="0"/>
</linearGradient>
<linearGradient id="paint17_linear_58_1414" x1="1224.2" y1="511.06" x2="1257.29" y2="477.973" gradientUnits="userSpaceOnUse">
<stop offset="0.108" stop-color="#C757BC"/>
<stop offset="0.173" stop-color="#CD5CA9"/>
<stop offset="0.492" stop-color="#E8744F"/>
<stop offset="0.716" stop-color="#F88316"/>
<stop offset="0.823" stop-color="#FF8900"/>
</linearGradient>
<linearGradient id="paint18_linear_58_1414" x1="1241.54" y1="520.34" x2="1257.66" y2="504.214" gradientUnits="userSpaceOnUse">
<stop offset="0.296" stop-color="#00AFFF"/>
<stop offset="0.694" stop-color="#5282FF"/>
<stop offset="1" stop-color="#945DFF"/>
</linearGradient>
<linearGradient id="paint19_linear_58_1414" x1="1229.76" y1="488.184" x2="1241.07" y2="476.87" gradientUnits="userSpaceOnUse">
<stop offset="0.296" stop-color="#00AFFF"/>
<stop offset="0.694" stop-color="#5282FF"/>
<stop offset="1" stop-color="#945DFF"/>
</linearGradient>
<linearGradient id="paint20_linear_58_1414" x1="131.775" y1="507.153" x2="131.775" y2="641.757" gradientUnits="userSpaceOnUse">
<stop stop-color="#00FF8F"/>
<stop offset="1" stop-color="#00FF8F" stop-opacity="0"/>
</linearGradient>
<linearGradient id="paint21_linear_58_1414" x1="375.162" y1="581.651" x2="375.162" y2="657.841" gradientUnits="userSpaceOnUse">
<stop stop-color="#00FF8F"/>
<stop offset="1" stop-color="#00FF8F" stop-opacity="0"/>
</linearGradient>
<linearGradient id="paint22_linear_58_1414" x1="375.162" y1="601.968" x2="375.162" y2="637.524" gradientUnits="userSpaceOnUse">
<stop stop-color="#00FF8F"/>
<stop offset="1" stop-color="#00FF8F" stop-opacity="0"/>
</linearGradient>
<linearGradient id="paint23_linear_58_1414" x1="283.733" y1="75.4072" x2="283.733" y2="151.598" gradientUnits="userSpaceOnUse">
<stop stop-color="#00FF8F"/>
<stop offset="1" stop-color="#00FF8F" stop-opacity="0"/>
</linearGradient>
<linearGradient id="paint24_linear_58_1414" x1="1065.11" y1="291.28" x2="1065.11" y2="387.788" gradientUnits="userSpaceOnUse">
<stop stop-color="#00FF8F"/>
<stop offset="1" stop-color="#00FF8F" stop-opacity="0"/>
</linearGradient>
<linearGradient id="paint25_linear_58_1414" x1="3304.88" y1="2579.3" x2="3304.88" y2="4841.69" gradientUnits="userSpaceOnUse">
<stop stop-color="white"/>
<stop offset="1" stop-color="#E9E5E5"/>
</linearGradient>
<linearGradient id="paint26_linear_58_1414" x1="1131.03" y1="329.423" x2="1131.03" y2="2012.47" gradientUnits="userSpaceOnUse">
<stop stop-color="#0339F1"/>
<stop offset="1" stop-color="#01ADE5"/>
</linearGradient>
<linearGradient id="paint27_linear_58_1414" x1="1289.7" y1="516.418" x2="2463" y2="1638.29" gradientUnits="userSpaceOnUse">
<stop stop-color="#0756EE"/>
<stop offset="0.37448" stop-color="#00A3F5"/>
<stop offset="0.71708" stop-color="#18B5B6"/>
<stop offset="1" stop-color="#80DF43"/>
</linearGradient>
<linearGradient id="paint28_linear_58_1414" x1="1245.3" y1="389.683" x2="2683.15" y2="1569.39" gradientUnits="userSpaceOnUse">
<stop stop-color="#20BBA6"/>
<stop offset="0.4988" stop-color="#9BEC23"/>
<stop offset="1" stop-color="#D9EF35"/>
</linearGradient>
<linearGradient id="paint29_linear_58_1414" x1="781.087" y1="39.0054" x2="781.087" y2="187.154" gradientUnits="userSpaceOnUse">
<stop stop-color="#00FF8F"/>
<stop offset="1" stop-color="#00FF8F" stop-opacity="0"/>
</linearGradient>
<linearGradient id="paint30_linear_58_1414" x1="755.691" y1="431.81" x2="755.691" y2="534.243" gradientUnits="userSpaceOnUse">
<stop stop-color="#00FF8F"/>
<stop offset="1" stop-color="#00FF8F" stop-opacity="0"/>
</linearGradient>
<linearGradient id="paint31_linear_58_1414" x1="1560.56" y1="459.747" x2="1560.56" y2="3548.91" gradientUnits="userSpaceOnUse">
<stop stop-color="#73B723"/>
<stop offset="1" stop-color="#D8EE61"/>
</linearGradient>
<linearGradient id="paint32_linear_58_1414" x1="2127.27" y1="1074.33" x2="590.627" y2="2223.19" gradientUnits="userSpaceOnUse">
<stop stop-color="#98C9EA"/>
<stop offset="0.688649" stop-color="#026FB2"/>
<stop offset="1" stop-color="#086EB6"/>
</linearGradient>
<linearGradient id="paint33_linear_58_1414" x1="733.988" y1="603.517" x2="2722.63" y2="2388.02" gradientUnits="userSpaceOnUse">
<stop stop-color="#D73721"/>
<stop offset="1" stop-color="#F7D768"/>
</linearGradient>
<linearGradient id="paint34_linear_58_1414" x1="988.34" y1="995.906" x2="1640.22" y2="1256.98" gradientUnits="userSpaceOnUse">
<stop stop-color="#D4C883"/>
<stop offset="1" stop-color="#A1D1A7"/>
</linearGradient>
<linearGradient id="paint35_linear_58_1414" x1="889.447" y1="526.625" x2="889.447" y2="668" gradientUnits="userSpaceOnUse">
<stop stop-color="#00FF8F"/>
<stop offset="1" stop-color="#00FF8F" stop-opacity="0"/>
</linearGradient>
<linearGradient id="paint36_linear_58_1414" x1="925.003" y1="195.619" x2="925.003" y2="308.212" gradientUnits="userSpaceOnUse">
<stop stop-color="#00FF8F"/>
<stop offset="1" stop-color="#00FF8F" stop-opacity="0"/>
</linearGradient>
<linearGradient id="paint37_linear_58_1414" x1="948.283" y1="55.9365" x2="948.283" y2="143.979" gradientUnits="userSpaceOnUse">
<stop stop-color="#00FF8F"/>
<stop offset="1" stop-color="#00FF8F" stop-opacity="0"/>
</linearGradient>
<clipPath id="clip0_58_1414">
<rect width="99.8942" height="99.8942" fill="white" transform="translate(1024.47 479.217)"/>
</clipPath>
<clipPath id="clip1_58_1414">
<rect width="67.7249" height="67.7249" fill="white" transform="translate(88.1772 340.381)"/>
</clipPath>
<clipPath id="clip2_58_1414">
<rect width="45.7143" height="45.7143" fill="white" transform="translate(436.114 493.608)"/>
</clipPath>
<clipPath id="clip3_58_1414">
<rect width="49.1005" height="55.0265" fill="white" transform="translate(570.717 190.54)"/>
</clipPath>
<clipPath id="clip4_58_1414">
<rect width="60.9524" height="60.9524" fill="white" transform="translate(562.251 44.0845)"/>
</clipPath>
<clipPath id="clip5_58_1414">
<rect width="76.1905" height="76.1905" fill="white" transform="translate(855.161 374.243)"/>
</clipPath>
<clipPath id="clip6_58_1414">
<rect width="35.5556" height="35.5556" fill="white" transform="translate(1230.19 478.37)"/>
</clipPath>
<clipPath id="clip7_58_1414">
<rect width="84.6561" height="84.6561" fill="white" transform="translate(89.8706 532.55)"/>
</clipPath>
<clipPath id="clip8_58_1414">
<rect x="357.384" y="601.968" width="35.5556" height="35.5556" rx="9" fill="white"/>
</clipPath>
<clipPath id="clip9_58_1414">
<rect width="37.2487" height="37.2487" fill="white" transform="translate(265.108 94.8779)"/>
</clipPath>
<clipPath id="clip10_58_1414">
<rect width="45.7143" height="45.7143" fill="white" transform="translate(1042.25 316.677)"/>
</clipPath>
<clipPath id="clip11_58_1414">
<rect width="84.6561" height="84.6561" fill="white" transform="translate(739.183 71.1748)"/>
</clipPath>
<clipPath id="clip12_58_1414">
<rect width="47.4074" height="47.4074" fill="white" transform="translate(732.41 459.746)"/>
</clipPath>
<clipPath id="clip13_58_1414">
<rect width="62.6455" height="62.6455" fill="white" transform="translate(894.104 221.016)"/>
</clipPath>
<clipPath id="clip14_58_1414">
<rect width="38.9418" height="38.9418" fill="white" transform="translate(928.812 80.4868)"/>
</clipPath>
</defs>
</svg>
