<svg width="44" height="43" viewBox="0 0 44 43" fill="none" xmlns="http://www.w3.org/2000/svg">
<circle cx="21.8413" cy="21.5" r="21.5" fill="url(#paint0_linear_58_1054)" fill-opacity="0.4"/>
<path d="M15.7943 13.9086C15.6014 13.9083 15.4163 13.985 15.28 14.1214C15.1437 14.2579 15.067 14.4427 15.067 14.6357V15.1261C14.2237 15.4285 13.6128 16.2389 13.6128 17.1805C13.6128 18.3764 14.5984 19.3617 15.7943 19.3617C16.2045 19.3617 16.5211 19.6786 16.5211 20.0888C16.5211 20.499 16.2045 20.8159 15.7943 20.8159C15.3841 20.8159 15.067 20.499 15.067 20.0888C15.0672 19.6874 14.7418 19.3617 14.3401 19.3617C14.1472 19.3615 13.9622 19.4382 13.8258 19.5745C13.6895 19.7108 13.6128 19.8959 13.6128 20.0888C13.6128 21.0305 14.2237 21.8409 15.067 22.1432V22.6336C15.067 22.8265 15.1437 23.0113 15.28 23.1476C15.4166 23.2839 15.6014 23.3607 15.7943 23.3607C16.1957 23.3604 16.5211 23.035 16.5211 22.6336V22.1434C17.3647 21.8409 17.9753 21.0305 17.9753 20.0888C17.9753 18.8929 16.9905 17.9075 15.7943 17.9075C15.3841 17.9075 15.067 17.5906 15.067 17.1805C15.067 16.7703 15.3841 16.4531 15.7943 16.4531C16.2045 16.4531 16.5211 16.7703 16.5211 17.1805C16.5211 17.3734 16.5978 17.5582 16.7342 17.6945C16.8707 17.8308 17.0555 17.9075 17.2484 17.9075C17.6499 17.9073 17.9753 17.5819 17.9753 17.1805C17.9753 16.2387 17.3647 15.4283 16.5211 15.1261V14.6357C16.5214 14.2343 16.1959 13.9086 15.7943 13.9086Z" fill="#00FF8F"/>
<path d="M14.3401 24.8148C14.1472 24.8146 13.9622 24.8913 13.8258 25.0276C13.6895 25.1642 13.6128 25.349 13.6128 25.5419C13.6128 25.7348 13.6895 25.9196 13.8258 26.0559C13.9624 26.1923 14.1472 26.269 14.3401 26.269H19.7932C20.1946 26.2688 20.5201 25.9433 20.5201 25.5419C20.5201 25.3492 20.4436 25.1642 20.3073 25.0278C20.171 24.8915 19.9862 24.8148 19.7932 24.8148H14.3401Z" fill="#00FF8F"/>
<path d="M14.3401 27.7231C14.1472 27.7231 13.9622 27.7996 13.8258 27.9359C13.6895 28.0725 13.6128 28.2574 13.6128 28.4502C13.6128 28.6431 13.6895 28.8282 13.8258 28.9645C13.9624 29.1008 14.1472 29.1773 14.3401 29.1773H19.7932C20.1946 29.1771 20.5201 28.8519 20.5201 28.4502C20.5201 28.2576 20.4436 28.0725 20.3073 27.9362C20.171 27.7999 19.9862 27.7231 19.7932 27.7231H14.3401Z" fill="#00FF8F"/>
<path d="M24.1561 16.8169H31.4267C31.8369 16.8169 32.154 17.1338 32.154 17.544V26.269C32.154 26.6792 31.8369 26.9961 31.4267 26.9961H24.1561C23.7459 26.9961 23.4288 26.6792 23.4288 26.269V17.544C23.4288 17.1338 23.7459 16.8169 24.1561 16.8169ZM24.1561 15.3627C22.9602 15.3627 21.9746 16.3481 21.9746 17.544V26.269C21.9746 27.4649 22.9602 28.4502 24.1561 28.4502H31.4267C32.6229 28.4502 33.6082 27.4649 33.6082 26.269V17.544C33.6082 16.3481 32.6229 15.3627 31.4267 15.3627H24.1561Z" fill="#00FF8F"/>
<path d="M12.5223 11C11.3264 11 10.3413 11.9856 10.3413 13.1815V30.6315C10.3413 31.8274 11.3264 32.8125 12.5223 32.8125H26.3371C27.5331 32.8125 28.5184 31.8274 28.5184 30.6315V29.9046C28.5186 29.7117 28.4419 29.5267 28.3056 29.3903C28.169 29.2538 27.9842 29.1773 27.7913 29.1773C27.5984 29.1773 27.4136 29.254 27.2772 29.3903C27.1409 29.5267 27.0642 29.7117 27.0642 29.9046V30.6315C27.0642 31.0417 26.7473 31.3588 26.3371 31.3588H12.5223C12.1122 31.3588 11.7955 31.0417 11.7955 30.6315V13.1815C11.7955 12.7713 12.1122 12.4542 12.5223 12.4542H26.3371C26.7473 12.4542 27.0642 12.7713 27.0642 13.1815V13.9086C27.0642 14.1013 27.1409 14.2863 27.2772 14.4226C27.4136 14.5589 27.5984 14.6357 27.7913 14.6357C27.9842 14.6357 28.169 14.5592 28.3056 14.4229C28.4419 14.2863 28.5186 14.1015 28.5184 13.9086V13.1815C28.5184 11.9856 27.5331 11 26.3371 11H12.5223Z" fill="#00FF8F"/>
<path d="M25.6099 18.2711C25.417 18.2711 25.2322 18.3475 25.0956 18.4841C24.9593 18.6204 24.8826 18.8055 24.8828 18.9984C24.8828 19.1911 24.9595 19.3761 25.0958 19.5124C25.2322 19.6488 25.4173 19.7252 25.6099 19.7252H29.9726C30.374 19.7252 30.6995 19.3998 30.6995 18.9984C30.6995 18.8055 30.623 18.6204 30.4867 18.4841C30.3504 18.3478 30.1653 18.2711 29.9726 18.2711H25.6099Z" fill="#00FF8F"/>
<path d="M25.6099 21.1794C25.417 21.1794 25.2322 21.2559 25.0956 21.3924C24.9593 21.5288 24.8826 21.7138 24.8828 21.9067C24.8828 22.0997 24.9595 22.2844 25.0958 22.4208C25.2322 22.5571 25.4173 22.6336 25.6099 22.6336H26.7005C27.1019 22.6336 27.4274 22.3081 27.4274 21.9067C27.4276 21.7138 27.3509 21.529 27.2146 21.3924C27.0782 21.2561 26.8934 21.1794 26.7005 21.1794H25.6099Z" fill="#00FF8F"/>
<path d="M25.6099 24.0877C25.4172 24.0877 25.2322 24.1642 25.0958 24.3005C24.9595 24.4369 24.8828 24.6219 24.8828 24.8148C24.8826 25.0077 24.9593 25.1925 25.0956 25.3291C25.2322 25.4654 25.417 25.5419 25.6099 25.5419H26.7005C26.8934 25.5419 27.0782 25.4652 27.2146 25.3289C27.3509 25.1925 27.4276 25.0074 27.4274 24.8148C27.4274 24.4132 27.1019 24.088 26.7005 24.0877H25.6099Z" fill="#00FF8F"/>
<path d="M28.8816 21.1794C28.6889 21.1794 28.5039 21.2561 28.3676 21.3924C28.2312 21.529 28.1548 21.7138 28.1548 21.9067C28.1548 22.3081 28.4802 22.6336 28.8816 22.6336H29.9727C30.3741 22.6336 30.6996 22.3081 30.6996 21.9067C30.6996 21.7138 30.6231 21.529 30.4868 21.3924C30.3505 21.2561 30.1654 21.1794 29.9727 21.1794H28.8816Z" fill="#00FF8F"/>
<path d="M28.8816 24.0877C28.4802 24.088 28.1548 24.4132 28.1548 24.8148C28.1548 25.0075 28.2312 25.1925 28.3676 25.3289C28.5039 25.4652 28.689 25.5419 28.8816 25.5419H29.9727C30.1654 25.5419 30.3505 25.4652 30.4868 25.3289C30.6231 25.1925 30.6996 25.0074 30.6996 24.8148C30.6996 24.4132 30.3741 24.088 29.9727 24.0877H28.8816Z" fill="#00FF8F"/>
<defs>
<linearGradient id="paint0_linear_58_1054" x1="21.8413" y1="0" x2="21.8413" y2="43" gradientUnits="userSpaceOnUse">
<stop stop-color="#00FF8F"/>
<stop offset="1" stop-color="#00FF8F" stop-opacity="0"/>
</linearGradient>
</defs>
</svg>
