<svg width="44" height="44" viewBox="0 0 44 44" fill="none" xmlns="http://www.w3.org/2000/svg">
<circle cx="21.8413" cy="22" r="21.5" fill="url(#paint0_linear_58_1071)" fill-opacity="0.4"/>
<path d="M23.6694 34.3984H20.2632C19.3239 34.3984 18.5601 33.6346 18.5601 32.6953V32.1478C17.9997 31.9672 17.4556 31.7416 16.9336 31.475L16.547 31.8616C15.9049 32.5046 14.7825 32.5046 14.1387 31.8616L11.7305 29.4534C11.4086 29.1315 11.2315 28.704 11.2315 28.2493C11.2315 27.7937 11.4086 27.3662 11.7305 27.0443L12.1163 26.6577C11.8497 26.1357 11.6241 25.5916 11.4436 25.0312H10.896C9.95672 25.0312 9.19287 24.2674 9.19287 23.3281V19.9219C9.19287 18.9826 9.95672 18.2188 10.896 18.2188H11.4436C11.6241 17.6584 11.8497 17.1143 12.1163 16.5923L11.7297 16.2057C11.4086 15.8846 11.2315 15.4563 11.2315 15.0015C11.2315 14.5468 11.4086 14.1193 11.7305 13.7974L14.1387 11.3892C14.7825 10.7454 15.9049 10.7454 16.5478 11.3892L16.9344 11.775C17.4564 11.5084 18.0006 11.2828 18.5609 11.1022V10.5547C18.5609 9.61541 19.3248 8.85156 20.264 8.85156H23.6703C24.6096 8.85156 25.3734 9.61541 25.3734 10.5547V11.1022C25.9337 11.2828 26.4779 11.5084 26.9999 11.775L27.3865 11.3884C28.0277 10.7463 29.1509 10.7446 29.7947 11.3884L32.2029 13.7966C32.5248 14.1185 32.702 14.546 32.702 15.0007C32.702 15.4563 32.5248 15.8838 32.2029 16.2057L31.8172 16.5923C32.0837 17.1143 32.3094 17.6584 32.4899 18.2188H33.0366C33.9759 18.2188 34.7397 18.9826 34.7397 19.9219V23.3281C34.7397 24.2674 33.9759 25.0312 33.0366 25.0312H32.4891C32.3085 25.5916 32.0829 26.1357 31.8163 26.6577L32.2029 27.0443C32.524 27.3654 32.7011 27.7929 32.7011 28.2485C32.7011 28.7032 32.524 29.1307 32.2021 29.4526L29.7939 31.8608C29.1501 32.5046 28.0277 32.5046 27.3848 31.8608L26.9982 31.475C26.4762 31.7416 25.932 31.9672 25.3717 32.1478V32.6953C25.3726 33.6346 24.6087 34.3984 23.6694 34.3984ZM16.6483 29.3521L17.2163 29.6876C17.9657 30.1304 18.7755 30.4651 19.6245 30.6839L20.2632 30.8491V32.6953H23.6694V30.8491L24.3081 30.6848C25.1571 30.4659 25.9669 30.1304 26.7163 29.6884L27.2843 29.3529L28.5898 30.6575L30.998 28.2493L29.6934 26.9439L30.0289 26.3759C30.4717 25.6265 30.8064 24.8167 31.0252 23.9676L31.1904 23.3281H33.0366V19.9219H31.1904L31.0261 19.2832C30.8072 18.4342 30.4717 17.6244 30.0298 16.875L29.6942 16.307L30.9988 15.0015L28.5906 12.5933L27.2852 13.8979L26.7172 13.5624C25.9678 13.1196 25.158 12.7849 24.309 12.5661L23.6694 12.4009V10.5547H20.2632V12.4009L19.6245 12.5652C18.7755 12.7841 17.9657 13.1196 17.2163 13.5616L16.6483 13.8979L15.3429 12.5933L12.9346 15.0015L14.2392 16.307L13.9037 16.875C13.4609 17.6244 13.1262 18.4342 12.9074 19.2832L12.7422 19.9219H10.896V23.3281H12.7422L12.9065 23.9668C13.1254 24.8158 13.4609 25.6256 13.9029 26.375L14.2384 26.943L12.9338 28.2485L15.342 30.6567L16.6483 29.3521Z" fill="#00FF8F"/>
<path d="M21.9663 29.2891C17.7409 29.2891 14.3022 25.8505 14.3022 21.625C14.3022 17.3995 17.7409 13.9609 21.9663 13.9609C26.1918 13.9609 29.6304 17.3995 29.6304 21.625C29.6304 25.8505 26.1918 29.2891 21.9663 29.2891ZM21.9663 15.6641C18.6793 15.6641 16.0054 18.338 16.0054 21.625C16.0054 24.912 18.6793 27.5859 21.9663 27.5859C25.2533 27.5859 27.9272 24.912 27.9272 21.625C27.9272 18.338 25.2533 15.6641 21.9663 15.6641Z" fill="#00FF8F"/>
<path d="M21.9663 25.8828C21.7449 25.8828 21.5235 25.7891 21.3617 25.6358C21.2084 25.4741 21.1147 25.2526 21.1147 25.0312C21.1147 24.8098 21.2084 24.5884 21.3617 24.4266C21.6853 24.1116 22.2473 24.1116 22.5709 24.4266C22.7242 24.5884 22.8179 24.8098 22.8179 25.0312C22.8179 25.2526 22.7242 25.4741 22.5709 25.6358C22.4091 25.7891 22.1877 25.8828 21.9663 25.8828Z" fill="#00FF8F"/>
<path d="M21.9665 20.7734C21.4964 20.7734 21.1149 21.1549 21.1149 21.625V22.6484C21.1149 23.1187 21.4962 23.5 21.9665 23.5C22.4368 23.5 22.818 23.1187 22.818 22.6484V22.3306C23.8092 21.9791 24.5211 21.0319 24.5211 19.9219C24.5211 18.5134 23.3749 17.3672 21.9665 17.3672C21.0578 17.3672 20.2105 17.856 19.7541 18.6428C19.5182 19.0499 19.657 19.571 20.0641 19.8069C20.4728 20.0419 20.9923 19.904 21.2282 19.4969C21.3806 19.2338 21.6633 19.0703 21.9665 19.0703C22.4357 19.0703 22.818 19.4527 22.818 19.9219C22.818 20.3911 22.4357 20.7734 21.9665 20.7734Z" fill="#00FF8F"/>
<defs>
<linearGradient id="paint0_linear_58_1071" x1="21.8413" y1="0.5" x2="21.8413" y2="43.5" gradientUnits="userSpaceOnUse">
<stop stop-color="#00FF8F"/>
<stop offset="1" stop-color="#00FF8F" stop-opacity="0"/>
</linearGradient>
</defs>
</svg>
