<svg width="44" height="43" viewBox="0 0 44 43" fill="none" xmlns="http://www.w3.org/2000/svg">
<circle cx="22.1514" cy="21.5001" r="21.5" fill="url(#paint0_linear_58_1047)" fill-opacity="0.4"/>
<path d="M21.318 10.5312V8.84375C21.318 8.37772 21.6908 8 22.1514 8C22.6119 8 22.9847 8.37772 22.9847 8.84375V10.5312C22.9847 10.9973 22.6119 11.375 22.1514 11.375C21.6908 11.375 21.318 10.9973 21.318 10.5312ZM14.4911 14.0933C14.6539 14.2581 14.8672 14.3405 15.0803 14.3405C15.2933 14.3405 15.5066 14.2581 15.6694 14.0933C15.995 13.7637 15.995 13.2298 15.6694 12.9002L14.4911 11.7072C14.1655 11.3775 13.6383 11.3775 13.3128 11.7072C12.9872 12.0368 12.9872 12.5706 13.3128 12.9002L14.4911 14.0933ZM12.1514 19.8125H10.4847C10.0241 19.8125 9.65137 20.1902 9.65137 20.6562C9.65137 21.1223 10.0241 21.5 10.4847 21.5H12.1514C12.6119 21.5 12.9847 21.1223 12.9847 20.6562C12.9847 20.1902 12.6119 19.8125 12.1514 19.8125ZM14.4911 27.2192L13.3128 28.4123C12.9872 28.7419 12.9872 29.2757 13.3128 29.6053C13.4755 29.7702 13.6889 29.8526 13.9019 29.8526C14.115 29.8526 14.3283 29.7702 14.4911 29.6053L15.6694 28.4123C15.995 28.0827 15.995 27.5488 15.6694 27.2192C15.3439 26.8896 14.8166 26.8896 14.4911 27.2192ZM29.8116 27.2192C29.4861 26.8896 28.9589 26.8896 28.6333 27.2192C28.3078 27.5488 28.3078 28.0827 28.6333 28.4123L29.8116 29.6053C29.9744 29.7702 30.1878 29.8526 30.4008 29.8526C30.6139 29.8526 30.8272 29.7702 30.99 29.6053C31.3155 29.2757 31.3155 28.7419 30.99 28.4123L29.8116 27.2192ZM33.818 19.8125H32.1514C31.6908 19.8125 31.318 20.1902 31.318 20.6562C31.318 21.1223 31.6908 21.5 32.1514 21.5H33.818C34.2786 21.5 34.6514 21.1223 34.6514 20.6562C34.6514 20.1902 34.2786 19.8125 33.818 19.8125ZM29.8116 11.7072L28.6333 12.9002C28.3078 13.2298 28.3078 13.7637 28.6333 14.0933C28.7961 14.2581 29.0094 14.3405 29.2225 14.3405C29.4355 14.3405 29.6489 14.2581 29.8116 14.0933L30.99 12.9002C31.3155 12.5706 31.3155 12.0368 30.99 11.7072C30.6644 11.3775 30.1372 11.3775 29.8116 11.7072ZM29.6514 20.6562C29.6514 22.8303 28.7447 24.8688 27.1514 26.3116V29.0938C27.1514 30.1923 26.4525 31.1202 25.4847 31.4695V31.625C25.4847 33.486 23.9897 35 22.1514 35C20.313 35 18.818 33.486 18.818 31.625V31.4695C17.8503 31.1202 17.1514 30.1923 17.1514 29.0938V26.3116C15.558 24.8688 14.6514 22.8303 14.6514 20.6562C14.6514 16.4693 18.0155 13.0625 22.1514 13.0625C26.2872 13.0625 29.6514 16.4693 29.6514 20.6562ZM23.818 31.625H20.4847C20.4847 32.5557 21.2325 33.3125 22.1514 33.3125C23.0703 33.3125 23.818 32.5557 23.818 31.625ZM25.4847 29.0938V28.25H18.818V29.0938C18.818 29.5589 19.1916 29.9375 19.6514 29.9375H24.6514C25.1111 29.9375 25.4847 29.5589 25.4847 29.0938ZM27.9847 20.6562C27.9847 17.3994 25.3675 14.75 22.1514 14.75C18.9353 14.75 16.318 17.3994 16.318 20.6562C16.318 22.4537 17.1155 24.1331 18.5064 25.2631C18.7033 25.4229 18.818 25.6653 18.818 25.921V26.5625H21.318V23.5368L19.0622 21.2528C18.7366 20.9232 18.7366 20.3893 19.0622 20.0597C19.3878 19.7301 19.915 19.7301 20.2405 20.0597L22.1514 21.9944L24.0622 20.0597C24.3878 19.7301 24.915 19.7301 25.2405 20.0597C25.5661 20.3893 25.5661 20.9232 25.2405 21.2528L22.9847 23.5368V26.5625H25.4847V25.921C25.4847 25.665 25.5994 25.4229 25.7964 25.2631C27.1872 24.1331 27.9847 22.4537 27.9847 20.6562Z" fill="#00FF8F"/>
<defs>
<linearGradient id="paint0_linear_58_1047" x1="22.1514" y1="0.00012207" x2="22.1514" y2="43.0001" gradientUnits="userSpaceOnUse">
<stop stop-color="#00FF8F"/>
<stop offset="1" stop-color="#00FF8F" stop-opacity="0"/>
</linearGradient>
</defs>
</svg>
