<svg width="157" height="155" viewBox="0 0 157 155" fill="none" xmlns="http://www.w3.org/2000/svg">
<path fill-rule="evenodd" clip-rule="evenodd" d="M146.954 101.063C143.017 103.991 138.918 106.695 134.683 109.162C133.624 109.772 132.578 110.37 131.506 110.956L131.12 111.168H130.771L130.572 111.267C130.31 111.429 129.949 111.604 129.563 111.778C128.728 112.152 127.869 112.501 126.997 112.787C126.062 113.124 125.053 113.398 124.119 113.672C122.113 114.195 120.07 114.619 118.027 114.93C115.922 115.279 113.767 115.541 111.549 115.728C107.139 116.126 102.517 116.276 97.6339 116.351C92.7505 116.438 87.6304 116.475 82.2362 116.625C79.5579 116.625 76.8047 116.849 73.9768 117.036L69.7288 117.385C68.2837 117.522 66.8511 117.696 65.3562 117.92C59.4388 118.768 53.5837 120.076 47.8656 121.808C42.1725 123.477 36.579 125.433 31.0852 127.663C28.3944 128.772 25.7284 129.919 23.0874 131.102C28.5563 136.671 34.8349 141.368 41.6991 145.056C45.5859 143.113 49.4727 141.157 53.3595 139.549C57.8567 137.631 62.5034 136.073 67.2373 134.89C68.346 134.616 69.517 134.341 70.6756 134.105C71.8466 133.868 73.0051 133.656 74.1762 133.469C76.5057 133.058 78.8353 132.722 81.1524 132.435C85.7742 131.825 90.3462 131.401 94.7562 130.89C99.1662 130.392 103.564 129.881 107.837 129.134C109.954 128.747 112.072 128.324 114.178 127.8C116.333 127.265 118.451 126.617 120.531 125.844C121.615 125.458 122.711 125.01 123.832 124.499L125.564 123.639C126.149 123.353 126.772 123.004 127.507 122.605C128.23 122.194 128.927 121.745 129.6 121.247C129.799 121.135 129.999 120.96 130.211 120.823L130.796 120.599L130.971 120.462L131.095 120.35L131.294 120.176L131.668 119.827L134.683 116.936C138.744 113.049 142.78 109.099 146.767 105.088C148.71 103.007 150.828 100.926 152.846 98.7959C153.158 97.7867 153.432 96.8523 153.681 95.7434C151.463 97.6123 149.221 99.3814 146.954 101.063Z" fill="url(#paint0_linear_84_642)"/>
<path fill-rule="evenodd" clip-rule="evenodd" d="M137.087 75.8086L133.823 75.684H132.291C131.917 75.684 131.469 75.684 131.02 75.684C129.077 75.684 127.133 75.4349 124.916 75.1857C120.63 74.6749 116.096 73.8899 111.437 72.9929C106.765 72.1083 101.969 71.0493 96.9983 70.0027C92.0152 68.9437 86.9076 67.8348 81.638 66.8007C78.997 66.2899 76.3311 65.7916 73.6153 65.3181L69.4918 64.6329L67.4363 64.3089L65.2936 63.8978C59.5755 63.1129 53.7952 62.6768 47.9027 62.4525C42.0103 62.2407 36.068 62.2781 30.0385 62.4525C24.009 62.627 17.8923 63.1004 11.7133 63.6486C8.31237 63.9352 4.88652 64.284 1.47312 64.6329C0.875155 68.5699 0.576172 72.5444 0.576172 76.5313C0.576172 79.7831 0.787954 83.0349 1.17414 86.2742C5.54677 85.5267 9.80728 84.804 14.0304 84.1686C19.8606 83.2342 25.6908 82.4119 31.3839 81.7516C37.077 81.0913 42.5958 80.5929 48.0148 80.3437C53.4339 80.0945 58.7409 79.9699 63.861 80.1942H67.7477L71.6345 80.4185L79.2461 81.029C84.279 81.4775 89.2247 81.9758 94.0583 82.4493C98.8918 82.9227 103.638 83.3837 108.31 83.7201C112.969 84.044 117.516 84.2559 122.138 84.206C124.467 84.206 126.784 84.0814 129.376 83.7949C130.036 83.7949 130.696 83.6329 131.431 83.4958H131.954L132.365 83.3837L133.2 83.1719L136.501 82.2749C140.899 81.1037 145.172 79.9201 149.345 78.7614L156.097 76.8178V76.3444C156.097 75.8834 156.097 75.4099 156.097 74.949C154.029 75.1608 151.912 75.3227 149.794 75.4099C145.62 75.8834 141.422 75.9208 137.087 75.8086Z" fill="url(#paint1_linear_84_642)"/>
<path fill-rule="evenodd" clip-rule="evenodd" d="M134.832 126.119C133.86 127.016 132.889 127.888 131.88 128.748L131.506 129.084L131.356 129.221L131.219 129.333L131.045 129.495L130.148 130.205L129.027 130.99L127.793 131.775C126.946 132.274 126.049 132.76 125.14 133.233C123.309 134.142 121.365 134.965 119.31 135.725C117.242 136.485 115.261 137.145 113.143 137.668C108.92 138.927 104.473 139.973 99.8136 141.007C95.142 142.042 90.2462 142.951 85.2133 144.085C82.7093 144.633 80.143 145.181 77.5768 145.779C76.2812 146.078 74.9731 146.365 73.69 146.701L71.7466 147.162L69.8032 147.685C65.7046 148.782 61.6185 150.065 57.5947 151.585C92.1148 161.154 128.69 145.879 146.218 114.569C142.406 118.756 138.619 122.605 134.832 126.119Z" fill="url(#paint2_linear_84_642)"/>
<path fill-rule="evenodd" clip-rule="evenodd" d="M137.187 31.9031L138.682 33.1864L140.201 34.3824L143.229 36.787C144.45 37.7713 145.658 38.7431 146.866 39.8146C136.203 19.8552 117.416 5.52732 95.4038 0.53125C107.762 8.67945 119.684 17.4755 131.12 26.8696L137.187 31.9031Z" fill="url(#paint3_linear_84_642)"/>
<path fill-rule="evenodd" clip-rule="evenodd" d="M141.771 45.446L138.719 43.2283C138.208 42.867 137.71 42.4807 137.187 42.1319L135.629 41.1351C133.549 39.8145 131.456 38.4938 129.338 37.2355C111.947 26.5207 93.9586 16.84 75.4341 8.2433C70.0524 5.7515 64.5959 3.35936 59.0896 1.05444C49.9582 3.4092 41.325 7.42101 33.6138 12.8781C46.6445 16.2295 59.2765 19.905 71.5099 23.8918C90.6573 30.1089 109.468 37.3227 127.881 45.4833C130.048 46.4551 132.203 47.427 134.346 48.4237L135.953 49.1712L137.548 49.7942C138.644 50.2053 139.691 50.6289 140.762 51.0774C144.997 52.7968 149.133 54.6407 153.182 56.6093L153.543 56.8086C153.232 55.5752 152.883 54.3916 152.522 53.1955C148.971 50.6663 145.384 48.0873 141.771 45.446Z" fill="url(#paint4_linear_84_642)"/>
<path fill-rule="evenodd" clip-rule="evenodd" d="M151.7 64.1347C147.664 62.8514 143.515 61.4186 139.305 59.8986L136.116 58.7524L134.521 58.1668L132.951 57.7058L126.399 55.7498C117.541 53.0835 108.26 50.2802 98.6431 47.4271C93.822 46.0317 88.9261 44.5865 83.9181 43.1661L76.3688 41.0232L72.482 39.9642L70.5386 39.4409L68.5952 38.9425C65.9418 38.3071 63.3132 37.7091 60.6473 37.1235L52.6246 35.3917C47.2429 34.2579 41.774 33.1615 36.2054 32.1025C29.9641 30.9065 23.6232 29.7353 17.195 28.6514C12.4861 34.694 8.68648 41.397 5.9458 48.5609C15.2267 49.4206 24.2959 50.3176 33.1533 51.252C38.9834 51.8501 44.5396 52.4855 50.0957 53.1957L58.3426 54.1799C61.0335 54.4914 63.7368 54.8153 66.3404 55.1642L68.2838 55.4258L70.2272 55.7124L74.114 56.3353L81.8875 57.6062L96.6623 59.9983C106.516 61.618 115.959 63.1629 125.041 64.5209L131.805 65.4927L133.512 65.7294C134.06 65.7294 134.621 65.7294 135.169 65.8291L138.445 66.0285C142.805 66.2901 147.053 66.639 151.202 67.0376L155.525 67.4862L155.238 65.2435C154.117 64.8947 152.884 64.5209 151.7 64.1347Z" fill="url(#paint5_linear_84_642)"/>
<path fill-rule="evenodd" clip-rule="evenodd" d="M148.162 87.7322C144.038 89.327 139.828 90.7099 135.555 91.8562L132.291 92.7034L131.469 92.8903H131.02L129.899 93.1893C129.039 93.3637 128.105 93.5132 127.121 93.6503C126.124 93.7873 125.177 93.887 124.081 93.9617C121.988 94.1362 119.833 94.1985 117.628 94.2234C115.436 94.2358 113.143 94.2234 110.864 94.0614C106.242 93.8496 101.446 93.4634 96.4626 93.0149C91.492 92.5663 86.3096 92.0431 80.9155 91.607C78.2246 91.3703 75.4964 91.1834 72.7184 91.009C71.3356 91.009 69.9403 90.8345 68.5201 90.7722H64.2098C58.2301 90.6601 52.2505 90.9217 46.3082 91.5447C40.3036 92.1676 34.299 93.1519 28.2695 94.3604C22.2525 95.569 16.1233 97.0267 10.2931 98.6214L4.31348 100.278C6.53093 107.256 9.73254 113.896 13.7937 119.976L17.2071 118.718C22.5515 116.762 27.8584 115.018 33.128 113.448C38.3976 111.89 43.6671 110.582 48.8371 109.56C53.845 108.551 58.9153 107.854 64.0105 107.455L65.8542 107.33H67.7976C69.0683 107.33 70.3265 107.218 71.5972 107.156C74.1012 107.156 76.5802 107.006 79.0593 106.969C83.9925 106.969 88.7762 106.969 93.5351 106.807C98.2939 106.657 102.841 106.657 107.375 106.383C109.643 106.246 111.885 106.072 114.09 105.81C116.308 105.561 118.562 105.225 120.842 104.801C121.988 104.564 123.134 104.315 124.318 104.016C125.501 103.73 126.71 103.343 128.055 102.87C128.715 102.633 129.413 102.359 130.173 102.035L130.459 101.898L130.771 101.761L131.057 101.624L131.282 101.512L132.091 101.038L135.318 99.0949C139.616 96.5532 143.827 93.9991 147.95 91.3952C150.541 89.788 153.07 88.1558 155.549 86.4988L155.786 84.5552C153.195 85.664 150.716 86.7355 148.162 87.7322Z" fill="url(#paint6_linear_84_642)"/>
<defs>
<linearGradient id="paint0_linear_84_642" x1="23.0874" y1="95.7434" x2="153.681" y2="95.7434" gradientUnits="userSpaceOnUse">
<stop stop-color="#00FF8F"/>
<stop offset="1" stop-color="#00A1FF"/>
</linearGradient>
<linearGradient id="paint1_linear_84_642" x1="0.576172" y1="62.4525" x2="156.097" y2="62.4525" gradientUnits="userSpaceOnUse">
<stop stop-color="#00FF8F"/>
<stop offset="1" stop-color="#00A1FF"/>
</linearGradient>
<linearGradient id="paint2_linear_84_642" x1="57.5947" y1="114.569" x2="146.218" y2="114.569" gradientUnits="userSpaceOnUse">
<stop stop-color="#00FF8F"/>
<stop offset="1" stop-color="#00A1FF"/>
</linearGradient>
<linearGradient id="paint3_linear_84_642" x1="95.4038" y1="0.531248" x2="146.866" y2="0.531248" gradientUnits="userSpaceOnUse">
<stop stop-color="#00FF8F"/>
<stop offset="1" stop-color="#00A1FF"/>
</linearGradient>
<linearGradient id="paint4_linear_84_642" x1="33.6138" y1="1.05444" x2="153.543" y2="1.05444" gradientUnits="userSpaceOnUse">
<stop stop-color="#00FF8F"/>
<stop offset="1" stop-color="#00A1FF"/>
</linearGradient>
<linearGradient id="paint5_linear_84_642" x1="5.9458" y1="28.6514" x2="155.525" y2="28.6514" gradientUnits="userSpaceOnUse">
<stop stop-color="#00FF8F"/>
<stop offset="1" stop-color="#00A1FF"/>
</linearGradient>
<linearGradient id="paint6_linear_84_642" x1="4.31348" y1="84.5552" x2="155.786" y2="84.5552" gradientUnits="userSpaceOnUse">
<stop stop-color="#00FF8F"/>
<stop offset="1" stop-color="#00A1FF"/>
</linearGradient>
</defs>
</svg>
