<svg width="234" height="52" viewBox="0 0 234 52" fill="none" xmlns="http://www.w3.org/2000/svg">
<path fill-rule="evenodd" clip-rule="evenodd" d="M49.4635 33.9716C48.1333 34.9609 46.7483 35.8745 45.317 36.7081C44.9592 36.9144 44.6056 37.1165 44.2436 37.3144L44.1131 37.386H43.9952L43.9278 37.4196C43.8394 37.4744 43.7174 37.5333 43.5869 37.5923C43.3048 37.7186 43.0143 37.8364 42.7197 37.9333C42.4039 38.047 42.063 38.1396 41.7472 38.2322C41.0695 38.409 40.3791 38.5522 39.6887 38.6574C38.9773 38.7753 38.249 38.8637 37.4997 38.9269C36.0095 39.0616 34.4477 39.1121 32.7975 39.1374C31.1473 39.1668 29.4172 39.1795 27.5944 39.23C26.6893 39.23 25.759 39.3058 24.8034 39.3689L23.3679 39.4868C22.8796 39.5331 22.3955 39.5921 21.8903 39.6679C19.8907 39.9541 17.9122 40.3962 15.9799 40.9814C14.0561 41.5456 12.166 42.2066 10.3095 42.9602C9.40025 43.3349 8.49938 43.7222 7.60693 44.1222C9.45497 46.0041 11.5766 47.5913 13.8962 48.8375C15.2096 48.1807 16.523 47.5197 17.8364 46.9766C19.3561 46.3283 20.9263 45.802 22.526 45.402C22.9006 45.3094 23.2963 45.2168 23.6878 45.1368C24.0835 45.0568 24.475 44.9852 24.8707 44.9221C25.6579 44.7832 26.4451 44.6695 27.2281 44.5727C28.7899 44.3664 30.3349 44.2232 31.8251 44.0506C33.3153 43.8822 34.8013 43.7096 36.2452 43.457C36.9609 43.3265 37.6765 43.1833 38.3879 43.0065C39.1162 42.8254 39.8318 42.6065 40.5349 42.3455C40.9011 42.215 41.2715 42.0634 41.6504 41.8908L42.2356 41.6003C42.4334 41.5035 42.6439 41.3856 42.8923 41.2509C43.1364 41.1119 43.3722 40.9604 43.5995 40.792C43.6668 40.7541 43.7342 40.6951 43.8058 40.6488L44.0036 40.573L44.0625 40.5267L44.1046 40.4888L44.172 40.4299L44.2983 40.312L45.317 39.3353C46.6894 38.0217 48.0533 36.6871 49.4004 35.3314C50.0571 34.6283 50.7727 33.9252 51.4547 33.2053C51.5599 32.8643 51.6526 32.5485 51.7367 32.1738C50.9874 32.8053 50.2297 33.4032 49.4635 33.9716Z" fill="url(#paint0_linear_4001_1903)"/>
<path fill-rule="evenodd" clip-rule="evenodd" d="M46.1294 25.4376L45.0265 25.3955H44.5087C44.3824 25.3955 44.2308 25.3955 44.0793 25.3955C43.4226 25.3955 42.7659 25.3113 42.0166 25.2271C40.5684 25.0544 39.0361 24.7892 37.4617 24.4861C35.8831 24.1871 34.2624 23.8293 32.5827 23.4756C30.8989 23.1178 29.1729 22.7431 27.3922 22.3936C26.4998 22.221 25.5989 22.0526 24.6812 21.8926L23.2878 21.6611L22.5932 21.5516L21.8692 21.4127C19.9369 21.1474 17.9836 21.0001 15.9925 20.9243C14.0013 20.8527 11.9933 20.8654 9.95583 20.9243C7.91836 20.9832 5.85142 21.1432 3.76343 21.3285C2.6142 21.4253 1.45654 21.5432 0.303095 21.6611C0.101032 22.9915 0 24.3345 0 25.6817C0 26.7806 0.071565 27.8794 0.202063 28.9741C1.67965 28.7215 3.11935 28.4773 4.54643 28.2626C6.51655 27.9468 8.48666 27.6689 10.4105 27.4458C12.3343 27.2227 14.1992 27.0542 16.0304 26.97C17.8616 26.8858 19.6549 26.8437 21.385 26.9195H22.6985L24.0119 26.9953L26.584 27.2016C28.2847 27.3532 29.9559 27.5216 31.5893 27.6816C33.2226 27.8415 34.8265 27.9973 36.4051 28.111C37.9795 28.2204 39.516 28.292 41.0778 28.2752C41.865 28.2752 42.648 28.2331 43.5236 28.1362C43.7467 28.1362 43.9698 28.0815 44.2182 28.0352H44.395L44.5339 27.9973L44.816 27.9257L45.9315 27.6226C47.4176 27.2269 48.8615 26.8269 50.2717 26.4354L52.5533 25.7786V25.6186C52.5533 25.4628 52.5533 25.3028 52.5533 25.1471C51.8545 25.2186 51.1389 25.2734 50.4232 25.3028C49.013 25.4628 47.5944 25.4754 46.1294 25.4376Z" fill="url(#paint1_linear_4001_1903)"/>
<path fill-rule="evenodd" clip-rule="evenodd" d="M45.3674 42.4381C45.0391 42.7412 44.7107 43.0359 44.3698 43.3264L44.2435 43.4401L44.1929 43.4864L44.1466 43.5243L44.0877 43.579L43.7846 43.819L43.4057 44.0842L42.989 44.3495C42.7027 44.5179 42.3996 44.6821 42.0923 44.842C41.4735 45.1494 40.8168 45.4273 40.1222 45.6841C39.4234 45.9409 38.7541 46.164 38.0384 46.3409C36.6114 46.7661 35.1085 47.1197 33.5341 47.4692C31.9555 47.8186 30.3011 48.1259 28.6004 48.5091C27.7542 48.6943 26.8871 48.8796 26.0199 49.0816C25.5821 49.1827 25.14 49.2795 24.7065 49.3932L24.0497 49.549L23.393 49.7258C22.0081 50.0963 20.6273 50.5299 19.2676 51.0436C30.9325 54.2769 43.2921 49.1153 49.2151 38.5353C47.9269 39.9499 46.6472 41.2508 45.3674 42.4381Z" fill="url(#paint2_linear_4001_1903)"/>
<path fill-rule="evenodd" clip-rule="evenodd" d="M46.1631 10.6011L46.6683 11.0347L47.1819 11.4389L48.2048 12.2515C48.6174 12.5841 49.0257 12.9125 49.434 13.2745C45.8306 6.52991 39.4824 1.68826 32.0439 0C36.2199 2.75342 40.2486 5.72577 44.113 8.90021L46.1631 10.6011Z" fill="url(#paint3_linear_4001_1903)"/>
<path fill-rule="evenodd" clip-rule="evenodd" d="M47.7123 15.1776L46.6809 14.4282C46.5083 14.3061 46.3399 14.1755 46.1631 14.0577L45.6369 13.7209C44.9339 13.2746 44.2267 12.8283 43.5111 12.4031C37.6344 8.78238 31.5556 5.51111 25.2959 2.60612C23.4773 1.7641 21.6335 0.955753 19.7728 0.17688C16.6871 0.972593 13.7698 2.32825 11.1641 4.17229C15.5674 5.30481 19.836 6.5468 23.9698 7.89404C30.4401 9.99489 36.7967 12.4326 43.0185 15.1902C43.751 15.5186 44.4793 15.847 45.2033 16.1838L45.7464 16.4364L46.2852 16.6469C46.6557 16.7858 47.0093 16.929 47.3713 17.0805C48.8026 17.6615 50.2002 18.2846 51.5683 18.9498L51.6904 19.0172C51.5852 18.6004 51.4673 18.2004 51.3452 17.7963C50.1455 16.9416 48.9331 16.0701 47.7123 15.1776Z" fill="url(#paint4_linear_4001_1903)"/>
<path fill-rule="evenodd" clip-rule="evenodd" d="M51.0674 21.4928C49.7035 21.0591 48.3017 20.575 46.8788 20.0613L45.8011 19.674L45.2623 19.4761L44.7319 19.3203L42.5176 18.6593C39.5245 17.7584 36.3884 16.8111 33.1385 15.847C31.5094 15.3754 29.855 14.8871 28.1627 14.4071L25.6116 13.683L24.2982 13.3251L23.6415 13.1483L22.9848 12.9799C22.0882 12.7652 21.1999 12.5631 20.299 12.3652L17.588 11.78C15.7695 11.3969 13.9214 11.0264 12.0397 10.6685C9.93067 10.2644 7.78795 9.8686 5.61577 9.50232C4.02452 11.5442 2.74058 13.8093 1.81445 16.2301C4.95065 16.5206 8.01528 16.8237 11.0083 17.1395C12.9785 17.3416 14.856 17.5563 16.7335 17.7963L19.5203 18.1289C20.4295 18.2341 21.343 18.3436 22.2229 18.4615L22.8796 18.5499L23.5363 18.6467L24.8497 18.8572L27.4765 19.2867L32.4692 20.095C35.799 20.6423 38.9899 21.1644 42.0588 21.6233L44.3446 21.9517L44.9213 22.0317C45.1065 22.0317 45.296 22.0317 45.4812 22.0653L46.5883 22.1327C48.0617 22.2211 49.4972 22.339 50.899 22.4737L52.3598 22.6253L52.263 21.8675C51.8841 21.7496 51.4673 21.6233 51.0674 21.4928Z" fill="url(#paint5_linear_4001_1903)"/>
<path fill-rule="evenodd" clip-rule="evenodd" d="M49.8716 29.4666C48.4782 30.0055 47.0553 30.4729 45.6114 30.8602L44.5085 31.1465L44.2306 31.2096H44.0791L43.7002 31.3107C43.4098 31.3696 43.094 31.4201 42.7615 31.4665C42.4247 31.5128 42.1048 31.5465 41.7343 31.5717C41.0271 31.6307 40.2988 31.6517 39.5537 31.6601C38.8128 31.6643 38.0382 31.6601 37.2679 31.6054C35.7061 31.5338 34.0854 31.4033 32.4015 31.2517C30.7219 31.1002 28.9706 30.9234 27.1479 30.776C26.2386 30.696 25.3167 30.6329 24.3779 30.5739C23.9106 30.5739 23.4392 30.515 22.9593 30.4939H21.5027C19.4821 30.456 17.4614 30.5444 15.4534 30.7549C13.4244 30.9655 11.3953 31.2981 9.35786 31.7064C7.3246 32.1148 5.25345 32.6074 3.28333 33.1463L1.2627 33.7062C2.01201 36.0639 3.09389 38.3079 4.46624 40.3625L5.61969 39.9372C7.42563 39.2762 9.21894 38.6868 10.9996 38.1564C12.7803 37.6301 14.561 37.188 16.308 36.8428C18.0003 36.5018 19.7136 36.266 21.4354 36.1313L22.0584 36.0892H22.7151C23.1445 36.0892 23.5697 36.0513 23.999 36.0302C24.8452 36.0302 25.6829 35.9797 26.5206 35.9671C28.1876 35.9671 29.8042 35.9671 31.4122 35.9124C33.0203 35.8618 34.5569 35.8618 36.0892 35.7692C36.8553 35.7229 37.6131 35.664 38.3582 35.5755C39.1075 35.4913 39.8694 35.3777 40.6398 35.2345C41.0271 35.1545 41.4144 35.0703 41.8143 34.9693C42.2142 34.8725 42.6226 34.7419 43.0772 34.582C43.3003 34.502 43.536 34.4093 43.7928 34.2999L43.8897 34.2536L43.9949 34.2073L44.0917 34.1609L44.1675 34.123L44.4411 33.9631L45.5314 33.3063C46.9838 32.4474 48.4066 31.5843 49.8 30.7044C50.6756 30.1613 51.5302 29.6098 52.3679 29.0498L52.4479 28.3931C51.5723 28.7678 50.7346 29.1298 49.8716 29.4666Z" fill="url(#paint6_linear_4001_1903)"/>
<path d="M88.8407 30.0001C88.8407 30.8295 88.7312 33.4945 86.8663 35.2922C86.1802 35.9785 85.4266 36.3026 85.1025 36.4458C83.5239 37.1657 82.1221 37.2752 80.4719 37.2752H64.9551V11.8502H79.9667C80.6866 11.8502 81.4064 11.8839 82.1221 11.9934C83.6333 12.2081 85.4266 12.8564 86.5043 13.9721C86.719 14.2247 87.1526 14.7299 87.5104 15.4878C87.9398 16.3508 88.1587 17.3234 88.1587 18.2959C88.1587 19.1253 87.9061 21.5377 85.8602 23.1586C85.4645 23.4449 85.0688 23.6975 84.1722 24.0933L85.2498 24.4174C86.037 24.6701 86.6474 25.1037 87.2578 25.7142C88.8028 27.3351 88.8407 29.1707 88.8407 30.0001ZM80.0046 19.3779C80.0046 18.7296 79.8236 18.3296 79.6805 18.1149C79.0701 17.1423 77.8493 17.2139 77.563 17.2139H72.9661V21.4998H77.382C78.245 21.4998 79.2132 21.4283 79.7183 20.5652C80.0046 20.1315 80.0046 19.5926 80.0046 19.3779ZM80.6866 29.3517C80.6866 29.0654 80.6487 28.5223 80.3287 27.9834C79.6089 26.7962 78.1018 26.8299 77.7777 26.8299H72.9282V31.802H77.9587C78.8554 31.802 79.6805 31.621 80.2572 30.7916C80.6487 30.2148 80.6866 29.638 80.6866 29.3517ZM110.428 18.6201L103.638 38.353C103.065 40.0118 102.417 41.7042 101.015 42.8578C99.5416 44.0451 98.1061 44.0072 96.2749 44.0072C95.6645 44.0072 95.0162 44.0451 94.4058 43.9735L92.3599 43.7546V38.4624C93.0798 38.5003 93.7617 38.5719 94.4774 38.5719C95.5214 38.5719 96.0223 38.353 96.0223 37.6709C96.0223 37.3804 95.7361 36.5889 95.4498 35.7637L89.5563 18.6201H97.281L99.9373 30.7916C99.9373 30.7916 102.703 18.8348 102.741 18.6201H110.428ZM123.751 37.132C123.141 37.2036 121.095 37.5278 119.083 37.5278C115.168 37.5278 113.694 36.0121 113.156 34.1428C112.975 33.4566 112.941 32.7745 112.941 32.1262L113.046 23.087H110.499V19.0537H113.084L113.156 13.1806H120.59L120.556 19.0537H123.718V23.087H120.485L120.375 30.2527C120.375 31.0063 120.485 32.1978 122.421 32.1978C122.855 32.1978 123.031 32.1978 123.751 32.0504V37.132ZM145.086 29.2801H132.12C132.12 29.2801 132.12 30.1432 132.301 30.72C132.55 31.4399 133.269 32.8082 135.244 32.7745C136.393 32.7745 137.003 32.3746 137.365 32.0504C138.119 31.4399 138.477 30.6105 138.62 30.3579L144.69 32.9177C144.513 33.204 144.299 33.5997 143.793 34.1765C142.501 35.688 141.028 36.5174 140.379 36.8415C139.483 37.2752 137.542 38.0288 134.886 38.0288C133.341 38.0288 131.868 37.8141 130.47 37.2373C126.627 35.6543 124.576 31.9073 124.576 27.8403C124.576 23.9838 126.336 21.6093 127.414 20.5652C130.074 18.0054 133.775 17.8286 134.814 17.8286C136.073 17.8286 139.879 18.0054 142.573 20.923C143.469 21.8956 144.151 23.1207 144.547 24.3838C145.052 26.0005 145.086 27.5877 145.086 29.2801ZM137.58 25.3521C137.542 25.1374 137.542 24.7795 137.399 24.308C136.898 22.7629 135.534 22.5439 134.957 22.5439C134.385 22.5818 134.023 22.725 133.808 22.8344C132.444 23.4449 132.263 24.9563 132.192 25.3521H137.58ZM173.93 37.2752H165.309L164.193 33.7092H155.357L154.246 37.2752H145.625L155.324 11.8502H164.446L173.93 37.2752ZM162.543 28.055L159.849 19.0874L157.083 28.055H162.543ZM195.732 37.2752H188.689V34.5386C188.441 35.0396 188.26 35.5111 187.435 36.1932C186.572 36.9131 185.137 37.7425 182.548 37.7425C181.866 37.7425 179.462 37.7046 177.626 36.1595C177.126 35.7258 176.263 34.7912 175.833 33.1324C175.618 32.3746 175.509 31.5831 175.509 29.9622V18.6201H182.943V28.7749C182.943 29.638 182.872 31.802 185.637 31.802C186.357 31.802 187.073 31.621 187.54 31.1537C188.403 30.2527 188.294 28.6655 188.294 28.4886V18.6201H195.732V37.2752ZM212.074 24.489C211.712 24.4553 211.354 24.4174 210.996 24.4174C210.42 24.3838 207.258 24.2027 206.362 26.7246C206.147 27.3351 206.147 27.8403 206.147 28.4886V37.2752H198.784V18.6201H205.894V20.241C206.256 19.9168 206.505 19.7021 206.9 19.4495C208.555 18.2959 210.133 18.2244 212.074 18.2244V24.489ZM233.122 37.2752H225.831V35.8353C225.541 36.05 225.183 36.3363 224.463 36.6984C223.676 37.0941 221.988 37.7046 219.651 37.7046C219.184 37.7046 217.93 37.7046 216.671 37.2373C214.263 36.3026 212.971 34.2144 212.971 31.6925C212.971 30.6821 213.185 28.4507 215.522 26.8677C217.067 25.8236 219.041 25.571 220.839 25.3184C221.878 25.1753 222.994 25.0279 224.034 24.8132C224.501 24.7079 225.002 24.5985 225.469 24.4553C225.469 24.3838 225.469 23.8786 225.364 23.5881C225.145 22.8344 224.61 22.2913 222.956 22.2913C222.417 22.2913 222.059 22.3671 221.878 22.4008C220.729 22.6871 220.62 23.6596 220.514 24.0596L213.581 24.2364C213.653 23.8407 213.762 23.4828 213.834 23.1207C214.015 22.4008 214.406 21.1041 215.88 19.9505C217.353 18.8011 219.618 18.0054 223.638 18.0054C226.547 18.0054 230.5 18.477 231.935 21.4998C232.331 22.3292 232.474 23.087 232.474 24.8132V34.968C232.474 36.3363 232.655 36.6268 233.122 37.2752ZM225.436 28.5939C224.501 28.9181 223.566 29.2086 222.632 29.4612C221.845 29.638 220.729 29.8906 220.157 30.6105C220.081 30.72 219.832 31.0442 219.832 31.4778C219.832 32.0504 220.3 32.9177 221.664 32.9177C222.308 32.9177 222.884 32.6988 223.457 32.4125C225.541 31.2968 225.436 29.4612 225.436 28.5939Z" fill="white"/>
<defs>
<linearGradient id="paint0_linear_4001_1903" x1="7.60693" y1="32.1738" x2="51.7367" y2="32.1738" gradientUnits="userSpaceOnUse">
<stop stop-color="#00FF8F"/>
<stop offset="1" stop-color="#00A1FF"/>
</linearGradient>
<linearGradient id="paint1_linear_4001_1903" x1="0" y1="20.9243" x2="52.5533" y2="20.9243" gradientUnits="userSpaceOnUse">
<stop stop-color="#00FF8F"/>
<stop offset="1" stop-color="#00A1FF"/>
</linearGradient>
<linearGradient id="paint2_linear_4001_1903" x1="19.2676" y1="38.5353" x2="49.2151" y2="38.5353" gradientUnits="userSpaceOnUse">
<stop stop-color="#00FF8F"/>
<stop offset="1" stop-color="#00A1FF"/>
</linearGradient>
<linearGradient id="paint3_linear_4001_1903" x1="32.0439" y1="-7.91224e-07" x2="49.434" y2="-7.91224e-07" gradientUnits="userSpaceOnUse">
<stop stop-color="#00FF8F"/>
<stop offset="1" stop-color="#00A1FF"/>
</linearGradient>
<linearGradient id="paint4_linear_4001_1903" x1="11.1641" y1="0.17688" x2="51.6904" y2="0.17688" gradientUnits="userSpaceOnUse">
<stop stop-color="#00FF8F"/>
<stop offset="1" stop-color="#00A1FF"/>
</linearGradient>
<linearGradient id="paint5_linear_4001_1903" x1="1.81445" y1="9.50232" x2="52.3598" y2="9.50232" gradientUnits="userSpaceOnUse">
<stop stop-color="#00FF8F"/>
<stop offset="1" stop-color="#00A1FF"/>
</linearGradient>
<linearGradient id="paint6_linear_4001_1903" x1="1.2627" y1="28.3931" x2="52.4479" y2="28.3931" gradientUnits="userSpaceOnUse">
<stop stop-color="#00FF8F"/>
<stop offset="1" stop-color="#00A1FF"/>
</linearGradient>
</defs>
</svg>
