<svg width="57" height="57" viewBox="0 0 57 57" fill="none" xmlns="http://www.w3.org/2000/svg">
<g clip-path="url(#clip0_120_842)">
<g filter="url(#filter0_d_120_842)">
<path d="M14.2501 14.25C13.3053 14.25 12.3991 14.6253 11.731 15.2934C11.0629 15.9615 10.6876 16.8677 10.6876 17.8125L10.6876 26.5121C10.6876 27.457 11.0629 28.3631 11.731 29.0312C12.3991 29.6993 13.3053 30.0746 14.2501 30.0746L19.1949 30.0746C19.1949 31.3251 19.1201 32.5791 18.974 33.8295C18.7531 35.1548 18.3826 36.3339 17.8696 37.3635C17.3531 38.3966 16.6904 39.2053 15.8782 39.7967C15.0695 40.4593 14.0399 40.7906 12.7859 40.7906L12.7859 46.3125C14.8486 46.3125 16.6512 45.8708 18.2009 44.9873C19.7371 44.1127 21.0579 42.9051 22.0662 41.4533C23.0783 39.8526 23.8242 38.0985 24.275 36.2591C24.7293 34.2294 24.9516 32.1546 24.9376 30.0746L24.9376 17.8125C24.9376 16.8677 24.5623 15.9615 23.8942 15.2934C23.2261 14.6253 22.3199 14.25 21.3751 14.25L14.2501 14.25ZM35.6251 14.25C34.6803 14.25 33.7741 14.6253 33.106 15.2934C32.4379 15.9615 32.0626 16.8677 32.0626 17.8125L32.0626 26.5121C32.0626 27.457 32.4379 28.3631 33.106 29.0312C33.7741 29.6993 34.6803 30.0746 35.6251 30.0746L40.5699 30.0746C40.5699 31.3251 40.4951 32.5791 40.349 33.8295C40.1281 35.1547 39.7576 36.3339 39.2446 37.3635C38.7281 38.3966 38.0654 39.2053 37.2532 39.7967C36.4445 40.4593 35.4149 40.7906 34.1609 40.7906L34.1609 46.3125C36.2236 46.3125 38.0262 45.8708 39.5759 44.9873C41.1121 44.1127 42.4329 42.9051 43.4412 41.4533C44.4533 39.8526 45.1992 38.0985 45.65 36.2591C46.1043 34.2294 46.3266 32.1546 46.3126 30.0746L46.3126 17.8125C46.3126 16.8677 45.9373 15.9615 45.2692 15.2934C44.6011 14.6253 43.6949 14.25 42.7501 14.25L35.6251 14.25Z" fill="white" fill-opacity="0.15" shape-rendering="crispEdges"/>
</g>
</g>
<defs>
<filter id="filter0_d_120_842" x="-2.3125" y="9.25" width="61.6257" height="58.0625" filterUnits="userSpaceOnUse" color-interpolation-filters="sRGB">
<feFlood flood-opacity="0" result="BackgroundImageFix"/>
<feColorMatrix in="SourceAlpha" type="matrix" values="0 0 0 0 0 0 0 0 0 0 0 0 0 0 0 0 0 0 127 0" result="hardAlpha"/>
<feOffset dy="8"/>
<feGaussianBlur stdDeviation="6.5"/>
<feComposite in2="hardAlpha" operator="out"/>
<feColorMatrix type="matrix" values="0 0 0 0 0 0 0 0 0 0 0 0 0 0 0 0 0 0 0.25 0"/>
<feBlend mode="normal" in2="BackgroundImageFix" result="effect1_dropShadow_120_842"/>
<feBlend mode="normal" in="SourceGraphic" in2="effect1_dropShadow_120_842" result="shape"/>
</filter>
<clipPath id="clip0_120_842">
<rect width="57" height="57" fill="white" transform="translate(57 57) rotate(180)"/>
</clipPath>
</defs>
</svg>
