<svg width="40" height="40" viewBox="0 0 40 40" fill="none" xmlns="http://www.w3.org/2000/svg">
<g clip-path="url(#clip0_206_1995)">
<path d="M28.1284 23.0944C29.0139 22.9865 30.9668 22.7544 31.3145 23.2022C31.662 23.6418 30.9255 25.4913 30.5945 26.3123C30.4952 26.5612 30.7104 26.6607 30.9338 26.47C32.3902 25.2425 32.7709 22.6796 32.473 22.3064C32.175 21.9417 29.618 21.6264 28.0621 22.7212C27.8221 22.8953 27.8636 23.1276 28.1284 23.0944Z" fill="#FF9900"/>
<path d="M20.1013 27.5818C23.5026 27.5818 27.4581 26.5118 30.1808 24.4965C30.6276 24.1648 30.2387 23.6589 29.7835 23.8662C26.7299 25.16 23.4115 25.7904 20.3909 25.7904C15.914 25.7904 11.5859 24.5547 8.07732 22.5145C7.7709 22.332 7.53929 22.6471 7.79572 22.8794C11.0398 25.8153 15.3347 27.5818 20.1013 27.5818Z" fill="#FF9900"/>
<path d="M14.6976 18.0856C14.6976 18.3925 14.7306 18.6412 14.7885 18.8237C14.8621 19.029 14.9506 19.2285 15.0535 19.4208C15.0947 19.4872 15.1113 19.5536 15.1113 19.6116C15.1113 19.6947 15.0617 19.7777 14.954 19.8605L14.4328 20.2089C14.3583 20.2585 14.2837 20.2835 14.2176 20.2835C14.1347 20.2835 14.052 20.2419 13.9694 20.1673C13.8578 20.0472 13.758 19.9167 13.6713 19.7775C13.5788 19.6181 13.4932 19.4549 13.4147 19.2881C12.7694 20.0512 11.9583 20.4328 10.9819 20.4328C10.2867 20.4328 9.73238 20.2337 9.32685 19.8357C8.92132 19.4376 8.71436 18.9066 8.71436 18.2433C8.71436 17.5382 8.96257 16.9659 9.4674 16.5347C9.97222 16.1034 10.6426 15.8879 11.4951 15.8879C11.7763 15.8879 12.066 15.9127 12.3722 15.9541C12.6783 15.9957 12.9928 16.062 13.3238 16.1366V15.5311C13.3238 14.9009 13.1913 14.4613 12.9347 14.2042C12.6701 13.9471 12.2231 13.8228 11.586 13.8228C11.2963 13.8228 10.9985 13.8558 10.6922 13.9305C10.388 14.0031 10.0893 14.0974 9.79846 14.2126C9.70436 14.2548 9.60761 14.2908 9.50882 14.3204C9.45096 14.3368 9.40953 14.3452 9.37633 14.3452C9.2606 14.3452 9.20257 14.2624 9.20257 14.0881V13.6817C9.20257 13.5491 9.21934 13.4495 9.2606 13.3916C9.30186 13.3334 9.37633 13.2754 9.49222 13.2172C9.78186 13.0679 10.1295 12.9436 10.5349 12.844C10.9404 12.7363 11.371 12.6864 11.826 12.6864C12.8108 12.6864 13.5306 12.9104 13.994 13.3582C14.4492 13.806 14.681 14.4863 14.681 15.3985V18.0856H14.6976ZM11.3378 19.3463C11.6108 19.3463 11.8922 19.2965 12.1901 19.1971C12.4879 19.0974 12.7528 18.915 12.9762 18.6662C13.1087 18.5086 13.2079 18.3345 13.2576 18.1354C13.3072 17.9363 13.3403 17.6958 13.3403 17.4139V17.0656C13.0894 17.0044 12.8352 16.9574 12.579 16.9247C12.321 16.8918 12.0612 16.8751 11.8011 16.8747C11.2467 16.8747 10.8411 16.9825 10.5681 17.2064C10.2951 17.4305 10.1626 17.7456 10.1626 18.1602C10.1626 18.55 10.2619 18.8403 10.4688 19.0394C10.6674 19.2467 10.957 19.3463 11.3376 19.3463H11.3378ZM17.9828 20.2419C17.8339 20.2419 17.7346 20.2171 17.6683 20.1591C17.6022 20.1093 17.5442 19.993 17.4946 19.8355L15.5499 13.4246C15.5003 13.2586 15.4754 13.1509 15.4754 13.0929C15.4754 12.9602 15.5415 12.8856 15.674 12.8856H16.4849C16.6422 12.8856 16.7499 12.9104 16.8078 12.9685C16.874 13.0183 16.9235 13.1345 16.9733 13.292L18.3637 18.7823L19.6546 13.292C19.6958 13.1259 19.7455 13.0183 19.8117 12.9685C19.878 12.9186 19.9937 12.8856 20.1428 12.8856H20.8048C20.9621 12.8856 21.0696 12.9104 21.1358 12.9685C21.2021 13.0183 21.2599 13.1345 21.293 13.292L22.6005 18.8487L24.0323 13.292C24.0817 13.1259 24.1396 13.0183 24.1976 12.9685C24.2639 12.9186 24.3714 12.8856 24.5205 12.8856H25.29C25.4224 12.8856 25.4969 12.9519 25.4969 13.0929C25.4969 13.1343 25.4887 13.1757 25.4803 13.2256C25.4674 13.2963 25.448 13.3657 25.4224 13.4329L23.4281 19.8441C23.3783 20.01 23.3205 20.1176 23.2542 20.1674C23.1881 20.2173 23.0805 20.2505 22.9398 20.2505H22.2281C22.0708 20.2505 21.9632 20.2255 21.8971 20.1674C21.831 20.1094 21.773 20.0016 21.7399 19.8357L20.4572 14.4864L19.1828 19.8275C19.1414 19.9934 19.0917 20.1012 19.0255 20.1592C18.9594 20.2173 18.8435 20.2421 18.6946 20.2421L17.9828 20.2419ZM28.6167 20.466C28.1864 20.466 27.756 20.4162 27.3423 20.3167C26.9285 20.2171 26.6058 20.1093 26.3907 19.9848C26.2582 19.9102 26.1673 19.8272 26.1341 19.7527C26.1019 19.6794 26.085 19.6004 26.0844 19.5204V19.0974C26.0844 18.9233 26.1507 18.8403 26.2748 18.8403C26.3244 18.8403 26.3741 18.8487 26.4237 18.8651C26.4733 18.8819 26.5478 18.915 26.6307 18.9482C26.9229 19.077 27.2281 19.1742 27.541 19.2383C27.8719 19.3047 28.1948 19.3379 28.5257 19.3379C29.0471 19.3379 29.4526 19.2467 29.7339 19.0642C30.0153 18.8817 30.1642 18.6164 30.1642 18.2763C30.1642 18.0442 30.0898 17.8535 29.9409 17.6958C29.7919 17.5382 29.5105 17.3973 29.105 17.2646L27.9051 16.8913C27.301 16.7006 26.8541 16.4187 26.581 16.0454C26.308 15.6804 26.1673 15.274 26.1673 14.8428C26.1673 14.4945 26.2417 14.1876 26.3907 13.9222C26.5396 13.6569 26.7382 13.4246 26.9866 13.2422C27.2348 13.0515 27.516 12.9104 27.8471 12.811C28.1782 12.7113 28.5257 12.6699 28.8898 12.6699C29.0719 12.6699 29.2623 12.6783 29.4442 12.7031C29.6346 12.728 29.8084 12.7612 29.9821 12.7944C30.1476 12.8358 30.305 12.8772 30.4539 12.9269C30.6028 12.9768 30.7187 13.0265 30.8014 13.0763C30.9173 13.1427 31.0001 13.209 31.0498 13.2836C31.0994 13.35 31.1242 13.4412 31.1242 13.5573V13.9472C31.1242 14.1215 31.058 14.2127 30.9339 14.2127C30.8676 14.2127 30.7601 14.1795 30.6194 14.1131C30.1476 13.8976 29.618 13.7898 29.0305 13.7898C28.5589 13.7898 28.1864 13.8644 27.93 14.0219C27.6733 14.1795 27.541 14.42 27.541 14.7602C27.541 14.9923 27.6237 15.1912 27.7892 15.3488C27.9548 15.5065 28.2609 15.6641 28.6994 15.805L29.8746 16.1783C30.4705 16.369 30.9007 16.6345 31.1573 16.9745C31.4139 17.3144 31.538 17.7042 31.538 18.1356C31.538 18.4921 31.4635 18.8157 31.3228 19.0976C31.1739 19.3795 30.9753 19.6284 30.7187 19.8275C30.4621 20.0348 30.156 20.1841 29.8001 20.2919C29.4278 20.408 29.0387 20.466 28.6167 20.466Z" fill="white"/>
</g>
<defs>
<clipPath id="clip0_206_1995">
<rect width="25.1572" height="25.1572" fill="white" transform="translate(7.54736 7.54688)"/>
</clipPath>
</defs>
</svg>
