<svg width="40" height="40" viewBox="0 0 40 40" fill="none" xmlns="http://www.w3.org/2000/svg">
<g clip-path="url(#clip0_253_8521)">
<path d="M30.2771 26.0906C30.4426 25.8051 30.5455 25.4834 30.5455 25.1946V15.1684C30.5455 14.8795 30.4428 14.5579 30.2772 14.2725L20 20.1815L30.2771 26.0906Z" fill="#00599C"/>
<path d="M20.9135 31.7831L29.6325 26.77C29.8836 26.6256 30.1119 26.3762 30.2774 26.0907L20.0003 20.1816L9.72314 26.0908C9.88863 26.3762 10.117 26.6257 10.3681 26.77L19.087 31.7831C19.5893 32.072 20.4113 32.072 20.9135 31.7831Z" fill="#004482"/>
<path d="M30.2772 14.2723C30.1117 13.9868 29.8833 13.7374 29.6322 13.593L20.9133 8.57991C20.411 8.29107 19.589 8.29107 19.0868 8.57991L10.3678 13.593C9.86552 13.8818 9.45459 14.5907 9.45459 15.1683V25.1946C9.45459 25.4834 9.55736 25.805 9.72291 26.0905L20 20.1815L30.2772 14.2723Z" fill="#659AD2"/>
<path d="M20 27.1824C16.1235 27.1824 12.9697 24.0416 12.9697 20.181C12.9697 16.3205 16.1235 13.1797 20 13.1797C22.5014 13.1797 24.8343 14.5202 26.0882 16.6782L23.0457 18.4315C22.4181 17.3514 21.251 16.6804 20 16.6804C18.0617 16.6804 16.4849 18.2507 16.4849 20.181C16.4849 22.1113 18.0617 23.6817 20 23.6817C21.2511 23.6817 22.4182 23.0107 23.0459 21.9303L26.0884 23.6836C24.8345 25.8417 22.5016 27.1824 20 27.1824Z" fill="white"/>
<path d="M27.0304 19.7926H26.2493V19.0146H25.4682V19.7926H24.687V20.5705H25.4682V21.3484H26.2493V20.5705H27.0304V19.7926Z" fill="white"/>
<path d="M29.9596 19.7926H29.1785V19.0146H28.3974V19.7926H27.6162V20.5705H28.3974V21.3484H29.1785V20.5705H29.9596V19.7926Z" fill="white"/>
</g>
<defs>
<clipPath id="clip0_253_8521">
<rect width="21.0909" height="23.6364" fill="white" transform="translate(9.45459 8.36328)"/>
</clipPath>
</defs>
</svg>
