<svg width="40" height="40" viewBox="0 0 40 40" fill="none" xmlns="http://www.w3.org/2000/svg">
<g clip-path="url(#clip0_206_1972)">
<path d="M20.0001 32.3078C26.7974 32.3078 32.3078 26.7974 32.3078 20.0001C32.3078 13.2027 26.7974 7.69238 20.0001 7.69238C13.2027 7.69238 7.69238 13.2027 7.69238 20.0001C7.69238 26.7974 13.2027 32.3078 20.0001 32.3078Z" fill="#5C2D91"/>
<path opacity="0.1" d="M11.4691 11.1543C10.218 12.2692 9.20766 13.6279 8.50017 15.1471C7.79267 16.6663 7.40289 18.314 7.3547 19.9891C7.30651 21.6643 7.60094 23.3317 8.21993 24.889C8.83892 26.4464 9.76944 27.8609 10.9544 29.0459C12.1395 30.2309 13.554 31.1614 15.1113 31.7804C16.6687 32.3994 18.336 32.6938 20.0112 32.6456C21.6864 32.5975 23.334 32.2077 24.8532 31.5002C26.3724 30.7927 27.7311 29.7824 28.846 28.5312L11.4691 11.1543Z" fill="white"/>
<path d="M10.5384 23.5581C10.4667 23.5592 10.3954 23.5455 10.3292 23.5177C10.263 23.4899 10.2033 23.4486 10.1538 23.3966C10.103 23.3464 10.0629 23.2864 10.0358 23.2203C10.0087 23.1543 9.99519 23.0834 9.99614 23.012C9.99563 22.9406 10.0093 22.8698 10.0364 22.8038C10.0634 22.7378 10.1034 22.6778 10.1538 22.6273C10.2028 22.5744 10.2623 22.5323 10.3286 22.5038C10.3948 22.4753 10.4663 22.4611 10.5384 22.462C10.6105 22.4618 10.6817 22.4764 10.7479 22.5048C10.814 22.5332 10.8737 22.575 10.9231 22.6273C10.9744 22.6773 11.0151 22.7372 11.0429 22.8032C11.0706 22.8693 11.0848 22.9403 11.0846 23.012C11.0853 23.0837 11.0713 23.1548 11.0435 23.2209C11.0157 23.2871 10.9748 23.3468 10.9231 23.3966C10.8732 23.4481 10.8134 23.4889 10.7473 23.5167C10.6812 23.5445 10.6101 23.5586 10.5384 23.5581Z" fill="white"/>
<path d="M18.1808 23.4617H17.1731L13.5693 17.8694C13.4797 17.7316 13.4049 17.5846 13.3462 17.431H13.3154C13.3497 17.7503 13.3625 18.0715 13.3539 18.3925V23.4617H12.5347V16.4502H13.6001L17.1077 21.9425C17.2539 22.1707 17.3488 22.3271 17.3924 22.4117H17.4116C17.371 22.0697 17.3543 21.7253 17.3616 21.381V16.4502H18.1808V23.4617Z" fill="white"/>
<path d="M23.7269 23.4617H20V16.4502H23.5538V17.1925H20.8385V19.5233H23.3692V20.2617H20.8385V22.6925H23.7308L23.7269 23.4617Z" fill="white"/>
<path d="M29.231 17.1925H27.1925V23.4617H26.3733V17.1925H24.3579V16.4502H29.231V17.1925Z" fill="white"/>
</g>
<defs>
<clipPath id="clip0_206_1972">
<rect width="24.6154" height="24.6154" fill="white" transform="translate(7.69238 7.69238)"/>
</clipPath>
</defs>
</svg>
