<svg width="40" height="40" viewBox="0 0 40 40" fill="none" xmlns="http://www.w3.org/2000/svg">
<g clip-path="url(#clip0_253_8533)">
<path d="M7.79404 18.5985C7.74276 18.5985 7.73076 18.5734 7.75585 18.5341L8.02422 18.1905C8.04931 18.1523 8.11258 18.1272 8.16385 18.1272H12.7151C12.7653 18.1272 12.7784 18.1654 12.7533 18.2036L12.5362 18.5341C12.5111 18.5734 12.4468 18.6105 12.4086 18.6105L7.79404 18.5985ZM5.86967 19.7712C5.8184 19.7712 5.80531 19.7461 5.83149 19.7079L6.09876 19.3632C6.12385 19.325 6.18822 19.2999 6.23949 19.2999H12.0519C12.1031 19.2999 12.1282 19.3381 12.1151 19.3763L12.0137 19.6818C12.0006 19.733 11.9504 19.7581 11.8991 19.7581L5.86967 19.7712ZM8.95476 20.9439C8.90349 20.9439 8.8904 20.9058 8.91658 20.8676L9.0944 20.549C9.11949 20.5109 9.17076 20.4727 9.22204 20.4727H11.7715C11.8228 20.4727 11.8479 20.5109 11.8479 20.5621L11.8228 20.8676C11.8228 20.9189 11.7715 20.957 11.7333 20.957L8.95476 20.9439ZM22.1864 18.3694C21.3835 18.5734 20.8348 18.7261 20.0449 18.9301C19.8529 18.9803 19.8409 18.9934 19.674 18.8025C19.4842 18.5854 19.3435 18.4458 19.0762 18.3181C18.2722 17.9232 17.4944 18.0378 16.7689 18.509C15.9017 19.0698 15.4555 19.8988 15.4686 20.9309C15.4806 21.9509 16.182 22.7919 17.1889 22.9327C18.0562 23.0472 18.7817 22.7418 19.3566 22.0916C19.4711 21.9509 19.5726 21.7981 19.7002 21.6192H17.2402C16.9729 21.6192 16.9086 21.4534 16.998 21.2374C17.1639 20.8425 17.4693 20.1792 17.6482 19.8476C17.6755 19.7861 17.7203 19.7341 17.7769 19.6978C17.8335 19.6615 17.8995 19.6427 17.9668 19.6436H22.6064C22.5813 19.9883 22.5813 20.3319 22.53 20.6767C22.398 21.5842 22.0385 22.4436 21.4849 23.1748C20.5675 24.3858 19.3686 25.1385 17.8522 25.3414C16.6031 25.5072 15.4424 25.265 14.4235 24.5014C13.4799 23.7868 12.9442 22.8432 12.8046 21.6705C12.6388 20.2807 13.0468 19.0316 13.8879 17.9352C14.7933 16.7505 15.9911 15.9978 17.4573 15.7305C18.6551 15.5134 19.8028 15.6541 20.8348 16.3545C21.5111 16.8018 21.9944 17.4127 22.314 18.1523C22.3904 18.2669 22.3391 18.3312 22.1864 18.3694ZM26.406 25.4188C25.2453 25.3927 24.1871 25.061 23.2948 24.2963C22.5524 23.6707 22.0631 22.7963 21.918 21.8363C21.6889 20.3963 22.0839 19.121 22.9511 17.9865C23.8817 16.7625 25.0031 16.1254 26.5206 15.8581C27.8209 15.629 29.0449 15.7556 30.1533 16.5083C31.1602 17.1956 31.7853 18.1272 31.9511 19.3501C32.1671 21.0716 31.6708 22.4734 30.4849 23.6723C29.6439 24.5265 28.6108 25.061 27.4249 25.3032C27.0813 25.3676 26.7377 25.3796 26.406 25.4188ZM29.4388 20.2687C29.4268 20.1029 29.4268 19.9752 29.4017 19.8476C29.1726 18.5854 28.0119 17.8719 26.8009 18.1523C25.6151 18.4196 24.8504 19.1723 24.57 20.3701C24.3409 21.365 24.8253 22.3719 25.7428 22.7799C26.4442 23.0854 27.1446 23.0472 27.8209 22.7036C28.8279 22.1799 29.3744 21.365 29.4388 20.2687Z" fill="#00FF8F"/>
</g>
<defs>
<clipPath id="clip0_253_8533">
<rect width="26.1818" height="26.1818" fill="white" transform="translate(5.81836 6.90918)"/>
</clipPath>
</defs>
</svg>
