<svg width="41" height="41" viewBox="0 0 41 41" fill="none" xmlns="http://www.w3.org/2000/svg">
<g clip-path="url(#clip0_253_11498)">
<rect x="11.1667" y="11.167" width="18.6667" height="18.6667" rx="9" fill="url(#paint0_linear_253_11498)" fill-opacity="0.2"/>
<path d="M29.8334 11.167H11.1667V29.8337H29.8334V11.167Z" fill="#F7DF1E"/>
<path d="M23.7061 25.7503C24.0821 26.3642 24.5713 26.8155 25.4365 26.8155C26.1633 26.8155 26.6276 26.4522 26.6276 25.9503C26.6276 25.3488 26.1505 25.1358 25.3505 24.7858L24.912 24.5977C23.6462 24.0584 22.8053 23.3829 22.8053 21.9547C22.8053 20.6392 23.8077 19.6377 25.3742 19.6377C26.4895 19.6377 27.2913 20.0258 27.869 21.0421L26.5031 21.9192C26.2024 21.3799 25.8779 21.1675 25.3742 21.1675C24.8605 21.1675 24.5348 21.4934 24.5348 21.9192C24.5348 22.4454 24.8608 22.6584 25.6133 22.9844L26.0519 23.1722C27.5422 23.8113 28.3837 24.4629 28.3837 25.9278C28.3837 27.507 27.1431 28.3722 25.477 28.3722C23.848 28.3722 22.7956 27.5959 22.2806 26.5784L23.7061 25.7503ZM17.5096 25.9023C17.7852 26.3912 18.0359 26.8045 18.6385 26.8045C19.2148 26.8045 19.5784 26.579 19.5784 25.7023V19.7378H21.3325V25.726C21.3325 27.5423 20.2676 28.369 18.7132 28.369C17.3087 28.369 16.4954 27.6421 16.0818 26.7667L17.5096 25.9023Z" fill="black"/>
</g>
<rect x="12.6667" y="12.667" width="15.6667" height="15.6667" rx="7.5" stroke="white" stroke-opacity="0.04" stroke-width="3"/>
<defs>
<linearGradient id="paint0_linear_253_11498" x1="20.5001" y1="11.167" x2="20.5001" y2="29.8337" gradientUnits="userSpaceOnUse">
<stop stop-color="#00FF8F"/>
<stop offset="1" stop-color="#00FF8F" stop-opacity="0"/>
</linearGradient>
<clipPath id="clip0_253_11498">
<rect x="11.1667" y="11.167" width="18.6667" height="18.6667" rx="9" fill="white"/>
</clipPath>
</defs>
</svg>
