<svg width="40" height="40" viewBox="0 0 40 40" fill="none" xmlns="http://www.w3.org/2000/svg">
<path d="M29.9214 12.9395C29.7818 12.4929 29.4469 12.1301 29.0282 11.9068L20.5157 7.83193C20.2924 7.72029 20.0412 7.69238 19.8179 7.69238C19.5947 7.69238 19.3435 7.69238 19.1202 7.7482L10.6076 11.851C10.189 12.0463 9.88198 12.4092 9.77035 12.8836L7.6771 22.066C7.59337 22.5405 7.70501 23.015 7.98411 23.4057L13.8731 30.6902C14.208 31.0251 14.6825 31.2484 15.157 31.2763H24.5347C25.0371 31.3321 25.5116 31.1089 25.8186 30.6902L31.7076 23.4057C31.9867 23.015 32.0983 22.5405 32.0425 22.066L29.9214 12.9395Z" fill="#326DE6"/>
<path d="M28.6102 21.7026C28.5822 21.7026 28.5543 21.7026 28.5543 21.6747C28.5543 21.6468 28.4985 21.6468 28.4427 21.6468C28.3311 21.6189 28.2194 21.6189 28.1078 21.6189C28.052 21.6189 27.9961 21.6189 27.9403 21.591H27.9124C27.6054 21.5631 27.2705 21.5073 26.9635 21.4235C26.8797 21.3956 26.796 21.3119 26.7681 21.2282L26.5448 21.1724C26.6565 20.363 26.6006 19.5257 26.4332 18.7163C26.2378 17.9069 25.9029 17.1254 25.4563 16.4277L25.6238 16.2602V16.2323C25.6238 16.1486 25.6517 16.0369 25.7075 15.9811C25.9587 15.7578 26.2099 15.5904 26.489 15.4229C26.5448 15.395 26.6006 15.3671 26.6565 15.3392C26.7681 15.2833 26.8518 15.2275 26.9635 15.1717C26.9914 15.1438 27.0193 15.1438 27.0472 15.1159C27.0751 15.088 27.0472 15.088 27.0472 15.0601C27.2984 14.8647 27.3542 14.5298 27.1588 14.2786C27.0751 14.1669 26.9076 14.0832 26.7681 14.0832C26.6285 14.0832 26.489 14.139 26.3774 14.2228L26.3494 14.2507C26.3215 14.2786 26.2936 14.3065 26.2657 14.3065C26.182 14.3902 26.0983 14.474 26.0424 14.5577C26.0145 14.6135 25.9587 14.6414 25.9308 14.6693C25.7354 14.8926 25.4842 15.1159 25.233 15.2833C25.1772 15.3113 25.1214 15.3392 25.0656 15.3392C25.0377 15.3392 24.9819 15.3392 24.9539 15.3113H24.926L24.7028 15.4508C24.4795 15.2275 24.2283 15.0042 24.005 14.781C22.9723 13.9716 21.6885 13.4692 20.3767 13.3296L20.3488 13.1064V13.1343C20.2651 13.0785 20.2372 12.9947 20.2092 12.911C20.2092 12.604 20.2092 12.297 20.2651 11.9621V11.9341C20.2651 11.8783 20.293 11.8225 20.293 11.7667C20.3209 11.655 20.3209 11.5434 20.3488 11.4318V11.2643C20.3767 10.9852 20.1534 10.7061 19.8743 10.6782C19.7069 10.6503 19.5394 10.734 19.3999 10.8736C19.2882 10.9852 19.2324 11.1248 19.2324 11.2643V11.4039C19.2324 11.5155 19.2603 11.6271 19.2882 11.7388C19.3161 11.7946 19.3161 11.8504 19.3161 11.9062V11.9341C19.3719 12.2412 19.3719 12.5482 19.3719 12.8831C19.344 12.9668 19.3161 13.0505 19.2324 13.1064V13.1622L19.2045 13.3855C18.8975 13.4134 18.5905 13.4692 18.2555 13.525C16.9438 13.8041 15.7437 14.5019 14.8226 15.4787L14.6552 15.3671H14.6273C14.5993 15.3671 14.5714 15.395 14.5156 15.395C14.4598 15.395 14.404 15.3671 14.3482 15.3392C14.097 15.1438 13.8458 14.9205 13.6504 14.6972C13.6225 14.6414 13.5667 14.6135 13.5388 14.5856C13.455 14.5019 13.3992 14.4181 13.3155 14.3344C13.2876 14.3065 13.2597 14.3065 13.2318 14.2786C13.2038 14.2507 13.2038 14.2507 13.2038 14.2507C13.0922 14.1669 12.9527 14.1111 12.8131 14.1111C12.6456 14.1111 12.5061 14.1669 12.4224 14.3065C12.2549 14.5577 12.3107 14.8926 12.534 15.088C12.5619 15.088 12.5619 15.1159 12.5619 15.1159C12.5619 15.1159 12.6177 15.1717 12.6456 15.1717C12.7294 15.2275 12.841 15.2833 12.9527 15.3392C13.0085 15.3671 13.0643 15.395 13.1201 15.4229C13.3992 15.5904 13.6783 15.7578 13.9016 15.9811C13.9574 16.0369 14.0132 16.1486 13.9853 16.2323V16.2044L14.1528 16.3718C14.1249 16.4277 14.097 16.4556 14.0691 16.5114C13.2038 17.879 12.841 19.4978 13.0922 21.0886L12.8689 21.1444C12.8689 21.1724 12.841 21.1724 12.841 21.1724C12.8131 21.2561 12.7294 21.3119 12.6456 21.3677C12.3386 21.4515 12.0316 21.5073 11.6967 21.5352C11.6409 21.5352 11.5851 21.5352 11.5292 21.5631C11.4176 21.5631 11.306 21.591 11.1943 21.591C11.1664 21.591 11.1385 21.6189 11.0827 21.6189C11.0548 21.6189 11.0548 21.6189 11.0269 21.6468C10.7199 21.7026 10.5245 21.9817 10.5803 22.2888C10.6361 22.5399 10.8873 22.7074 11.1385 22.6795C11.1943 22.6795 11.2222 22.6795 11.2781 22.6516C11.306 22.6516 11.306 22.6516 11.306 22.6237C11.306 22.5958 11.3897 22.6237 11.4176 22.6237C11.5292 22.5958 11.6409 22.5399 11.7246 22.512C11.7804 22.4841 11.8363 22.4562 11.8921 22.4562H11.92C12.227 22.3446 12.5061 22.2608 12.841 22.205H12.8689C12.9527 22.205 13.0364 22.2329 13.0922 22.2888C13.1201 22.2888 13.1201 22.3167 13.1201 22.3167L13.3713 22.2888C13.79 23.5726 14.5714 24.7169 15.6599 25.5542C15.9111 25.7496 16.1344 25.9171 16.4135 26.0566L16.2739 26.252C16.2739 26.2799 16.3019 26.2799 16.3019 26.2799C16.3577 26.3636 16.3577 26.4752 16.3298 26.559C16.2181 26.8381 16.0507 27.1172 15.8832 27.3684V27.3963C15.8553 27.4521 15.8274 27.48 15.7716 27.5358C15.7157 27.5916 15.6599 27.7033 15.5762 27.8149C15.5483 27.8428 15.5483 27.8707 15.5204 27.8987C15.5204 27.8987 15.5204 27.9266 15.4925 27.9266C15.3529 28.2057 15.4646 28.5406 15.7157 28.6801C15.7716 28.708 15.8553 28.736 15.9111 28.736C16.1344 28.736 16.3298 28.5964 16.4414 28.401C16.4414 28.401 16.4414 28.3731 16.4693 28.3731C16.4693 28.3452 16.4972 28.3173 16.5251 28.2894C16.553 28.1778 16.6089 28.094 16.6368 27.9824L16.6926 27.8149C16.7763 27.5079 16.9159 27.2288 17.0554 26.9497C17.1112 26.866 17.195 26.8102 17.2787 26.7823C17.3066 26.7823 17.3066 26.7823 17.3066 26.7544L17.4182 26.5311C18.1997 26.8381 19.0091 26.9776 19.8464 26.9776C20.3488 26.9776 20.8512 26.9218 21.3536 26.7823C21.6606 26.7264 21.9676 26.6148 22.2467 26.5311L22.3583 26.7264C22.3862 26.7264 22.3862 26.7264 22.3862 26.7544C22.47 26.7823 22.5537 26.8381 22.6095 26.9218C22.7491 27.2009 22.8886 27.48 22.9723 27.787V27.8149L23.0282 27.9824C23.0561 28.094 23.084 28.2057 23.1398 28.2894C23.1677 28.3173 23.1677 28.3452 23.1956 28.3731C23.1956 28.3731 23.1956 28.401 23.2235 28.401C23.3352 28.5964 23.5305 28.736 23.7538 28.736C23.8375 28.736 23.8934 28.708 23.9771 28.6801C24.0887 28.6243 24.2004 28.5127 24.2283 28.3731C24.2562 28.2336 24.2562 28.094 24.2004 27.9545C24.2004 27.9266 24.1725 27.9266 24.1725 27.9266C24.1725 27.8987 24.1446 27.8707 24.1166 27.8428C24.0608 27.7312 24.005 27.6475 23.9213 27.5637C23.8934 27.5079 23.8655 27.48 23.8096 27.4242V27.3684C23.6143 27.1172 23.4747 26.8381 23.3631 26.559C23.3352 26.4752 23.3352 26.3636 23.391 26.2799C23.391 26.252 23.4189 26.252 23.4189 26.252L23.3352 26.0287C24.7586 25.1635 25.8471 23.8238 26.3494 22.2329L26.5727 22.2608C26.6006 22.2608 26.6006 22.2329 26.6006 22.2329C26.6565 22.1771 26.7402 22.1492 26.8239 22.1492H26.8518C27.1588 22.205 27.4658 22.2888 27.7449 22.4004H27.7729C27.8287 22.4283 27.8845 22.4562 27.9403 22.4562C28.0519 22.512 28.1357 22.5679 28.2473 22.5958C28.2752 22.5958 28.3031 22.6237 28.359 22.6237C28.3869 22.6237 28.3869 22.6237 28.4148 22.6516C28.4706 22.6795 28.4985 22.6795 28.5543 22.6795C28.8055 22.6795 29.0288 22.512 29.1125 22.2888C29.0846 21.9817 28.8613 21.7585 28.6102 21.7026ZM20.5442 20.8374L19.7906 21.2003L19.037 20.8374L18.8417 20.028L19.3719 19.3582H20.2092L20.7395 20.028L20.5442 20.8374ZM25.0935 19.0233C25.233 19.6094 25.261 20.1955 25.2051 20.7816L22.5537 20.028C22.3025 19.9722 22.1629 19.721 22.2188 19.4698C22.2467 19.3861 22.2746 19.3303 22.3304 19.2745L24.4237 17.3766C24.7307 17.879 24.9539 18.4372 25.0935 19.0233ZM23.5864 16.3439L21.2977 17.9627C21.1024 18.0743 20.8233 18.0464 20.6837 17.8511C20.6279 17.7952 20.6 17.7394 20.6 17.6557L20.4325 14.8368C21.6606 14.9763 22.7491 15.5066 23.5864 16.3439ZM18.5346 14.9205L19.0928 14.8089L18.9533 17.5999C18.9533 17.8511 18.73 18.0464 18.4788 18.0464C18.3951 18.0464 18.3393 18.0185 18.2555 17.9906L15.939 16.3439C16.6647 15.6462 17.5578 15.1438 18.5346 14.9205ZM15.1296 17.3766L17.195 19.2187C17.3903 19.3861 17.4182 19.6652 17.2508 19.8606C17.195 19.9443 17.1391 19.9722 17.0275 20.0001L14.3202 20.7816C14.2365 19.6094 14.5156 18.4093 15.1296 17.3766ZM14.6552 22.0934L17.4182 21.6189C17.6415 21.6189 17.8648 21.7585 17.8927 21.9817C17.9206 22.0655 17.9206 22.1771 17.8648 22.2608L16.8042 24.8286C15.8274 24.1866 15.0459 23.2098 14.6552 22.0934ZM20.9907 25.5542C20.6 25.6379 20.2092 25.6938 19.7906 25.6938C19.2045 25.6938 18.5905 25.5821 18.0323 25.4147L19.3999 22.9307C19.5394 22.7632 19.7627 22.7074 19.9581 22.819C20.0418 22.8749 20.0976 22.9307 20.1813 23.0144L21.521 25.4426C21.3536 25.4705 21.1861 25.4984 20.9907 25.5542ZM24.3957 23.1261C23.9771 23.7959 23.391 24.382 22.7211 24.8006L21.6327 22.1771C21.5768 21.9538 21.6885 21.7306 21.8838 21.6468C21.9676 21.6189 22.0513 21.591 22.135 21.591L24.926 22.0655C24.7865 22.4562 24.619 22.819 24.3957 23.1261Z" fill="white"/>
</svg>
