<svg width="40" height="40" viewBox="0 0 40 40" fill="none" xmlns="http://www.w3.org/2000/svg">
<g clip-path="url(#clip0_206_1006)">
<path d="M31.4611 19.5972C31.298 19.4342 29.2053 16.7979 28.852 16.363C28.4715 15.9281 28.3084 16.0097 28.0638 16.0369C27.8192 16.064 25.1829 16.5261 24.8839 16.5533C24.5849 16.6076 24.3947 16.7163 24.5849 16.9881C24.748 17.2327 26.4874 19.6788 26.8679 20.2495L19.9374 21.9074L14.4473 12.6939C14.2299 12.3678 14.1755 12.259 13.6863 12.2862C13.1971 12.3134 9.36495 12.6395 9.09316 12.6395C8.82138 12.6667 8.52241 12.7754 8.7942 13.4277C9.06598 14.08 13.4145 23.4294 13.5233 23.7012C13.632 23.973 13.9581 24.4078 14.6919 24.2448C15.4529 24.0545 18.0621 23.3751 19.5025 22.9946C20.2635 24.3535 21.7855 27.1257 22.0845 27.5334C22.465 28.0769 22.7368 27.9682 23.3075 27.8052C23.7696 27.6693 30.4283 25.2776 30.7273 25.1417C31.0262 25.0058 31.2165 24.9242 30.9991 24.6253C30.836 24.4078 29.0966 22.0433 28.1725 20.8203C28.7976 20.6572 31.0534 20.0593 31.298 19.9777C31.5698 19.8962 31.6242 19.7603 31.4611 19.5972ZM18.8774 22.1792C18.7959 22.2064 14.9094 23.1305 14.7191 23.1848C14.5017 23.2392 14.5017 23.212 14.5017 23.1305C14.4473 23.0489 9.88134 13.5908 9.7998 13.4821C9.74545 13.3734 9.74545 13.2647 9.7998 13.2647C9.85416 13.2647 13.4689 12.9385 13.5776 12.9385C13.7135 12.9385 13.6863 12.9657 13.7407 13.0472C13.7407 13.0472 18.8231 21.8259 18.9046 21.9618C19.0133 22.0977 18.959 22.152 18.8774 22.1792ZM29.8032 24.2176C29.8576 24.3263 29.9391 24.3807 29.7217 24.435C29.5314 24.5166 23.1716 26.6637 23.0357 26.718C22.8999 26.7724 22.8183 26.7996 22.6552 26.555C22.4922 26.3103 20.4266 22.75 20.4266 22.75L27.1941 20.9834C27.3571 20.929 27.4115 20.9018 27.5202 21.0649C27.6289 21.2551 29.7488 24.1361 29.8032 24.2176ZM30.2381 19.4342C30.075 19.4614 27.6017 20.0865 27.6017 20.0865L25.5634 17.3143C25.509 17.2327 25.4546 17.1512 25.5905 17.124C25.7264 17.0968 28.0366 16.6891 28.1453 16.662C28.254 16.6348 28.3356 16.6076 28.4715 16.7979C28.6073 16.9609 30.3468 19.1896 30.4283 19.2711C30.5098 19.3526 30.4011 19.407 30.2381 19.4342Z" fill="#FB503B"/>
</g>
<defs>
<clipPath id="clip0_206_1006">
<rect width="22.8571" height="22.8571" fill="white" transform="translate(8.68555 8.68555)"/>
</clipPath>
</defs>
</svg>
