<svg width="41" height="41" viewBox="0 0 41 41" fill="none" xmlns="http://www.w3.org/2000/svg">
<path d="M20.4999 32.5564C27.158 32.5564 32.5554 27.159 32.5554 20.5009C32.5554 13.8428 27.158 8.44531 20.4999 8.44531C13.8418 8.44531 8.44434 13.8428 8.44434 20.5009C8.44434 27.159 13.8418 32.5564 20.4999 32.5564Z" fill="#8892BF"/>
<path d="M19.1559 15.334H20.6025L20.1937 17.5076H21.4936C22.2065 17.5228 22.7376 17.6821 23.0871 17.9856C23.4435 18.289 23.5484 18.8657 23.4016 19.7154L22.6992 23.505H21.2316L21.9025 19.8861C21.9723 19.5067 21.9514 19.2374 21.8396 19.0781C21.7278 18.9188 21.4867 18.8391 21.1163 18.8391L19.9526 18.8278L19.0929 23.505H17.6462L19.1559 15.334Z" fill="white"/>
<path fill-rule="evenodd" clip-rule="evenodd" d="M12.527 17.5078H15.3365C16.1611 17.5153 16.7587 17.7734 17.1291 18.2816C17.4996 18.7899 17.6219 19.4841 17.4961 20.3642C17.4472 20.7664 17.3388 21.1608 17.1711 21.5478C17.0103 21.9347 16.7868 22.2836 16.5002 22.5947C16.1507 22.9892 15.7768 23.2395 15.3784 23.3459C14.9801 23.4521 14.5677 23.5052 14.1414 23.5052H12.8834L12.485 25.6674H11.0278L12.527 17.5078ZM13.1245 22.2192L13.7514 18.8165H13.9632C14.0401 18.8165 14.1204 18.8127 14.2043 18.8052C14.7635 18.7976 15.2281 18.8545 15.5986 18.9758C15.9759 19.0972 16.1018 19.5562 15.9759 20.3528C15.8223 21.3013 15.5216 21.855 15.0744 22.0144C14.6272 22.1662 14.068 22.2382 13.3971 22.2306H13.2503C13.2084 22.2306 13.1664 22.2267 13.1245 22.2192Z" fill="white"/>
<path fill-rule="evenodd" clip-rule="evenodd" d="M27.7647 17.5078H24.9552L23.4561 25.6674H24.9132L25.3117 23.5052H26.5697C26.9959 23.5052 27.4083 23.4521 27.8066 23.3459C28.2051 23.2395 28.5789 22.9892 28.9284 22.5947C29.215 22.2836 29.4385 21.9347 29.5993 21.5478C29.7671 21.1608 29.8755 20.7664 29.9243 20.3642C30.0501 19.4841 29.9279 18.7899 29.5574 18.2816C29.1869 17.7734 28.5894 17.5153 27.7647 17.5078ZM26.1797 18.8165L25.5528 22.2192C25.5947 22.2267 25.6366 22.2306 25.6786 22.2306H25.8253C26.4963 22.2382 27.0554 22.1662 27.5027 22.0144C27.9498 21.855 28.2505 21.3013 28.4043 20.3528C28.5301 19.5562 28.4043 19.0972 28.0268 18.9758C27.6564 18.8545 27.1917 18.7976 26.6325 18.8052C26.5486 18.8127 26.4684 18.8165 26.3914 18.8165H26.1797Z" fill="white"/>
</svg>
