<svg width="41" height="41" viewBox="0 0 41 41" fill="none" xmlns="http://www.w3.org/2000/svg">
<path d="M22.6747 20.4808C22.6747 19.3163 21.7011 18.3721 20.4998 18.3721C19.2988 18.3721 18.325 19.3163 18.325 20.4808C18.325 21.6455 19.2988 22.5896 20.4998 22.5896C21.7011 22.5896 22.6747 21.6455 22.6747 20.4808Z" fill="#53C1DE"/>
<path fill-rule="evenodd" clip-rule="evenodd" d="M27.5633 16.5659C28.0226 14.7564 28.5999 11.4007 26.5647 10.263C24.5391 9.13033 21.9031 11.3008 20.5111 12.6036C19.1233 11.3138 16.4132 9.15259 14.3798 10.2939C12.3549 11.4304 12.9793 14.7304 13.4488 16.5513C11.56 17.0715 8.32202 18.1918 8.32202 20.4808C8.32202 22.7634 11.5566 23.9823 13.4343 24.502C12.9631 26.3329 12.3699 29.5858 14.3974 30.7198C16.4384 31.8609 19.14 29.7511 20.5448 28.434C21.9457 29.7445 24.5564 31.8681 26.5824 30.7309C28.6148 29.5902 28.0855 26.2795 27.616 24.4481C29.4362 23.9273 32.6777 22.7349 32.6777 20.4808C32.6777 18.2138 29.4224 17.0844 27.5633 16.5659ZM27.3326 23.4775C27.0243 22.5313 26.6083 21.5252 26.0993 20.4859C26.5851 19.4711 26.985 18.4779 27.2847 17.5379C28.6476 17.921 31.6373 18.7966 31.6373 20.4808C31.6373 22.181 28.7683 23.0648 27.3326 23.4775ZM26.0611 29.8579C24.5494 30.7062 22.3039 28.6755 21.2693 27.7104C21.9557 26.9826 22.6415 26.1365 23.3109 25.1969C24.4884 25.0957 25.6007 24.9301 26.6096 24.704C26.94 25.9994 27.5794 29.0057 26.0611 29.8579ZM14.9172 29.8458C13.4054 29.0005 14.0964 26.0978 14.4431 24.7491C15.4406 24.9631 16.545 25.117 17.7253 25.2098C18.399 26.1292 19.1048 26.9742 19.8159 27.7143C18.9373 28.5384 16.4361 30.6949 14.9172 29.8458ZM9.36241 20.4808C9.36241 18.7744 12.3343 17.9052 13.7282 17.523C14.033 18.4842 14.4328 19.4892 14.9153 20.5054C14.4266 21.5368 14.0211 22.5577 13.7134 23.5303C12.3843 23.1613 9.36241 22.1883 9.36241 20.4808ZM14.9011 11.1669C16.4191 10.315 18.7744 12.3898 19.7821 13.3237C19.0746 14.0604 18.3753 14.8991 17.7073 15.8132C16.5619 15.9161 15.4653 16.0814 14.4573 16.3029C14.0791 14.8342 13.3847 12.018 14.9011 11.1669ZM24.0552 16.9097C24.8323 17.0047 25.5769 17.1312 26.276 17.286C26.0661 17.9382 25.8045 18.6202 25.4964 19.3194C25.0498 18.4978 24.5704 17.6927 24.0552 16.9097ZM20.5115 14.0446C20.9914 14.5487 21.472 15.1116 21.9448 15.7222C20.9858 15.6782 20.0252 15.6781 19.0661 15.7216C19.5394 15.1166 20.0241 14.5545 20.5115 14.0446ZM15.5122 19.3187C15.2092 18.6219 14.95 17.9369 14.7383 17.2753C15.4332 17.1246 16.1743 17.0013 16.9464 16.9078C16.4297 17.6891 15.9511 18.4939 15.5122 19.3187ZM16.9685 24.1259C16.171 24.0396 15.4187 23.9226 14.724 23.776C14.939 23.1028 15.2039 22.403 15.5134 21.6912C15.9583 22.5246 16.4442 23.3372 16.9685 24.1259ZM20.5403 26.9884C20.0472 26.4724 19.5553 25.9018 19.0749 25.288C20.0394 25.3247 21.0057 25.3248 21.9701 25.2831C21.4958 25.908 21.0169 26.4795 20.5403 26.9884ZM25.5063 21.655C25.8319 22.3745 26.1063 23.0705 26.3243 23.7323C25.618 23.8886 24.8556 24.0144 24.0523 24.1079C24.5713 23.31 25.0583 22.4924 25.5063 21.655ZM22.7303 24.2302C21.255 24.3324 19.7705 24.3312 18.2947 24.2385C17.4561 23.0509 16.7096 21.8018 16.0653 20.5051C16.7065 19.2111 17.4476 17.9645 18.2822 16.7787C19.759 16.6705 21.245 16.6702 22.7218 16.7794C23.5493 17.9651 24.2892 19.2084 24.9453 20.4908C24.297 21.7841 23.552 23.0332 22.7303 24.2302ZM26.0451 11.137C27.5635 11.9861 26.8876 15.0019 26.5559 16.3133C25.5455 16.0872 24.4482 15.919 23.2994 15.8145C22.6301 14.8905 21.9367 14.0504 21.2406 13.3232C22.2612 12.3692 24.5414 10.2961 26.0451 11.137Z" fill="#53C1DE"/>
</svg>
