<svg width="41" height="41" viewBox="0 0 41 41" fill="none" xmlns="http://www.w3.org/2000/svg">
<g clip-path="url(#clip0_253_11493)">
<path d="M20.4995 7.29004C13.2045 7.29004 7.29053 13.2036 7.29053 20.4987C7.29053 27.7947 13.2045 33.7089 20.4995 33.7089C27.7954 33.7089 33.7094 27.7947 33.7094 20.4987C33.7094 13.2036 27.7954 7.29004 20.4995 7.29004ZM27.6237 14.9351C27.012 14.9566 26.59 14.5914 26.5702 14.036C26.564 13.8323 26.6162 13.6551 26.7562 13.4465C26.8923 13.1797 26.9217 13.1488 26.9183 13.0322C26.9056 12.6829 26.3774 12.6697 26.2329 12.6764C24.25 12.7422 23.7273 15.418 23.3038 17.5941L23.0965 18.7415C24.2382 18.9086 25.0487 18.7026 25.501 18.41C26.1375 17.997 25.3226 17.5722 25.4249 17.1022C25.5298 16.6232 25.9652 16.3919 26.3112 16.3826C26.796 16.37 27.1421 16.8732 27.1312 17.3834C27.1142 18.2273 25.9947 19.3863 23.7555 19.3388C23.4829 19.3327 23.2319 19.3132 22.9983 19.2848L22.5756 21.6166C22.1976 23.3813 21.6954 25.7934 19.8978 27.8978C18.3535 29.7347 16.7865 30.0191 16.085 30.043C14.7718 30.0881 13.9018 29.3877 13.8701 28.4533C13.84 27.5482 14.64 27.0537 15.1653 27.0374C15.8658 27.0141 16.3508 27.5219 16.3695 28.1071C16.3873 28.6016 16.1289 28.7564 15.9573 28.8497C15.8434 28.9419 15.6716 29.0361 15.678 29.2397C15.6821 29.3266 15.7754 29.5273 16.0669 29.5179C16.6222 29.499 16.991 29.2244 17.2484 29.0407C18.5274 27.9756 19.0195 26.1181 19.6641 22.7371L19.7991 21.9182C20.0193 20.8185 20.2627 19.593 20.6346 18.3714C19.7333 17.6927 19.1926 16.8515 17.9802 16.5223C17.149 16.2963 16.642 16.4881 16.286 16.9387C15.864 17.4723 16.004 18.1668 16.4116 18.574L17.0852 19.3187C17.9103 20.2728 18.3624 21.0151 18.192 22.013C17.9226 23.6078 16.0231 24.8302 13.7778 24.1401C11.8611 23.5497 11.503 22.1927 11.7334 21.4445C11.9364 20.7868 12.459 20.6626 12.9703 20.8188C13.5177 20.9887 13.7324 21.6541 13.5757 22.1642C13.5579 22.2189 13.5299 22.3113 13.473 22.433C13.4092 22.5741 13.2918 22.6976 13.2406 22.8617C13.1176 23.2633 13.6676 23.5484 14.0507 23.6662C14.9083 23.9302 15.7453 23.4818 15.9573 22.7877C16.1545 22.1499 15.7511 21.7049 15.5838 21.5344L14.7718 20.6649C14.4005 20.2509 13.5837 19.0978 13.9817 17.8026C14.1354 17.3034 14.4594 16.7736 14.9287 16.4228C15.9203 15.6841 16.9985 15.5624 18.0254 15.858C19.3534 16.2398 19.992 17.1185 20.8197 17.7965C21.2826 16.4384 21.9248 15.1085 22.8901 13.9861C23.7622 12.9635 24.9334 12.2233 26.2753 12.1773C27.6162 12.1331 28.6297 12.7408 28.663 13.7027C28.6765 14.1122 28.4414 14.9079 27.6237 14.9351Z" fill="#00FF8F"/>
</g>
<defs>
<clipPath id="clip0_253_11493">
<rect width="26.4706" height="26.4706" fill="white" transform="translate(7.26465 7.26465)"/>
</clipPath>
</defs>
</svg>
