<svg width="40" height="40" viewBox="0 0 40 40" fill="none" xmlns="http://www.w3.org/2000/svg">
<path d="M22.6902 10.5731C22.6902 10.5731 27.5773 13.3668 28.8563 17.805C30.0087 21.814 29.0858 23.7274 29.0858 23.7274C29.6752 24.3695 30.1396 25.1159 30.4552 25.9284C30.7722 26.4504 30.9584 27.0412 30.9981 27.6507C31.0378 28.2601 30.9298 28.8701 30.6831 29.4288C30.6831 29.4288 30.6045 27.7938 28.1677 27.455C25.9344 27.1405 25.1224 29.3148 20.8571 29.2095C18.4938 29.1645 16.1774 28.542 14.1099 27.3964C12.0423 26.2509 10.2864 24.6169 8.99512 22.6371C11.079 23.7737 13.8091 25.5385 17.2089 25.2673C20.6087 24.9961 21.3185 23.9514 21.3185 23.9514C17.497 20.9273 14.1143 17.3867 11.2677 13.4312C13.9404 15.6677 20.5607 20.1185 20.4067 20.0053C17.9851 17.639 15.7695 15.0708 13.7839 12.3284C13.7839 12.3284 23.7169 20.495 24.5163 20.4431C24.8449 19.7663 26.5436 16.2627 22.6895 10.5723L22.6902 10.5731Z" fill="url(#paint0_linear_206_2001)"/>
<defs>
<linearGradient id="paint0_linear_206_2001" x1="20.3461" y1="18.1194" x2="19.9306" y2="29.4383" gradientUnits="userSpaceOnUse">
<stop stop-color="#F88535"/>
<stop offset="1" stop-color="#FD2221"/>
</linearGradient>
</defs>
</svg>
