<svg width="536" height="491" viewBox="0 0 536 491" fill="none" xmlns="http://www.w3.org/2000/svg">
<g filter="url(#filter0_d_62_2650)">
<path d="M472.275 388.467C471.987 388.642 471.658 388.733 471.322 388.732C470.986 388.731 470.657 388.637 470.371 388.461L451.616 376.915C451.545 376.872 451.487 376.811 451.447 376.739C451.406 376.666 451.385 376.585 451.386 376.502C451.386 376.419 451.408 376.338 451.448 376.265C451.489 376.193 451.548 376.133 451.618 376.09L472.171 363.627C472.347 363.52 472.549 363.464 472.754 363.465C472.96 363.465 473.161 363.523 473.336 363.631L492.673 375.535C492.721 375.564 492.761 375.606 492.789 375.655C492.816 375.705 492.831 375.761 492.83 375.817C492.83 375.874 492.815 375.93 492.788 375.979C492.76 376.028 492.72 376.069 492.671 376.099L472.275 388.467Z" fill="url(#paint0_linear_62_2650)"/>
<path d="M488.301 461.21C488.014 461.384 487.685 461.476 487.349 461.475C487.013 461.473 486.684 461.38 486.398 461.204L467.643 449.658C467.572 449.614 467.514 449.554 467.474 449.481C467.433 449.409 467.412 449.327 467.413 449.244C467.413 449.161 467.434 449.08 467.475 449.008C467.516 448.936 467.575 448.875 467.645 448.832L488.198 436.369C488.374 436.263 488.576 436.207 488.781 436.207C488.986 436.208 489.188 436.265 489.363 436.373L508.7 448.277C508.748 448.307 508.788 448.349 508.816 448.398C508.843 448.447 508.857 448.503 508.857 448.56C508.857 448.616 508.842 448.672 508.814 448.721C508.787 448.771 508.747 448.812 508.698 448.841L488.301 461.21Z" fill="url(#paint1_linear_62_2650)"/>
<path d="M347.243 470.793C347.096 470.882 346.928 470.928 346.757 470.928C346.585 470.927 346.417 470.879 346.271 470.789L336.697 464.896C336.661 464.873 336.632 464.842 336.611 464.805C336.591 464.768 336.58 464.727 336.58 464.684C336.58 464.642 336.591 464.601 336.612 464.564C336.633 464.527 336.663 464.496 336.699 464.474L347.191 458.112C347.28 458.058 347.383 458.029 347.488 458.029C347.593 458.03 347.696 458.059 347.785 458.114L357.656 464.191C357.681 464.206 357.701 464.227 357.715 464.252C357.729 464.278 357.736 464.306 357.736 464.335C357.736 464.364 357.729 464.392 357.714 464.417C357.7 464.443 357.68 464.464 357.655 464.479L347.243 470.793Z" fill="url(#paint2_linear_62_2650)"/>
<path d="M61.4124 353.833C61.0027 354.082 60.5325 354.212 60.0535 354.211C59.5744 354.209 59.1051 354.075 58.6971 353.824L31.9483 337.357C31.8477 337.295 31.7647 337.209 31.7072 337.105C31.6497 337.002 31.6197 336.886 31.6201 336.768C31.6205 336.65 31.6513 336.533 31.7095 336.431C31.7676 336.328 31.8512 336.241 31.9522 336.18L61.2652 318.405C61.5157 318.253 61.8033 318.173 62.0963 318.174C62.3893 318.175 62.6763 318.257 62.9258 318.41L90.5052 335.388C90.574 335.431 90.6307 335.49 90.67 335.561C90.7092 335.631 90.7297 335.711 90.7294 335.791C90.7292 335.872 90.7082 335.951 90.6684 336.022C90.6287 336.092 90.5716 336.151 90.5025 336.193L61.4124 353.833Z" fill="#00FF8F"/>
<g opacity="0.3">
<path d="M60.0535 354.211C60.5325 354.212 61.0027 354.082 61.4124 353.833L90.5025 336.193C90.5716 336.151 90.6287 336.092 90.6684 336.022C90.7082 335.951 90.7292 335.872 90.7294 335.791C90.7295 335.79 90.7295 335.788 90.7294 335.786L90.5025 239L62.0963 224.5L31.6201 239V336.768C31.6197 336.886 31.6497 337.002 31.7072 337.105C31.7647 337.209 31.8477 337.295 31.9483 337.357L58.6971 353.824C59.1051 354.075 59.5744 354.209 60.0535 354.211Z" fill="url(#paint3_linear_62_2650)"/>
<path d="M61.73 353C62.1829 353.002 62.6274 352.871 63.0146 352.623L90.5154 336.015C90.5807 335.973 90.6347 335.914 90.6723 335.844C90.7099 335.774 90.7297 335.695 90.73 335.614C90.73 335.613 90.73 335.611 90.73 335.609L90.5154 239L61.73 251.477V353Z" fill="url(#paint4_linear_62_2650)"/>
</g>
<path d="M472.169 388.443C471.878 388.619 471.543 388.712 471.203 388.711C470.863 388.709 470.529 388.614 470.239 388.436L451.233 376.736C451.162 376.692 451.103 376.63 451.062 376.557C451.021 376.483 451 376.401 451 376.317C451 376.233 451.022 376.15 451.063 376.077C451.105 376.004 451.164 375.943 451.236 375.899L472.064 363.269C472.242 363.161 472.446 363.104 472.655 363.105C472.863 363.106 473.067 363.164 473.244 363.273L492.84 375.337C492.889 375.367 492.93 375.409 492.957 375.459C492.985 375.509 493 375.566 493 375.623C492.999 375.68 492.985 375.737 492.956 375.787C492.928 375.837 492.887 375.878 492.838 375.908L472.169 388.443Z" fill="#00FF8F"/>
<g opacity="0.3">
<path d="M471.203 388.711C471.543 388.712 471.878 388.619 472.169 388.443L492.838 375.908C492.887 375.878 492.928 375.837 492.956 375.787C492.985 375.737 492.999 375.68 493 375.623C493 375.622 493 375.62 493 375.619L492.838 306.849L472.655 296.546L451 306.849V376.317C451 376.401 451.021 376.483 451.062 376.557C451.103 376.63 451.162 376.692 451.233 376.736L470.239 388.436C470.529 388.614 470.863 388.709 471.203 388.711Z" fill="url(#paint5_linear_62_2650)"/>
<path d="M472.394 387.85C472.716 387.852 473.032 387.759 473.307 387.583L492.848 375.782C492.894 375.752 492.932 375.71 492.959 375.661C492.986 375.611 493 375.554 493 375.497C493 375.496 493 375.495 493 375.493L492.848 306.849L472.394 315.714V387.85Z" fill="url(#paint6_linear_62_2650)"/>
</g>
<path d="M416.575 155.955C416.347 156.093 416.085 156.166 415.819 156.165C415.552 156.164 415.291 156.09 415.064 155.95L400.183 146.789C400.127 146.754 400.08 146.706 400.048 146.648C400.016 146.591 400 146.526 400 146.46C400 146.395 400.017 146.33 400.05 146.273C400.082 146.216 400.129 146.168 400.185 146.134L416.493 136.244C416.632 136.16 416.792 136.115 416.956 136.116C417.119 136.116 417.278 136.162 417.417 136.247L432.761 145.693C432.799 145.717 432.831 145.75 432.853 145.789C432.874 145.828 432.886 145.872 432.886 145.917C432.885 145.962 432.874 146.006 432.852 146.045C432.83 146.085 432.798 146.117 432.759 146.141L416.575 155.955Z" fill="#00FF8F"/>
<g opacity="0.3">
<path d="M415.819 156.165C416.085 156.166 416.347 156.093 416.575 155.955L432.759 146.141C432.798 146.117 432.83 146.084 432.852 146.045C432.874 146.006 432.885 145.962 432.886 145.917C432.886 145.916 432.886 145.915 432.886 145.914L432.759 92.0671L416.956 84L400 92.0671V146.46C400 146.526 400.016 146.591 400.048 146.648C400.08 146.706 400.127 146.754 400.183 146.789L415.064 155.95C415.291 156.09 415.552 156.164 415.819 156.165Z" fill="url(#paint7_linear_62_2650)"/>
<path d="M416.752 155.491C417.004 155.492 417.251 155.42 417.466 155.282L432.767 146.042C432.803 146.018 432.833 145.986 432.854 145.947C432.875 145.908 432.886 145.864 432.886 145.819C432.886 145.818 432.886 145.817 432.886 145.816L432.767 92.0671L416.752 99.0088V155.491Z" fill="url(#paint8_linear_62_2650)"/>
</g>
<path d="M488.169 461.119C487.878 461.296 487.543 461.388 487.203 461.387C486.863 461.386 486.529 461.291 486.239 461.113L467.233 449.412C467.162 449.368 467.103 449.307 467.062 449.233C467.021 449.16 467 449.077 467 448.993C467 448.909 467.022 448.827 467.063 448.754C467.105 448.681 467.164 448.619 467.236 448.576L488.064 435.946C488.242 435.838 488.446 435.781 488.655 435.782C488.863 435.782 489.067 435.84 489.244 435.95L508.84 448.013C508.889 448.043 508.93 448.085 508.957 448.136C508.985 448.186 509 448.242 509 448.3C508.999 448.357 508.985 448.413 508.956 448.463C508.928 448.513 508.887 448.555 508.838 448.585L488.169 461.119Z" fill="#00FF8F"/>
<g opacity="0.3">
<path d="M487.203 461.387C487.543 461.388 487.878 461.296 488.169 461.119L508.838 448.585C508.887 448.555 508.928 448.513 508.956 448.463C508.985 448.413 508.999 448.357 509 448.3C509 448.298 509 448.297 509 448.296L508.838 379.525L488.655 369.222L467 379.525V448.993C467 449.077 467.021 449.16 467.062 449.233C467.103 449.307 467.162 449.368 467.233 449.412L486.239 461.113C486.529 461.291 486.863 461.386 487.203 461.387Z" fill="url(#paint9_linear_62_2650)"/>
<path d="M488.394 460.527C488.716 460.528 489.032 460.436 489.307 460.259L508.848 448.459C508.894 448.429 508.932 448.387 508.959 448.337C508.986 448.287 509 448.231 509 448.174C509 448.173 509 448.171 509 448.17L508.848 379.525L488.394 388.391V460.527Z" fill="url(#paint10_linear_62_2650)"/>
</g>
<path d="M347.322 470.831C347.138 470.942 346.928 471.001 346.714 471C346.5 470.999 346.29 470.939 346.107 470.827L334.147 463.464C334.102 463.436 334.065 463.398 334.039 463.351C334.013 463.305 334 463.253 334 463.2C334 463.148 334.014 463.096 334.04 463.05C334.066 463.004 334.103 462.965 334.149 462.938L347.256 454.989C347.368 454.921 347.496 454.886 347.627 454.886C347.758 454.887 347.887 454.923 347.998 454.992L360.33 462.584C360.361 462.603 360.387 462.629 360.404 462.661C360.422 462.692 360.431 462.728 360.431 462.764C360.431 462.8 360.421 462.835 360.403 462.867C360.386 462.898 360.36 462.925 360.329 462.943L347.322 470.831Z" fill="#00FF8F"/>
<g opacity="0.3">
<path d="M346.714 471C346.928 471.001 347.138 470.942 347.322 470.831L360.329 462.943C360.36 462.925 360.386 462.898 360.403 462.867C360.421 462.835 360.431 462.8 360.431 462.764C360.431 462.763 360.431 462.762 360.431 462.761L360.329 419.484L347.627 413L334 419.484V463.2C334 463.253 334.013 463.305 334.039 463.351C334.065 463.398 334.102 463.436 334.147 463.464L346.107 470.827C346.29 470.939 346.5 470.999 346.714 471Z" fill="url(#paint11_linear_62_2650)"/>
<path d="M347.464 470.459C347.666 470.459 347.865 470.401 348.038 470.29L360.335 462.864C360.364 462.845 360.388 462.819 360.405 462.788C360.422 462.756 360.431 462.721 360.431 462.685C360.431 462.684 360.431 462.683 360.431 462.682L360.335 419.484L347.464 425.063V470.459Z" fill="url(#paint12_linear_62_2650)"/>
</g>
<path d="M415.661 155.528C415.454 155.654 415.216 155.72 414.974 155.719C414.732 155.718 414.495 155.651 414.289 155.524L400.766 147.199C400.715 147.168 400.673 147.124 400.644 147.072C400.615 147.019 400.6 146.961 400.6 146.901C400.6 146.841 400.616 146.782 400.645 146.73C400.675 146.678 400.717 146.635 400.768 146.604L415.587 137.618C415.714 137.541 415.859 137.501 416.007 137.501C416.155 137.502 416.3 137.543 416.426 137.62L430.369 146.204C430.404 146.225 430.432 146.255 430.452 146.291C430.472 146.326 430.483 146.367 430.482 146.407C430.482 146.448 430.472 146.488 430.452 146.524C430.431 146.559 430.403 146.589 430.368 146.61L415.661 155.528Z" fill="url(#paint13_linear_62_2650)"/>
<path d="M88.2925 240.433C88.1364 240.527 87.9572 240.577 87.7747 240.576C87.5921 240.576 87.4133 240.525 87.2579 240.429L77.0641 234.154C77.0257 234.13 76.9941 234.097 76.9721 234.058C76.9502 234.018 76.9388 233.974 76.939 233.929C76.9391 233.884 76.9508 233.84 76.973 233.801C76.9952 233.761 77.0271 233.728 77.0656 233.705L88.2364 226.931C88.3319 226.873 88.4415 226.843 88.5531 226.843C88.6648 226.843 88.7742 226.875 88.8693 226.933L99.3796 233.404C99.4058 233.42 99.4274 233.442 99.4424 233.469C99.4573 233.496 99.4651 233.526 99.465 233.557C99.4649 233.588 99.4569 233.618 99.4418 233.645C99.4267 233.672 99.4049 233.694 99.3786 233.71L88.2925 240.433Z" fill="url(#paint14_linear_62_2650)"/>
<path d="M130.384 236.988C130.177 237.114 129.94 237.18 129.697 237.179C129.455 237.178 129.218 237.111 129.012 236.984L115.489 228.659C115.438 228.628 115.396 228.584 115.367 228.532C115.338 228.48 115.323 228.421 115.323 228.361C115.323 228.301 115.339 228.243 115.368 228.191C115.398 228.139 115.44 228.095 115.491 228.064L130.31 219.078C130.437 219.001 130.582 218.961 130.73 218.961C130.878 218.962 131.023 219.003 131.15 219.081L145.092 227.664C145.127 227.685 145.156 227.715 145.175 227.751C145.195 227.787 145.206 227.827 145.205 227.868C145.205 227.908 145.195 227.948 145.175 227.984C145.155 228.02 145.126 228.049 145.091 228.071L130.384 236.988Z" fill="url(#paint15_linear_62_2650)"/>
<path d="M252.689 437.326L199.17 469.954C198.407 470.42 197.53 470.665 196.636 470.663C195.742 470.661 194.866 470.412 194.105 469.944L83.1199 401.639C82.8325 401.462 82.5953 401.214 82.4307 400.92C82.2662 400.625 82.18 400.293 82.1801 399.956C82.1803 399.618 82.2669 399.287 82.4317 398.992C82.5965 398.698 82.834 398.45 83.1215 398.274L158.553 351.955C158.802 351.802 159.008 351.588 159.151 351.333C159.294 351.077 159.37 350.79 159.37 350.497C159.371 350.204 159.296 349.917 159.154 349.661C159.012 349.405 158.807 349.19 158.558 349.036L69.3574 293.887" stroke="url(#paint16_linear_62_2650)" stroke-width="0.5" stroke-miterlimit="10"/>
<path d="M71.5172 295.182C71.3658 295.632 71.0786 296.024 70.6952 296.304C70.3118 296.584 69.851 296.739 69.3762 296.746C68.9015 296.754 68.436 296.614 68.0439 296.346C67.6518 296.078 67.3524 295.695 67.1868 295.25C67.0211 294.805 66.9975 294.32 67.119 293.861C67.2406 293.402 67.5014 292.992 67.8656 292.687C68.2298 292.382 68.6795 292.198 69.1528 292.159C69.626 292.121 70.0997 292.23 70.5085 292.471C70.9976 292.701 71.377 293.114 71.5655 293.621C71.7541 294.127 71.7367 294.688 71.5172 295.182Z" fill="url(#paint17_linear_62_2650)"/>
<path d="M99.5738 388.148C99.4224 387.698 99.1352 387.306 98.7518 387.026C98.3684 386.745 97.9076 386.591 97.4329 386.583C96.9581 386.576 96.4926 386.716 96.1005 386.984C95.7084 387.251 95.409 387.634 95.2434 388.079C95.0778 388.524 95.0541 389.01 95.1757 389.469C95.2973 389.928 95.5581 390.338 95.9223 390.642C96.2865 390.947 96.7361 391.132 97.2094 391.17C97.6826 391.209 98.1563 391.1 98.5651 390.858C99.0541 390.628 99.4336 390.215 99.6221 389.709C99.8106 389.202 99.7933 388.642 99.5738 388.148Z" fill="url(#paint18_linear_62_2650)"/>
<path d="M366.452 242.924L441.883 196.606C442.132 196.453 442.338 196.238 442.481 195.983C442.625 195.728 442.7 195.44 442.7 195.148C442.701 194.855 442.626 194.567 442.484 194.311C442.342 194.056 442.137 193.841 441.888 193.687L379.72 155.225" stroke="url(#paint19_linear_62_2650)" stroke-width="0.5" stroke-miterlimit="10"/>
<path d="M381.879 156.519C381.728 156.97 381.441 157.362 381.057 157.642C380.674 157.922 380.213 158.076 379.738 158.084C379.264 158.091 378.798 157.951 378.406 157.684C378.014 157.416 377.715 157.033 377.549 156.588C377.383 156.143 377.36 155.657 377.481 155.198C377.603 154.739 377.864 154.329 378.228 154.025C378.592 153.72 379.042 153.536 379.515 153.497C379.988 153.458 380.462 153.567 380.871 153.809C381.36 154.039 381.739 154.452 381.928 154.959C382.116 155.465 382.099 156.025 381.879 156.519Z" fill="url(#paint20_linear_62_2650)"/>
<path d="M454.706 344.401L530.137 298.082C530.387 297.929 530.593 297.714 530.736 297.459C530.879 297.204 530.954 296.916 530.955 296.624C530.955 296.331 530.881 296.043 530.739 295.787C530.597 295.532 530.391 295.317 530.142 295.163L467.974 256.701" stroke="url(#paint21_linear_62_2650)" stroke-width="0.5" stroke-miterlimit="10"/>
<path d="M470.134 257.996C469.983 258.446 469.695 258.838 469.312 259.118C468.929 259.398 468.468 259.552 467.993 259.56C467.518 259.568 467.053 259.428 466.661 259.16C466.269 258.892 465.969 258.509 465.803 258.064C465.638 257.619 465.614 257.134 465.736 256.675C465.857 256.216 466.118 255.806 466.482 255.501C466.847 255.196 467.296 255.012 467.769 254.973C468.243 254.935 468.716 255.044 469.125 255.285C469.614 255.515 469.994 255.928 470.182 256.435C470.371 256.941 470.353 257.502 470.134 257.996Z" fill="url(#paint22_linear_62_2650)"/>
<path d="M276.597 166.002L201.165 212.321C200.916 212.474 200.71 212.688 200.567 212.944C200.424 213.199 200.349 213.487 200.348 213.779C200.348 214.072 200.422 214.36 200.564 214.615C200.706 214.871 200.912 215.086 201.161 215.24L263.329 253.702" stroke="url(#paint23_linear_62_2650)" stroke-width="0.5" stroke-miterlimit="10"/>
<path d="M261.168 252.407C261.32 251.957 261.607 251.565 261.99 251.285C262.374 251.005 262.835 250.85 263.309 250.843C263.784 250.835 264.25 250.975 264.642 251.243C265.034 251.511 265.333 251.894 265.499 252.339C265.664 252.784 265.688 253.269 265.566 253.728C265.445 254.187 265.184 254.597 264.82 254.902C264.456 255.207 264.006 255.391 263.533 255.43C263.059 255.468 262.586 255.359 262.177 255.118C261.688 254.887 261.309 254.475 261.12 253.968C260.932 253.461 260.949 252.901 261.168 252.407Z" fill="url(#paint24_linear_62_2650)"/>
<path d="M117.35 338.341L63.8303 370.97C63.0671 371.435 62.1901 371.68 61.2963 371.678C60.4025 371.677 59.5266 371.428 58.7654 370.959L5 337.87" stroke="url(#paint25_linear_62_2650)" stroke-width="0.5" stroke-miterlimit="10"/>
<path d="M119.403 337.246C119.252 336.796 118.965 336.404 118.581 336.124C118.198 335.843 117.737 335.689 117.262 335.681C116.788 335.674 116.322 335.814 115.93 336.082C115.538 336.35 115.239 336.732 115.073 337.177C114.907 337.622 114.884 338.108 115.005 338.567C115.127 339.026 115.388 339.436 115.752 339.741C116.116 340.045 116.566 340.23 117.039 340.268C117.512 340.307 117.986 340.198 118.395 339.956C118.884 339.726 119.263 339.313 119.452 338.807C119.64 338.3 119.623 337.74 119.403 337.246Z" fill="url(#paint26_linear_62_2650)"/>
<path d="M465.935 233.964L412.416 266.593C411.652 267.058 410.775 267.303 409.882 267.301C408.988 267.299 408.112 267.051 407.351 266.582L353.585 233.492" stroke="url(#paint27_linear_62_2650)" stroke-width="0.5" stroke-miterlimit="10"/>
<path d="M467.988 232.869C467.837 232.419 467.55 232.027 467.166 231.747C466.783 231.466 466.322 231.312 465.847 231.304C465.373 231.297 464.907 231.437 464.515 231.705C464.123 231.973 463.823 232.355 463.658 232.8C463.492 233.245 463.469 233.731 463.59 234.19C463.712 234.649 463.973 235.059 464.337 235.364C464.701 235.668 465.151 235.853 465.624 235.891C466.097 235.93 466.571 235.821 466.98 235.579C467.469 235.349 467.848 234.936 468.037 234.43C468.225 233.923 468.208 233.363 467.988 232.869Z" fill="url(#paint28_linear_62_2650)"/>
<path d="M310.277 431.237L363.796 398.609C364.559 398.143 365.436 397.898 366.33 397.9C367.224 397.902 368.1 398.151 368.861 398.619L422.626 431.709" stroke="url(#paint29_linear_62_2650)" stroke-width="0.5" stroke-miterlimit="10"/>
<path d="M331.445 378.989L384.964 346.36C385.727 345.895 386.604 345.65 387.498 345.652C388.392 345.654 389.268 345.903 390.029 346.371L501.014 414.676C501.301 414.853 501.539 415.1 501.703 415.395C501.868 415.69 501.954 416.022 501.954 416.359C501.954 416.696 501.867 417.028 501.702 417.323C501.537 417.617 501.3 417.864 501.012 418.041L462.352 441.78" stroke="url(#paint30_linear_62_2650)" stroke-width="0.5" stroke-miterlimit="10"/>
<path d="M460.686 442.711C460.837 443.161 461.124 443.553 461.508 443.833C461.891 444.113 462.352 444.268 462.827 444.275C463.301 444.283 463.767 444.143 464.159 443.875C464.551 443.607 464.851 443.225 465.016 442.78C465.182 442.335 465.205 441.849 465.084 441.39C464.962 440.931 464.701 440.521 464.337 440.216C463.973 439.912 463.523 439.727 463.05 439.689C462.577 439.65 462.103 439.759 461.694 440C461.205 440.231 460.826 440.643 460.637 441.15C460.449 441.657 460.466 442.217 460.686 442.711Z" fill="url(#paint31_linear_62_2650)"/>
<path d="M475.305 398.711C475.153 399.161 474.866 399.553 474.483 399.833C474.099 400.113 473.638 400.268 473.164 400.275C472.689 400.283 472.223 400.143 471.831 399.875C471.439 399.607 471.14 399.224 470.974 398.779C470.809 398.334 470.785 397.849 470.907 397.39C471.028 396.931 471.289 396.521 471.653 396.216C472.018 395.912 472.467 395.727 472.94 395.689C473.414 395.65 473.887 395.759 474.296 396C474.785 396.231 475.165 396.643 475.353 397.15C475.542 397.657 475.524 398.217 475.305 398.711Z" fill="url(#paint32_linear_62_2650)"/>
<path d="M72.3838 353.685L125.903 321.056C126.666 320.591 127.543 320.346 128.437 320.348C129.331 320.349 130.207 320.598 130.968 321.067L337.802 448.348C338.089 448.525 338.326 448.772 338.491 449.067C338.656 449.362 338.742 449.693 338.742 450.031C338.741 450.368 338.655 450.7 338.49 450.994C338.325 451.289 338.088 451.536 337.8 451.713L299.14 475.452" stroke="url(#paint33_linear_62_2650)" stroke-width="0.5" stroke-miterlimit="10"/>
<path d="M297.473 476.383C297.625 476.833 297.912 477.225 298.296 477.505C298.679 477.785 299.14 477.94 299.615 477.947C300.089 477.955 300.555 477.815 300.947 477.547C301.339 477.279 301.638 476.896 301.804 476.451C301.97 476.006 301.993 475.521 301.872 475.062C301.75 474.603 301.489 474.193 301.125 473.888C300.761 473.583 300.311 473.399 299.838 473.36C299.365 473.322 298.891 473.431 298.482 473.672C297.993 473.903 297.614 474.315 297.425 474.822C297.237 475.329 297.254 475.889 297.473 476.383Z" fill="url(#paint34_linear_62_2650)"/>
<path d="M312.092 432.383C311.941 432.833 311.654 433.225 311.27 433.505C310.887 433.785 310.426 433.94 309.951 433.947C309.477 433.955 309.011 433.815 308.619 433.547C308.227 433.279 307.928 432.896 307.762 432.451C307.596 432.006 307.573 431.521 307.694 431.062C307.816 430.603 308.077 430.193 308.441 429.888C308.805 429.583 309.255 429.399 309.728 429.36C310.201 429.322 310.675 429.431 311.084 429.672C311.573 429.903 311.952 430.315 312.141 430.822C312.329 431.328 312.312 431.889 312.092 432.383Z" fill="url(#paint35_linear_62_2650)"/>
<path d="M488.135 449.206L434.615 481.835C433.852 482.3 432.975 482.545 432.082 482.543C431.188 482.541 430.312 482.292 429.551 481.824L317.573 412.908C317.049 412.586 316.446 412.415 315.83 412.416C315.215 412.416 314.612 412.588 314.088 412.911L254.834 449.514" stroke="url(#paint36_linear_62_2650)" stroke-width="0.5" stroke-miterlimit="10"/>
<path d="M256.769 448.316C256.618 447.866 256.331 447.474 255.947 447.194C255.564 446.914 255.103 446.759 254.628 446.752C254.153 446.744 253.688 446.884 253.296 447.152C252.904 447.42 252.604 447.803 252.439 448.248C252.273 448.693 252.249 449.178 252.371 449.637C252.493 450.096 252.753 450.506 253.118 450.811C253.482 451.116 253.931 451.3 254.405 451.339C254.878 451.377 255.352 451.268 255.76 451.027C256.249 450.796 256.629 450.384 256.817 449.877C257.006 449.371 256.989 448.81 256.769 448.316Z" fill="url(#paint37_linear_62_2650)"/>
<path d="M44.125 401.423V369.435" stroke="url(#paint38_linear_62_2650)" stroke-width="0.5" stroke-miterlimit="10" stroke-linecap="round"/>
<path d="M347.158 203.544V171.556" stroke="url(#paint39_linear_62_2650)" stroke-width="0.5" stroke-miterlimit="10" stroke-linecap="round"/>
<path d="M475.515 231.063V199.074" stroke="url(#paint40_linear_62_2650)" stroke-width="0.5" stroke-miterlimit="10" stroke-linecap="round"/>
<path d="M460.475 326.356V294.367" stroke="url(#paint41_linear_62_2650)" stroke-width="0.5" stroke-miterlimit="10" stroke-linecap="round"/>
<path d="M99.7847 295.417V263.429" stroke="url(#paint42_linear_62_2650)" stroke-width="0.5" stroke-miterlimit="10" stroke-linecap="round"/>
<path d="M109.847 310.57V278.581" stroke="url(#paint43_linear_62_2650)" stroke-width="0.5" stroke-miterlimit="10" stroke-linecap="round"/>
<path d="M516.647 357.571V325.583" stroke="url(#paint44_linear_62_2650)" stroke-width="0.5" stroke-miterlimit="10" stroke-linecap="round"/>
<path d="M238.472 480.473V448.484" stroke="url(#paint45_linear_62_2650)" stroke-width="0.5" stroke-miterlimit="10" stroke-linecap="round"/>
<path d="M50.9185 419.263V387.274" stroke="url(#paint46_linear_62_2650)" stroke-width="0.5" stroke-miterlimit="10" stroke-linecap="round"/>
<path d="M145.206 178.599V146.61" stroke="url(#paint47_linear_62_2650)" stroke-width="0.5" stroke-miterlimit="10" stroke-linecap="round"/>
<path d="M338.742 178.599V146.61" stroke="url(#paint48_linear_62_2650)" stroke-width="0.5" stroke-miterlimit="10" stroke-linecap="round"/>
<path style="mix-blend-mode:screen" d="M243.237 346.468C242.032 347.199 240.649 347.583 239.24 347.578C237.831 347.573 236.45 347.18 235.25 346.441L156.566 298.003C156.27 297.82 156.026 297.565 155.857 297.261C155.688 296.958 155.599 296.616 155.601 296.268C155.602 295.92 155.692 295.579 155.863 295.276C156.034 294.974 156.28 294.72 156.578 294.54L242.804 242.251C243.541 241.804 244.387 241.569 245.249 241.572C246.111 241.575 246.955 241.816 247.689 242.268L328.817 292.21C329.019 292.335 329.186 292.509 329.302 292.717C329.417 292.925 329.477 293.158 329.477 293.396C329.476 293.633 329.414 293.867 329.297 294.073C329.18 294.28 329.012 294.454 328.809 294.577L243.237 346.468Z" stroke="url(#paint49_linear_62_2650)" stroke-miterlimit="10"/>
<path d="M329.376 279.7V150.135L155.604 152.571V283.045C155.603 283.062 155.603 283.077 155.604 283.094V283.12L155.607 283.121C155.612 283.46 155.702 283.792 155.87 284.086C156.038 284.38 156.277 284.627 156.566 284.804L235.25 333.242C236.45 333.981 237.831 334.374 239.24 334.379C240.649 334.384 242.032 334 243.237 333.269L328.809 281.378C329.086 281.209 329.294 280.949 329.398 280.642C329.502 280.335 329.494 280.002 329.376 279.7Z" fill="url(#paint50_linear_62_2650)"/>
<path d="M243.237 203.246C242.032 203.976 240.649 204.36 239.24 204.356C237.831 204.351 236.45 203.957 235.25 203.219L156.566 154.78C156.27 154.598 156.026 154.343 155.857 154.039C155.688 153.735 155.599 153.393 155.601 153.045C155.602 152.698 155.692 152.356 155.863 152.054C156.034 151.751 156.28 151.497 156.578 151.317L242.804 99.0286C243.541 98.5817 244.387 98.3469 245.249 98.3498C246.111 98.3527 246.955 98.5933 247.689 99.0451L328.817 148.988C329.019 149.112 329.186 149.287 329.302 149.494C329.417 149.702 329.477 149.936 329.477 150.173C329.476 150.411 329.414 150.644 329.297 150.851C329.18 151.058 329.012 151.231 328.809 151.354L243.237 203.246Z" fill="url(#paint51_linear_62_2650)"/>
<path style="mix-blend-mode:screen" d="M368.582 415.358C367.377 416.088 365.994 416.472 364.585 416.468C363.176 416.463 361.795 416.07 360.595 415.331L281.911 366.892C281.615 366.71 281.37 366.455 281.201 366.151C281.032 365.847 280.944 365.505 280.945 365.157C280.946 364.81 281.037 364.468 281.208 364.166C281.379 363.863 281.625 363.609 281.922 363.429L368.149 311.141C368.886 310.694 369.732 310.459 370.594 310.462C371.456 310.465 372.3 310.705 373.034 311.157L454.162 361.1C454.364 361.224 454.531 361.399 454.646 361.606C454.762 361.814 454.822 362.048 454.821 362.285C454.821 362.523 454.759 362.756 454.642 362.963C454.525 363.17 454.357 363.343 454.154 363.466L368.582 415.358Z" stroke="url(#paint52_linear_62_2650)" stroke-miterlimit="10"/>
<path d="M454.722 348.59V256.141L280.949 258.576V351.935C280.949 351.951 280.949 351.967 280.949 351.983V352.009L280.952 352.011C280.957 352.349 281.047 352.681 281.215 352.975C281.383 353.27 281.622 353.516 281.911 353.693L360.596 402.132C361.796 402.87 363.176 403.264 364.585 403.268C365.994 403.273 367.378 402.889 368.583 402.159L454.154 350.267C454.431 350.099 454.64 349.838 454.743 349.532C454.847 349.225 454.839 348.891 454.722 348.59Z" fill="url(#paint53_linear_62_2650)"/>
<path d="M368.582 309.252C367.377 309.982 365.994 310.366 364.585 310.361C363.175 310.357 361.795 309.963 360.595 309.224L281.911 260.786C281.615 260.604 281.37 260.348 281.201 260.045C281.032 259.741 280.944 259.399 280.945 259.051C280.946 258.704 281.037 258.362 281.208 258.059C281.379 257.757 281.625 257.503 281.922 257.323L368.149 205.034C368.886 204.588 369.732 204.353 370.594 204.356C371.456 204.359 372.3 204.599 373.034 205.051L454.162 254.994C454.364 255.118 454.531 255.293 454.646 255.5C454.762 255.708 454.822 255.942 454.821 256.179C454.821 256.417 454.759 256.65 454.642 256.857C454.525 257.064 454.357 257.237 454.154 257.36L368.582 309.252Z" fill="url(#paint54_linear_62_2650)"/>
<path style="mix-blend-mode:screen" d="M209.858 446.473C208.653 447.204 207.27 447.588 205.861 447.583C204.452 447.578 203.071 447.185 201.871 446.446L123.187 398.007C122.891 397.825 122.647 397.57 122.478 397.266C122.309 396.962 122.221 396.62 122.222 396.273C122.223 395.925 122.313 395.583 122.484 395.281C122.655 394.978 122.901 394.725 123.199 394.544L209.425 342.256C210.162 341.809 211.008 341.574 211.87 341.577C212.732 341.58 213.576 341.82 214.31 342.272L295.438 392.215C295.64 392.34 295.807 392.514 295.923 392.722C296.038 392.929 296.099 393.163 296.098 393.4C296.097 393.638 296.035 393.871 295.918 394.078C295.801 394.285 295.633 394.458 295.43 394.581L209.858 446.473Z" stroke="url(#paint55_linear_62_2650)" stroke-miterlimit="10"/>
<path d="M295.998 379.705V331.734L220.355 332.794L214.311 329.073C213.577 328.621 212.732 328.381 211.87 328.378C211.008 328.375 210.163 328.61 209.426 329.057L202.858 333.039L122.225 334.17V383.05C122.224 383.066 122.225 383.082 122.225 383.098V383.124L122.228 383.126C122.233 383.464 122.323 383.796 122.491 384.091C122.659 384.385 122.898 384.632 123.187 384.808L201.871 433.247C203.071 433.985 204.452 434.379 205.861 434.384C207.27 434.388 208.654 434.004 209.859 433.274L295.43 381.382C295.707 381.214 295.915 380.954 296.019 380.647C296.123 380.34 296.115 380.007 295.998 379.705Z" fill="url(#paint56_linear_62_2650)"/>
<path d="M209.858 384.319C208.653 385.05 207.27 385.434 205.861 385.429C204.452 385.424 203.071 385.031 201.871 384.292L123.187 335.853C122.891 335.671 122.647 335.416 122.478 335.112C122.309 334.808 122.221 334.466 122.222 334.119C122.223 333.771 122.313 333.429 122.484 333.127C122.655 332.824 122.901 332.571 123.199 332.39L209.425 280.102C210.162 279.655 211.008 279.42 211.87 279.423C212.732 279.426 213.576 279.666 214.31 280.118L295.438 330.061C295.64 330.186 295.807 330.36 295.923 330.568C296.038 330.775 296.099 331.009 296.098 331.246C296.097 331.484 296.035 331.717 295.918 331.924C295.801 332.131 295.633 332.304 295.43 332.427L209.858 384.319Z" fill="url(#paint57_linear_62_2650)"/>
<path d="M184.271 273.085C184.271 273.085 183.411 273.223 183.058 273.269C182.04 273.311 181.021 273.283 180.008 273.185C179.025 273.077 178.119 274.106 177.398 274.52C176.676 274.935 173.268 275.442 173.083 275.672C172.899 275.902 173.16 276.163 173.498 276.317C174.561 276.325 175.623 276.258 176.676 276.117C177.336 276.102 179.025 275.733 179.117 275.81C179.209 275.887 178.856 276.056 178.257 276.133C178.017 276.146 177.791 276.247 177.621 276.417C177.451 276.587 177.349 276.814 177.336 277.054C177.382 277.407 179.286 277.115 180.284 276.869C181.282 276.624 182.126 276.255 182.986 276.04C183.561 275.905 184.147 275.823 184.736 275.795" fill="#F2CFA4"/>
<path d="M195.491 339.903C195.723 339.546 195.999 339.22 196.312 338.932L206.854 336.84C206.854 336.84 206.895 338.096 206.921 338.209C206.392 338.639 205.805 338.993 205.178 339.261C204.9 339.401 204.609 339.513 204.309 339.596L203.8 339.409C203.456 339.485 203.122 339.603 202.806 339.76C201.964 340.276 201.094 340.743 200.199 341.16C199.133 341.654 197.937 341.793 196.786 341.557C195.597 341.246 195.316 340.372 195.491 339.903Z" fill="#1A1401"/>
<path d="M202.322 333.692C201.52 334.161 200.8 334.758 200.191 335.459C198.699 336.96 195.928 338.558 195.5 339.433C195.133 340.185 195.507 340.935 196.836 341.333C198.187 341.738 200.371 340.772 201.725 339.855C203.079 338.938 206.097 338.402 206.653 337.472C207.2 336.555 206.522 334.987 206.268 334.599C206.014 334.212 205.471 332.953 202.322 333.692Z" fill="#1B115E"/>
<path d="M212.509 343.617C212.173 344.271 211.979 344.988 211.938 345.722C212.018 346.505 212.361 347.238 212.911 347.802C213.385 348.155 214.833 348.702 217.278 347.218C219.723 345.734 219.054 342.593 219.017 342.144C218.95 341.307 218.947 340.466 219.01 339.628" fill="#1A1401"/>
<path d="M219.042 339.368C218.944 340.167 218.9 340.972 218.913 341.777C219.106 343.153 218.824 344.553 218.113 345.746C217.617 346.461 216.923 347.015 216.116 347.341C215.309 347.666 214.425 347.749 213.572 347.579C211.804 346.866 211.978 344.857 212.328 343.764C212.679 342.67 213.926 341.605 214.16 340.441C214.394 339.278 213.928 336.927 216.301 336.61C218.365 336.335 219.422 337.307 219.042 339.368Z" fill="#1B115E"/>
<path d="M205.807 330.995C205.691 332.076 205.629 333.162 205.623 334.249C205.689 334.952 202.679 335.378 201.856 334.439C201.856 334.439 201.724 332.809 201.695 331.692" fill="#F2CFA4"/>
<path d="M199.823 311.611C200.328 314.51 201.213 332.671 201.213 332.671C202.046 333.097 202.976 333.294 203.91 333.241C204.843 333.188 205.745 332.887 206.524 332.369C206.524 332.369 207.801 319.4 207.851 319.043C208.281 315.814 208.27 312.541 207.816 309.315C207.753 305.003 208.231 300.699 209.238 296.506C209.672 295.075 210.025 294.118 210.312 293.173C210.719 291.846 210.976 290.477 211.079 289.092C211.21 286.821 210.755 284.554 209.758 282.509C209.758 282.509 199.735 281.785 199.497 284.345C199.2 287.514 198.687 305.085 199.823 311.611Z" fill="#19667E"/>
<path d="M218.768 334.646C218.652 335.727 218.591 336.813 218.584 337.9C218.65 338.603 215.64 339.029 214.818 338.089C214.818 338.089 214.686 336.459 214.656 335.343" fill="#F2CFA4"/>
<path d="M217.675 286.355C218.816 288.378 219.448 290.649 219.515 292.971C219.583 295.463 219.309 297.953 218.701 300.371C217.993 303.485 219.627 311.81 220.051 313.013C220.678 315.913 220.88 318.889 220.653 321.848C220.445 325.529 219.349 336.043 219.349 336.043C218.568 336.587 217.651 336.902 216.7 336.954C215.75 337.006 214.804 336.791 213.969 336.335C213.969 336.335 212.437 317.772 211.441 314.944C209.247 308.717 207.145 296.575 206.742 294.28C206.012 291.876 205.771 289.349 206.035 286.85C206.035 285.223 217.675 286.355 217.675 286.355Z" fill="#19667E"/>
<path d="M200.094 268.902C197.331 269.344 183.141 273.04 183.141 273.04L183.526 276.269C183.526 276.269 200.971 275.515 201.385 275.23C201.799 274.946 201.799 273.315 201.799 273.315" fill="#E3F6FF"/>
<path d="M197.147 260.711C197.147 260.711 203.085 262.002 203.385 263.128C203.584 263.873 202.249 269.75 200.275 274.637C198.812 274.022 197.385 273.323 196.003 272.543C196.321 269.74 197.147 260.711 197.147 260.711Z" fill="#E3F6FF"/>
<path d="M198.441 252.171C197.462 256.44 196.89 260.793 196.733 265.17C198.142 265.825 199.626 266.302 201.153 266.591" fill="#E3F6FF"/>
<path d="M199.765 280.136C199.568 281.574 199.392 282.906 199.251 284.069C199.212 284.379 199.273 284.693 199.427 284.965C199.581 285.237 199.818 285.452 200.104 285.578C205.128 287.351 210.372 288.425 215.689 288.771C215.787 288.771 215.879 288.771 215.964 288.764C218.212 288.672 218.748 287.678 218.846 286.995V286.98C218.846 286.769 218.839 286.558 218.825 286.346C218.774 285.371 218.615 284.404 218.353 283.463C218.29 283.216 218.226 282.97 218.163 282.73C218.085 282.448 218.001 282.166 217.93 281.891C217.888 281.75 217.853 281.616 217.824 281.482C217.789 281.348 217.761 281.222 217.733 281.095C216.993 277.472 218.283 274.138 219.516 270.818C219.862 269.894 220.2 268.964 220.489 268.026C221.095 266.038 221.694 264.044 222.181 262.035C222.23 261.837 222.286 261.633 222.336 261.421C222.649 260.418 222.806 259.372 222.801 258.32C222.674 257.989 222.533 257.686 222.392 257.404C222.21 257.009 222.005 256.626 221.779 256.255C221.44 255.673 221.03 255.136 220.559 254.655L220.545 254.641C220.355 254.471 220.165 254.309 219.967 254.154C219.643 253.886 219.326 253.647 219.023 253.428C218.783 253.252 218.558 253.09 218.346 252.956C218.254 252.893 218.163 252.836 218.078 252.78C218.061 252.77 218.044 252.758 218.029 252.744L217.987 252.723C217.916 252.674 217.838 252.625 217.768 252.575C217.62 252.476 217.465 252.385 217.317 252.293C217.169 252.202 217.007 252.11 216.845 252.018C216.598 251.877 216.323 251.729 216.013 251.574C215.343 251.243 214.497 250.855 213.292 250.383L212.496 250.087C212.326 250.031 212.157 249.974 211.981 249.925C211.156 249.671 210.31 249.467 209.458 249.29C208.139 249.008 206.8 248.797 205.531 248.55C205.306 248.55 205.087 248.557 204.869 248.571C203.98 248.657 203.099 248.808 202.232 249.023C201.288 249.223 200.416 249.678 199.713 250.339C199.009 251.001 198.501 251.842 198.243 252.773C198.173 253.055 198.128 253.343 198.109 253.633C197.94 256.332 200.936 271.607 199.765 280.136Z" fill="white"/>
<path d="M206.326 250.415C206.326 250.415 204.75 251.919 206.009 253.058L206.746 251.473L206.041 250.834" fill="#D5AB80"/>
<path d="M212.647 244.824L212.473 250.951C212.473 250.951 207.869 254.542 206.01 253.058C205.98 251.972 205.989 249.38 206.015 247.881L207.765 247.527L212.647 244.824Z" fill="#E2B888"/>
<path d="M202.65 240.117C202.492 242.012 202.599 243.921 202.967 245.787C203.579 248.496 203.765 249.108 204.857 249.588C205.949 250.069 206.932 250.121 208.767 248.942C209.939 248.14 210.911 247.079 211.606 245.84C211.606 245.84 211.868 246.012 212.524 245.272C212.97 244.852 213.313 244.335 213.525 243.761C213.737 243.187 213.813 242.571 213.747 241.962C213.724 239.983 213.165 238.047 212.131 236.359C210.907 234.306 207.15 234.961 205.446 235.835C204.675 236.277 204.02 236.896 203.534 237.64C203.048 238.384 202.745 239.233 202.65 240.117Z" fill="#F2CFA4"/>
<path d="M202.455 240.475C204.22 242.016 207.645 240.476 207.645 240.476L207.714 241.38C208.059 242.825 209.069 242.959 209.556 243.218C210.035 243.486 210.148 244.959 210.148 244.959L210.765 244.894C210.75 244.187 210.817 243.48 210.964 242.788C211.03 242.582 211.155 242.4 211.323 242.263C211.491 242.126 211.695 242.04 211.91 242.017C212.125 241.993 212.343 242.032 212.536 242.13C212.73 242.227 212.891 242.378 213.001 242.565C213.536 243.401 213.033 244.411 212.636 245.142C212.636 245.142 213.747 245.479 214.035 240.931C214.089 239.744 214.04 238.555 213.889 237.376C213.517 236.38 212.856 235.519 211.99 234.902C211.124 234.285 210.094 233.942 209.031 233.916C208.2 233.86 207.366 233.972 206.579 234.245C205.792 234.518 205.068 234.947 204.45 235.505C202.579 237.669 202.189 237.621 201.66 237.111C200.933 237.855 201.255 239.427 202.455 240.475Z" fill="#002936"/>
<path d="M215.336 278.726C215.262 279.667 215.262 280.612 215.336 281.553C215.831 283.925 215.95 286.361 215.688 288.771C215.787 288.771 215.879 288.771 215.963 288.764C218.212 288.672 218.747 287.678 218.846 286.995V286.98C218.846 286.769 218.839 286.558 218.825 286.346C218.773 285.371 218.615 284.404 218.353 283.463C218.289 283.216 218.219 282.977 218.155 282.737L218.162 282.73C218.085 282.448 218 282.166 217.93 281.891C217.887 281.75 217.852 281.616 217.824 281.482C217.789 281.348 217.761 281.222 217.732 281.095C216.992 277.472 218.282 274.138 219.516 270.818C219.325 268.992 219.114 266.8 219.114 266.581C217.927 264.892 216.645 263.273 215.272 261.732C215.857 267.38 215.878 273.073 215.336 278.726Z" fill="#E3F6FF"/>
<path d="M232.432 294.712L214.843 305.361L212.944 304.213L230.548 293.563L232.432 294.712Z" fill="#6095B8"/>
<path d="M214.846 305.359V317.945L232.432 307.304V294.718L214.846 305.359Z" fill="#6095B8"/>
<path d="M214.846 305.359V311.12L232.432 300.48V294.712L214.846 305.359Z" fill="#5990AE"/>
<path d="M220.966 306.595V308.347L221.201 308.464L226.31 305.113L226.545 303.48L226.31 303.362L220.966 306.595Z" fill="#497790"/>
<path d="M221.202 306.713V308.464L226.546 305.231V303.48L221.202 306.713Z" fill="#3D5E73"/>
<path d="M214.843 305.361V317.942L212.944 316.795V304.213L214.843 305.361Z" fill="#4B79A1"/>
<path d="M225.576 294.829C225.443 294.754 225.293 294.716 225.14 294.718C224.987 294.721 224.838 294.763 224.707 294.842L220.898 297.136C220.586 297.325 220.328 297.591 220.149 297.908C219.97 298.226 219.876 298.584 219.876 298.948V300.976C219.876 300.976 219.851 301.369 220.302 301.323C220.405 301.322 220.506 301.288 220.587 301.225C220.669 301.163 220.729 301.075 220.757 300.976V298.948C220.757 298.735 220.813 298.526 220.917 298.341C221.021 298.156 221.172 298 221.353 297.889L224.905 295.72C224.928 295.706 224.954 295.698 224.98 295.697C225.007 295.697 225.033 295.703 225.057 295.716C225.08 295.729 225.099 295.748 225.113 295.771C225.126 295.794 225.133 295.82 225.133 295.847V297.806C225.133 297.806 225.108 298.199 225.559 298.152C225.662 298.152 225.762 298.118 225.844 298.055C225.926 297.993 225.986 297.905 226.014 297.806V295.578C226.014 295.426 225.973 295.276 225.896 295.145C225.819 295.013 225.709 294.904 225.576 294.829Z" fill="#3D5E73"/>
<path d="M220.73 297.25L221.785 296.609L221.858 296.564C221.909 296.526 221.968 296.5 222.03 296.488C222.093 296.477 222.157 296.479 222.219 296.495C222.39 296.68 222.509 296.907 222.564 297.152C222.603 297.273 222.626 297.399 222.633 297.526C222.635 297.956 222.545 298.383 222.369 298.776C223.172 298.639 223.95 298.379 224.674 298.005C225.538 297.603 225.757 297.25 225.769 297.096C225.765 297.063 225.765 297.027 225.757 296.982C225.714 296.68 225.654 296.381 225.578 296.085C225.574 296.065 225.574 296.049 225.57 296.037L225.558 295.996C225.28 294.997 225.086 293.977 224.978 292.945L222.065 291.192C222.065 291.192 221.971 293.087 221.939 294.191C221.927 294.694 220.92 295.587 220.783 295.745C220.726 295.85 220.682 295.962 220.653 296.077V296.085C220.646 296.475 220.672 296.865 220.73 297.25Z" fill="#F2CFA4"/>
<path d="M225.465 267.533C225.465 267.533 226.818 273.722 226.818 274.768C226.818 275.813 223.354 277.628 221.372 277.143C220.59 276.706 217.958 270.564 217.958 270.564" fill="white"/>
<path d="M214.601 260.027C214.608 262.79 216.696 267.335 217.951 270.564H217.958C220.19 270.17 222.342 269.415 224.33 268.329C223.372 264.763 221.948 260.117 221.222 257.77C220.98 256.996 220.557 256.29 219.988 255.712C219.944 255.704 219.899 255.699 219.854 255.698C217.81 255.648 214.587 257.052 214.601 260.027Z" fill="white"/>
<path d="M212.495 250.087L213.292 250.383C214.497 250.855 215.343 251.243 216.013 251.574C216.323 251.729 216.598 251.877 216.844 252.018C217.007 252.11 217.169 252.202 217.317 252.293C217.465 252.385 217.62 252.476 217.768 252.575C217.838 252.617 217.916 252.667 217.986 252.716C217.999 252.728 218.013 252.737 218.029 252.744C218.044 252.758 218.06 252.77 218.078 252.78C218.162 252.836 218.254 252.892 218.346 252.956C218.55 253.09 218.783 253.252 219.022 253.428C219.326 253.647 219.643 253.886 219.967 254.154C220.016 254.189 220.073 254.232 220.122 254.274L220.129 254.281C220.144 254.292 220.158 254.304 220.171 254.316C220.186 254.33 220.214 254.344 220.235 254.366C220.281 254.396 220.324 254.431 220.362 254.471C220.427 254.523 220.488 254.58 220.545 254.64L220.559 254.655C221.03 255.136 221.439 255.673 221.779 256.255C222.005 256.626 222.21 257.009 222.392 257.404C222.533 257.685 222.674 257.989 222.801 258.32C222.815 258.341 223.421 259.976 223.689 260.942C223.724 261.076 223.766 261.203 223.802 261.323C223.985 261.95 224.168 262.62 224.358 263.311C224.739 264.685 225.127 266.137 225.465 267.533C225.119 267.841 224.738 268.109 224.33 268.329C223.752 266.172 222.998 263.621 222.335 261.421C221.905 259.983 221.413 258.675 221.051 257.772C219.709 254.427 213.045 251.25 212.474 250.954C212.488 250.461 212.495 250.087 212.495 250.087Z" fill="white"/>
<path d="M226.818 274.768C227.171 275.453 227.087 282.145 226.199 287.34C225.772 289.328 225.498 291.346 225.378 293.376L221.729 293.229C221.8 290.886 221.75 288.541 221.58 286.203C221.294 283.397 220.821 276.461 220.821 276.461" fill="white"/>
<path d="M206.958 252.171L206.747 253.61L207.877 253.51L206.958 252.171Z" fill="#7EB9F5"/>
<path d="M206.366 252.08V253.709L205.652 253.059L206.366 252.08Z" fill="#7EB9F5"/>
<path d="M207.273 252.89C206.824 252.915 206.383 252.761 206.047 252.461L205.521 253.528L205.694 254.888L206.622 255.259L207.579 254.096" fill="#19667E"/>
<path d="M213.186 250.344L212.474 249.03C210.916 250.507 209.024 251.585 206.958 252.171L207.537 254.191C209.802 253.588 211.795 252.231 213.186 250.344Z" fill="#E3F6FF"/>
<path d="M205.991 250.536C205.974 251.075 206.104 251.609 206.366 252.081L205.521 253.709C205.283 253.192 205.2 252.616 205.283 252.053C205.367 251.489 205.613 250.962 205.991 250.536Z" fill="#E3F6FF"/>
<path d="M206.622 255.259L207.312 274.636C207.312 274.636 205.211 280.51 204.653 280.534C204.095 280.558 202.554 272.995 202.564 270.564C202.574 268.132 205.694 254.888 205.694 254.888" fill="#19667E"/>
<path d="M221.959 298.767C222.095 298.785 222.232 298.787 222.369 298.775C223.172 298.639 223.95 298.379 224.674 298.005C225.538 297.603 225.757 297.25 225.769 297.096V297.067C225.769 297.051 225.761 297.019 225.757 296.982C225.716 296.767 225.619 296.28 225.578 296.085C225.574 296.065 225.574 296.049 225.57 296.037L225.562 295.996H225.558L222.568 297.152H222.564L221.375 297.879C221.375 297.879 221.265 298.67 221.959 298.767Z" fill="#F2CFA4"/>
<path d="M387.748 196.096L386.995 198.457C386.995 198.457 384.554 197.886 379.799 196.418C379.613 196.357 379.424 196.301 379.231 196.24C377.328 195.646 375.395 194.92 373.692 194.205C371.782 193.518 369.967 192.592 368.289 191.45C367.178 189.691 366.157 187.876 365.229 186.013L373.015 187.379C373.015 187.379 373.59 187.712 374.445 188.215C374.892 188.473 375.414 188.783 375.97 189.112C377.487 190.012 379.265 191.079 380.434 191.832C382.792 193.357 387.748 196.096 387.748 196.096Z" fill="#C5FFFD"/>
<path d="M380.147 195.99L379.799 196.418C379.613 196.357 379.424 196.301 379.231 196.24C377.328 195.646 375.395 194.92 373.692 194.205C373.526 193.641 373.431 193.059 373.408 192.472C373.488 192.082 374.199 189.123 374.445 188.215C374.892 188.473 375.414 188.783 375.97 189.112C375.796 190.141 375.357 193.085 375.845 193.86C376.435 194.806 380.147 195.99 380.147 195.99Z" fill="#90F4EF"/>
<path d="M364.164 257.57C364.164 257.57 363.555 258.53 363.497 258.63C363.853 259.226 364.298 259.764 364.817 260.226C365.168 260.532 365.542 260.812 365.935 261.062L366.154 260.86C366.411 261.024 366.645 261.222 366.851 261.447C367.528 262.166 368.241 262.851 368.988 263.498C369.855 264.281 370.951 264.766 372.113 264.882C373.335 264.936 373.86 264.189 373.831 263.691C373.716 263.284 373.55 262.893 373.338 262.526" fill="#3C3C82"/>
<path d="M369.172 255.777C369.796 256.459 370.304 257.238 370.676 258.084C371.651 259.95 373.813 262.284 373.961 263.242C374.089 264.065 373.512 264.667 372.132 264.654C370.729 264.64 368.939 263.079 367.923 261.808C366.906 260.538 364.124 258.895 363.943 258.091C363.709 257.054 364.8 255.769 365.155 255.475C365.511 255.182 366.397 254.146 369.172 255.777Z" fill="white"/>
<path d="M369.87 255.563L369.471 257.023C369.24 257.152 368.982 257.225 368.718 257.237C368.453 257.248 368.19 257.198 367.948 257.09C367.135 256.848 365.967 256.215 365.793 255.159C365.793 255.159 365.912 254.692 366.085 254.059" fill="#E2BD9B"/>
<path d="M379.064 234.851C377.836 238.782 369.781 256.055 369.781 256.055C369.513 256.072 369.243 256.067 368.976 256.041C367.835 255.922 366.745 255.506 365.815 254.834C365.815 254.834 366.856 246.563 367.87 242.741C368.875 238.918 371.563 235.167 371.06 233.946C370.816 233.357 369.716 230.13 368.638 226.926C368.624 226.883 368.61 226.833 368.588 226.775C368.582 226.759 368.577 226.742 368.574 226.725C367.424 223.319 366.318 220.014 366.318 220.014L366.382 217.132L366.54 209.911L374.76 206.598C374.847 206.771 374.933 206.951 375.019 207.137C377.864 213.496 380.257 231.029 379.064 234.851Z" fill="#19667E"/>
<path d="M369.245 228.726C368.096 225.32 366.318 220.014 366.318 220.014L366.382 217.132L367.969 215.641C367.969 215.641 367.929 218.814 368.158 221.345C368.335 223.829 368.698 226.296 369.245 228.726Z" fill="#2A2A68"/>
<path d="M368.843 267.658L357.296 264.735C357.269 265.01 357.269 265.287 357.296 265.563C358.066 265.994 358.868 266.365 359.696 266.671C359.786 266.717 359.836 266.717 359.867 266.696L360.134 266.628C360.412 266.823 360.877 267.144 361.343 267.449C362.218 268.05 363.163 268.543 364.157 268.916C365.285 269.34 366.501 269.472 367.694 269.3C368.784 269.04 369.06 268.137 368.843 267.658Z" fill="#3C3C82"/>
<path d="M358.279 260.369C358.279 260.369 357.242 260.802 357.158 264.205C357.174 264.527 357.31 264.832 357.54 265.059C357.899 265.35 359.134 265.665 359.987 266.181C361.54 267.351 363.268 268.268 365.107 268.898C365.712 269.131 366.365 269.209 367.007 269.127C367.65 269.045 368.262 268.804 368.789 268.427C369.171 268 368.969 267.08 368.183 266.541C366.489 265.141 364.9 263.621 363.426 261.992C362.91 261.368 362.336 260.794 361.711 260.278C361.621 260.121 359.02 260.728 358.279 260.369Z" fill="white"/>
<path d="M358.08 257.427C358.198 258.529 358.26 259.636 358.267 260.744C358.2 261.461 361.268 261.895 362.107 260.937C362.107 260.937 362.241 259.275 362.271 258.138" fill="#F2CFA4"/>
<path d="M356.712 208.332C355.548 210.395 354.905 212.709 354.836 215.076C354.915 217.626 355.349 220.152 356.124 222.581C356.819 226.883 356.964 231.256 356.557 235.594C356.073 238.61 355.975 241.675 356.264 244.715C356.477 248.467 357.549 259.294 357.549 259.294C358.323 259.794 359.221 260.066 360.142 260.079C361.063 260.092 361.969 259.846 362.757 259.368C362.757 259.368 363.523 240.602 364.538 237.718C366.774 231.371 366.991 218.863 367.856 216.411C368.49 213.939 368.733 211.384 368.577 208.837C368.577 207.178 356.712 208.332 356.712 208.332Z" fill="#19667E"/>
<path d="M374.969 201.993C375.17 203.459 375.349 204.817 375.493 206.002C375.533 206.318 375.47 206.638 375.314 206.915C375.157 207.192 374.915 207.412 374.624 207.54C369.502 209.347 364.157 210.443 358.737 210.795C358.637 210.795 358.543 210.795 358.457 210.788C356.165 210.694 355.619 209.681 355.518 208.984V208.97C355.518 208.754 355.525 208.539 355.54 208.323C355.592 207.329 355.754 206.343 356.021 205.384C356.086 205.133 356.15 204.881 356.215 204.637C356.294 204.35 356.38 204.062 356.452 203.782C356.495 203.638 356.531 203.502 356.56 203.365C356.596 203.229 356.625 203.099 356.653 202.97C357.408 199.277 356.093 195.878 354.835 192.494C354.483 191.552 354.138 190.604 353.844 189.648C353.226 187.622 352.615 185.589 352.119 183.541C352.069 183.34 352.011 183.131 351.961 182.916C351.641 181.893 351.481 180.826 351.487 179.754C351.616 179.416 351.76 179.107 351.904 178.82C352.09 178.418 352.298 178.027 352.529 177.649C352.874 177.056 353.292 176.508 353.772 176.018L353.786 176.003C353.98 175.831 354.174 175.666 354.375 175.508C354.706 175.235 355.029 174.99 355.338 174.767C355.583 174.588 355.813 174.423 356.028 174.286C356.122 174.221 356.215 174.164 356.301 174.106C356.319 174.096 356.336 174.084 356.351 174.071L356.395 174.049C356.466 173.999 356.546 173.948 356.617 173.898C356.768 173.797 356.926 173.704 357.077 173.611C357.228 173.517 357.393 173.424 357.559 173.33C357.81 173.187 358.09 173.036 358.406 172.878C359.089 172.54 359.951 172.145 361.18 171.663L361.992 171.362C362.164 171.304 362.337 171.247 362.516 171.196C363.357 170.938 364.219 170.729 365.089 170.55C366.432 170.262 367.798 170.047 369.091 169.795C369.321 169.795 369.544 169.802 369.766 169.817C370.672 169.904 371.571 170.058 372.454 170.277C373.417 170.481 374.305 170.945 375.022 171.619C375.739 172.293 376.258 173.151 376.521 174.099C376.592 174.387 376.638 174.68 376.657 174.976C376.83 177.728 373.776 193.298 374.969 201.993Z" fill="white"/>
<path d="M368.101 171.364C368.101 171.364 371.076 172.769 371.615 177.735C372.154 182.701 372.132 192.925 372.214 196.444C372.296 199.963 372.832 211.345 373.116 211.913C373.4 212.48 376.064 211.093 377.468 209.674C377.468 209.674 374.87 199.811 374.913 195.501C374.956 191.191 376.398 180.793 376.664 178.303C376.931 175.812 377.64 171.8 373.904 170.617C371.835 169.918 369.654 169.605 367.472 169.695" fill="#C5FFFD"/>
<path d="M368.281 171.696C368.281 171.696 369.887 173.229 368.604 174.39L367.853 172.775L368.571 172.123" fill="#D5AB80"/>
<path d="M361.838 165.996L362.015 172.242C362.015 172.242 366.708 175.902 368.603 174.39C368.633 173.283 368.624 170.641 368.598 169.113L366.815 168.752L361.838 165.996Z" fill="#E2B888"/>
<path d="M372.028 161.198C372.189 163.131 372.08 165.076 371.704 166.979C371.081 169.74 370.891 170.363 369.778 170.853C368.664 171.343 367.663 171.397 365.793 170.194C364.597 169.377 363.606 168.295 362.898 167.032C362.898 167.032 362.631 167.207 361.962 166.453C361.508 166.026 361.159 165.499 360.942 164.913C360.726 164.328 360.648 163.7 360.716 163.08C360.739 161.062 361.309 159.088 362.363 157.368C363.611 155.275 367.44 155.943 369.177 156.833C369.963 157.284 370.631 157.915 371.127 158.674C371.622 159.432 371.931 160.297 372.028 161.198Z" fill="#F2CFA4"/>
<path d="M372.566 162.481C372.553 162.481 372.553 162.495 372.54 162.495C371.724 162.725 370.867 162.776 370.029 162.642C369.191 162.509 368.393 162.195 367.689 161.722C367.584 161.714 367.478 161.727 367.379 161.761C367.279 161.796 367.188 161.85 367.11 161.922C367.033 161.993 366.971 162.079 366.928 162.176C366.886 162.272 366.863 162.376 366.863 162.481C366.516 163.96 365.49 164.094 364.984 164.36C364.504 164.64 364.384 166.132 364.384 166.132L363.758 166.066C363.769 165.346 363.702 164.626 363.558 163.92C363.49 163.71 363.362 163.524 363.191 163.385C363.019 163.246 362.811 163.159 362.592 163.135C362.372 163.111 362.15 163.151 361.953 163.25C361.756 163.349 361.591 163.503 361.479 163.694C360.933 164.547 361.439 165.573 361.852 166.319L361.866 166.865C361.306 166.386 360.373 165.12 360.146 162.028V162.015C360.173 160.922 359.208 159.927 360.31 158.193C360.937 157.205 361.972 157.284 362.145 156.991C362.704 155.957 363.617 155.159 364.717 154.743C365.817 154.327 367.029 154.322 368.133 154.728C368.886 154.95 369.535 155.435 369.961 156.095C370.392 156.176 370.794 156.367 371.13 156.649C371.466 156.931 371.723 157.295 371.877 157.705C375.166 159.481 374.792 161.675 372.566 162.481Z" fill="#002936"/>
<path d="M359.096 200.556C359.172 201.515 359.172 202.478 359.096 203.437C358.592 205.856 358.471 208.339 358.737 210.795C358.637 210.795 358.543 210.795 358.457 210.788C356.165 210.694 355.619 209.681 355.518 208.984V208.97C355.518 208.754 355.525 208.539 355.54 208.323C355.592 207.329 355.754 206.343 356.021 205.384C356.086 205.133 356.158 204.888 356.222 204.644L356.215 204.637C356.294 204.35 356.38 204.062 356.452 203.782C356.495 203.638 356.531 203.502 356.56 203.365C356.596 203.229 356.625 203.099 356.653 202.97C357.408 199.277 356.093 195.878 354.835 192.494C355.029 190.633 355.245 188.398 355.245 188.175C356.455 186.454 357.762 184.803 359.161 183.232C358.565 188.99 358.543 194.793 359.096 200.556Z" fill="#DA9C30"/>
<path d="M366.099 193.565C366.099 195.158 366.114 198.703 366.046 202.328C366.038 202.68 366.031 203.035 366.019 203.391C366.099 206.47 365.833 209.549 365.229 212.57C364.517 214.189 360.208 213.625 356.852 212.539C355.828 212.212 354.826 211.82 353.852 211.366C353.852 211.366 355.982 204.174 355.932 200.72C355.685 197.965 355.103 195.252 354.2 192.638C353.598 190.671 352.966 188.828 352.527 187.527C351.441 184.311 349.618 179.343 353.78 175.726C356.231 173.786 359.014 172.308 361.994 171.363C362.001 172.171 362.171 172.969 362.493 173.709C362.889 174.843 363.419 175.925 364.071 176.933C366.337 180.414 366.099 190.005 366.099 193.565Z" fill="#C5FFFD"/>
<path d="M358.653 202.328C358.606 200.081 358.202 196.702 358.267 193.652C358.279 193.045 358.287 192.441 358.292 191.855C358.302 190.699 358.463 189.55 358.771 188.436C359.855 184.512 359.161 182.906 359.161 182.906L356.532 187.225C356.532 187.225 356.525 187.38 356.519 187.631L354.835 188.662C354.835 188.662 354.552 190.421 354.2 192.638C355.103 195.252 355.685 197.965 355.932 200.72C355.982 204.174 353.852 211.366 353.852 211.366C354.826 211.82 355.828 212.212 356.852 212.539C357.113 211.422 358.061 207.308 358.465 204.804C358.511 204.485 358.657 204.189 358.88 203.958C359.104 203.726 359.394 203.57 359.711 203.512L359.739 203.508C360.548 203.387 364.816 203.387 366.019 203.391C366.031 203.035 366.038 202.68 366.046 202.328H358.653Z" fill="#90F4EF"/>
<path d="M349.233 188.662C349.233 188.662 347.43 197.214 347.43 198.28C347.43 199.345 350.298 199.879 352.318 199.385C354.338 198.891 356.297 190.805 356.297 190.805" fill="#F2CFA4"/>
<path d="M359.846 181.494C359.839 184.311 357.71 188.944 356.431 192.235H356.423C354.149 191.834 351.955 191.064 349.928 189.957C350.905 186.321 352.357 181.586 353.096 179.194C353.343 178.404 353.774 177.685 354.354 177.095C354.399 177.087 354.445 177.083 354.491 177.081C356.574 177.031 359.86 178.462 359.846 181.494Z" fill="#E9AC38"/>
<path d="M350.833 184.116C350.912 183.498 350.999 182.923 351.07 182.391C350.999 182.923 350.92 183.498 350.833 184.116Z" fill="#CD6158"/>
<path d="M351.473 179.697C351.466 179.733 351.458 179.783 351.451 179.834L351.444 179.841C351.451 179.79 351.466 179.74 351.473 179.697Z" fill="#CD6158"/>
<path d="M351.444 179.841C351.451 179.79 351.466 179.74 351.473 179.697C351.466 179.733 351.458 179.783 351.451 179.834L351.444 179.841Z" fill="#CD6158"/>
<path d="M368.587 199.805C368.794 199.885 368.968 200.033 369.08 200.225C369.191 200.417 369.233 200.642 369.198 200.861C369.152 201.526 368.639 203.289 366.999 203.179C364.896 203.037 366.196 200.026 367.59 199.563" fill="#90F4EF"/>
<path d="M371.18 200.403C370.563 200.377 369.949 200.308 369.342 200.195L368.101 202.915C368.706 203.05 369.146 203.867 369.819 204.032C370.23 204.132 370.648 204.201 371.07 204.238C370.982 204.317 370.927 204.425 370.914 204.541C370.901 204.658 370.933 204.776 371.002 204.871C371.615 205.208 372.296 205.405 372.995 205.448C373.545 205.531 374.15 205.022 374.551 204.5C374.987 203.813 375.17 202.997 375.071 202.19C374.785 201.786 374.463 201.409 374.11 201.063C373.596 200.732 373.028 200.494 372.432 200.36C372.432 200.36 371.363 200.393 371.18 200.403Z" fill="#F2CFA4"/>
<path d="M377.343 203.323C378.222 203.539 378.531 203.179 378.395 203.003C378.26 202.827 374.446 200.904 373.853 200.664C373.39 200.518 372.914 200.416 372.432 200.36L372.214 200.427C372.706 200.943 373.129 201.522 373.471 202.148L375.259 202.552C375.933 202.861 376.63 203.119 377.343 203.323Z" fill="#F2CFA4"/>
<path d="M393.572 186.129L392.669 185.454L392.668 185.458C392.634 185.429 392.593 185.411 392.549 185.406C392.505 185.402 392.46 185.411 392.422 185.433L380.038 192.471C379.706 192.66 379.434 192.939 379.254 193.276L370.198 210.264C370.16 210.333 370.146 210.413 370.159 210.491C370.172 210.569 370.211 210.64 370.269 210.693L371.173 211.365L372.416 209.766L382.801 203.862C383.051 203.72 383.255 203.51 383.39 203.257L392.031 187.04L393.572 186.129Z" fill="white"/>
<path d="M393.644 186.416L384.306 203.941C384.171 204.194 383.967 204.404 383.717 204.546L371.609 211.43C371.542 211.469 371.463 211.484 371.386 211.474C371.308 211.464 371.236 211.43 371.181 211.375C371.125 211.321 371.088 211.25 371.076 211.173C371.064 211.096 371.077 211.017 371.114 210.948L380.17 193.96C380.35 193.623 380.622 193.344 380.954 193.155L393.338 186.118C393.38 186.094 393.428 186.084 393.476 186.09C393.524 186.097 393.568 186.118 393.603 186.152C393.637 186.185 393.66 186.229 393.668 186.277C393.675 186.324 393.667 186.373 393.644 186.416Z" fill="url(#paint58_linear_62_2650)"/>
<path d="M388.803 195.501C388.803 195.501 387.679 196.002 386.881 196.461C386.414 196.671 385.073 197.316 384.996 197.819C384.965 198.017 385.082 198.091 385.246 198.111C384.812 198.372 384.413 198.679 384.372 198.947C384.327 199.237 384.589 199.273 384.874 199.235C384.823 199.298 384.788 199.372 384.772 199.45C384.731 199.718 384.95 199.767 385.207 199.744C385.26 200.157 386.164 199.839 386.317 199.781C386.406 199.751 387.022 199.515 387.119 199.483C387.993 199.2 389.747 195.99 388.803 195.501Z" fill="#F2CFA4"/>
<path d="M348.525 192.105C348.525 192.105 346.715 199.905 347.585 201.076C349.289 203.372 368.964 202.899 368.964 202.899L370.72 200.561L354.037 196.127" fill="#F2CFA4"/>
<path d="M351.719 178.537C351.719 178.537 349.997 183.458 348.46 189.133C346.923 194.808 345.591 200.195 346.883 201.875C347.758 203.012 366.999 203.179 366.999 203.179C366.999 203.179 366.136 203.172 366.893 201.122C367.236 200.191 368.101 199.679 368.586 199.805L363.988 198.245L355.084 195.73C355.084 195.73 358.675 187.576 359.59 184.657C360.504 181.739 360.126 179.248 358.203 177.987C356.279 176.726 353.243 175.997 351.719 178.537Z" fill="#C5FFFD"/>
<path style="mix-blend-mode:hard-light" opacity="0.3" d="M338.309 51.5894V128.745L254.544 77.1554V0L338.309 51.5894Z" fill="url(#paint59_linear_62_2650)"/>
<path d="M334.649 55.0681V121.856L257.969 74.6546V49.636C260.345 46.8333 263.499 44.7974 267.031 43.7854C279.669 40.7704 281.522 63.7489 292.675 67.6989C302.361 71.1296 318.726 48.7493 334.649 55.0681Z" fill="url(#paint60_linear_62_2650)"/>
<path d="M257.563 5.98505V74.8814L335.056 122.583V53.6868L257.563 5.98505ZM289.07 26.3344L303.604 35.2809V102.268L289.07 93.3215V26.3344ZM288.257 92.8208L273.723 83.8742V16.8872L288.257 25.8338V92.8208ZM304.417 35.7815L318.951 44.728V111.715L304.417 102.769V35.7815ZM258.376 7.44005L272.91 16.3866V83.3737L258.376 74.4271V7.44005ZM334.242 121.128L319.764 112.216V45.2286L334.242 54.141V121.128Z" fill="url(#paint61_linear_62_2650)"/>
<path style="mix-blend-mode:hard-light" opacity="0.6" d="M450.981 171.149V251.984L371.485 300.755V219.92L450.981 171.149Z" fill="url(#paint62_linear_62_2650)"/>
<path d="M447.761 182.502V250.255L447.58 250.361L374.8 295.017V294.126L447.007 249.833V182.955L447.761 182.502Z" fill="url(#paint63_linear_62_2650)"/>
<path d="M393.26 217.977V277.204L380.921 284.772V225.547L393.26 217.977Z" fill="url(#paint64_linear_62_2650)"/>
<path d="M410.05 226.478V266.907L397.716 274.47V234.057L410.05 226.478Z" fill="url(#paint65_linear_62_2650)"/>
<path d="M426.838 208.362V256.611L414.504 264.174V215.926L426.838 208.362Z" fill="url(#paint66_linear_62_2650)"/>
<path d="M443.61 220.334V246.315L431.291 253.879V227.897L443.61 220.334Z" fill="url(#paint67_linear_62_2650)"/>
<path style="mix-blend-mode:hard-light" opacity="0.6" d="M501.183 212.861V229.848L484.478 240.095V223.11L501.183 212.861Z" fill="url(#paint68_linear_62_2650)"/>
<path style="mix-blend-mode:hard-light" opacity="0.6" d="M258.472 270.454V287.441L241.768 297.689V280.704L258.472 270.454Z" fill="url(#paint69_linear_62_2650)"/>
<path style="mix-blend-mode:hard-light" opacity="0.6" d="M211.564 58.3104V81.1212L189.13 94.8832V72.0739L211.564 58.3104Z" fill="url(#paint70_linear_62_2650)"/>
<path style="mix-blend-mode:hard-light" opacity="0.6" d="M125.201 137.501V148.864L114.027 155.719V144.356L125.201 137.501Z" fill="url(#paint71_linear_62_2650)"/>
<path style="mix-blend-mode:hard-light" opacity="0.6" d="M88.1134 366.989V378.352L76.939 385.208V373.844L88.1134 366.989Z" fill="url(#paint72_linear_62_2650)"/>
<path style="mix-blend-mode:hard-light" opacity="0.6" d="M369.081 73.7753V85.1369L357.906 91.9923V80.6306L369.081 73.7753Z" fill="url(#paint73_linear_62_2650)"/>
<path style="mix-blend-mode:hard-light" opacity="0.6" d="M96.5539 182.801V199.786L79.8496 210.035V193.049L96.5539 182.801Z" fill="url(#paint74_linear_62_2650)"/>
<path style="mix-blend-mode:hard-light" opacity="0.6" d="M127.602 222.383V301.654L205.563 349.483V270.211L127.602 222.383Z" fill="url(#paint75_linear_62_2650)"/>
<path d="M139.583 286.188V290.257L193.581 323.384V319.314L139.583 286.188Z" fill="url(#paint76_linear_62_2650)"/>
<path d="M139.583 293.783V297.853L193.581 330.98V326.909L139.583 293.783Z" fill="url(#paint77_linear_62_2650)"/>
<path d="M162.319 255.79C162.319 255.79 157.546 259.94 143.888 251.495C143.888 251.495 145.401 279.009 162.319 293.194C179.236 299.93 180.749 274.287 180.749 274.287C167.091 265.842 162.319 255.79 162.319 255.79Z" fill="url(#paint78_linear_62_2650)"/>
<path d="M258.164 158.966V159.042C258.17 159.37 258.06 159.689 257.853 159.944C256.818 160.825 255.558 161.401 254.214 161.606C254.187 161.613 254.16 161.617 254.132 161.62C252.871 161.817 251.457 161.892 250.844 161.957C250.43 161.996 250.019 162.068 249.616 162.172V162.312C249.046 162.457 248.465 162.554 247.879 162.602H247.872C247.216 162.668 246.557 162.521 245.992 162.182C245.717 161.948 245.534 161.623 245.476 161.266L245.483 160.933V160.779L247.127 160.664H247.134L247.947 160.607L248.699 160.56L249.398 160.514L258.164 158.966Z" fill="#101049"/>
<path d="M251.027 157.226C251.906 157.553 252.827 157.753 253.762 157.819C255.094 157.714 256.434 157.84 257.723 158.192C257.851 158.265 257.96 158.369 258.038 158.494C258.116 158.619 258.162 158.762 258.171 158.909C258.165 160.447 254.537 161.378 252.356 161.55C251.241 161.597 250.13 161.703 249.026 161.866C248.118 162.098 247.163 162.074 246.268 161.797C245.752 161.417 245.409 160.848 245.313 160.215C245.216 159.582 245.375 158.937 245.754 158.421C246.443 157.302 251.027 157.226 251.027 157.226Z" fill="#FBFBF9"/>
<path d="M246.293 155.816C246.293 155.816 246.211 157.532 246.188 157.838C246.166 158.144 246.004 158.419 246.05 158.693C246.125 159.129 246.744 159.821 248.664 159.622C249.22 159.586 249.76 159.424 250.244 159.148C250.727 158.871 251.141 158.487 251.453 158.025C251.617 157.551 251.25 157.474 251.183 157.294C251.079 157.008 251.185 154.456 250.993 155.324" fill="#E8CAAF"/>
<path d="M248.437 151.038C248.532 151.516 248.51 152.01 248.372 152.477C248.136 153.139 247.756 153.739 247.258 154.234C246.727 154.805 246.123 155.305 245.462 155.719C244.94 156.038 244.438 156.39 243.96 156.772C243.564 157.207 243.205 157.675 242.89 158.171V158.468C242.475 158.954 241.967 159.352 241.396 159.638C240.508 160.042 239.501 160.1 238.572 159.801C238.246 159.664 237.962 159.444 237.748 159.162C237.535 158.879 237.4 158.546 237.358 158.195C237.34 157.855 237.34 157.515 237.358 157.176" fill="#101049"/>
<path d="M241.732 152.133C242.886 151.764 243.989 151.253 245.017 150.613C246.651 149.442 247.843 149.74 248.251 150.436C248.665 151.144 248.829 153.482 245.35 155.512C244.384 156.007 243.559 156.738 242.95 157.635C242.535 158.254 241.973 158.76 241.314 159.107C240.749 159.375 240.122 159.482 239.501 159.418C237.118 159.224 236.62 156.813 237.782 154.987C238.816 153.696 240.181 152.709 241.732 152.133Z" fill="#FBFBF9"/>
<path d="M238.121 153.196L238.03 154.991C237.895 155.225 237.841 155.497 237.876 155.766C237.993 156.252 239.371 157.187 241.258 156.194C243.373 155.08 243.026 154.33 243.04 154.24C242.878 153.741 242.811 153.216 242.842 152.692" fill="#E8CAAF"/>
<path d="M236.218 136.558C235.945 142.295 237.811 153.717 237.811 153.717C237.811 153.717 238.911 155.51 243.159 153.133C243.159 153.133 243.81 135.969 244.527 131.12C244.709 129.792 244.973 128.478 245.32 127.184V127.173C246.263 124.14 246.836 121.004 247.025 117.834C246.995 113.443 246.703 109.059 246.15 104.703C245.62 99.774 245.052 95.517 245.052 95.517C242.299 95.5044 239.649 94.466 237.62 92.6046C237.62 92.6046 232.555 99.4769 235.773 106.702C236.501 108.377 236.937 110.163 237.062 111.984C237.251 114.418 237.485 117.752 237.606 120.657C237.801 125.369 238.145 126.714 237.943 127.26C236.85 130.24 236.267 133.384 236.218 136.558Z" fill="#19667E"/>
<path d="M242.14 110.932C243.799 116.211 244.866 121.658 245.32 127.173C246.263 124.14 246.836 121.004 247.025 117.834C246.995 113.443 246.703 109.059 246.15 104.703C244.527 103.43 241.588 101.096 241.588 101.096C241.588 101.096 240.702 107.249 242.14 110.932Z" fill="#161143"/>
<path d="M254.334 94.9287C255.503 99.7097 256.234 104.587 256.519 109.501C256.861 116.946 255.206 127.602 254.864 130.129C254.523 132.656 253.697 136.598 252.997 142.879C252.339 148.795 251.821 156.355 251.821 156.355C251.821 156.355 247.533 158.796 245.859 156.679C245.859 156.679 244.823 139.919 245.302 134.728C245.78 129.537 246.85 129.173 246.713 127.465C246.577 125.757 245.044 112.779 244.224 111.55C242.627 109.16 241.696 106.387 241.528 103.517C241.36 100.647 241.96 97.7848 243.268 95.2247C246.934 95.931 250.71 95.83 254.334 94.9287Z" fill="#19667E"/>
<path d="M246.708 76.0918L247.085 75.9323L247.436 76.0492L256.896 61.5084C256.987 61.368 257.128 61.2674 257.291 61.2268C257.453 61.1862 257.625 61.2086 257.772 61.2895L277.248 72.0434L277.77 71.7879L278.044 72.6222L278.034 72.6246C278.075 72.712 278.093 72.8083 278.087 72.9046C278.081 73.0009 278.051 73.0942 277.999 73.1758L268.238 88.1795C268.136 88.3359 267.979 88.4481 267.798 88.4933C267.617 88.5385 267.425 88.5135 267.262 88.4233L247.282 77.3921C247.208 77.35 247.144 77.2912 247.096 77.2203C247.048 77.1494 247.017 77.0684 247.006 76.9836L247 76.9872L246.708 76.0918Z" fill="#F8FAFF"/>
<path d="M246.965 76.3951L266.944 87.4263C267.108 87.5165 267.299 87.5416 267.48 87.4963C267.662 87.4511 267.819 87.339 267.921 87.1825L277.682 72.1788C277.726 72.1113 277.755 72.0355 277.768 71.956C277.782 71.8766 277.779 71.7953 277.759 71.7172C277.74 71.639 277.704 71.5658 277.655 71.5019C277.606 71.4381 277.544 71.385 277.474 71.3461L257.455 60.2926C257.308 60.2116 257.136 60.1892 256.974 60.2298C256.811 60.2704 256.67 60.371 256.579 60.5115L246.765 75.5952C246.723 75.66 246.695 75.7329 246.682 75.8092C246.669 75.8855 246.672 75.9636 246.691 76.0386C246.71 76.1137 246.744 76.1841 246.791 76.2454C246.838 76.3068 246.897 76.3577 246.965 76.3951Z" fill="url(#paint79_linear_62_2650)"/>
<path d="M247.908 76.2387L266.653 86.5888C266.806 86.6734 266.986 86.6969 267.156 86.6544C267.326 86.612 267.473 86.5068 267.569 86.36L276.727 72.2828C276.768 72.2195 276.796 72.1483 276.808 72.0738C276.821 71.9993 276.818 71.923 276.8 71.8497C276.781 71.7764 276.748 71.7076 276.702 71.6477C276.656 71.5878 276.598 71.5381 276.532 71.5016L257.749 61.1309C257.612 61.0548 257.45 61.0337 257.298 61.0718C257.145 61.1099 257.013 61.2043 256.927 61.336L247.72 75.4883C247.681 75.5491 247.654 75.6174 247.642 75.689C247.63 75.7606 247.633 75.8339 247.65 75.9043C247.668 75.9747 247.7 76.0407 247.744 76.0983C247.788 76.1558 247.844 76.2036 247.908 76.2387Z" stroke="#F8FAFF" stroke-width="0.15176" stroke-miterlimit="10"/>
<path d="M268.579 80.7927C268.793 80.5602 268.969 80.2953 269.1 80.0077C269.177 79.5656 269.354 79.147 269.618 78.7842C269.992 78.3196 271.06 76.4786 271.275 76.6032C271.44 76.7854 271.552 77.0099 271.598 77.2519C271.644 77.4938 271.623 77.7438 271.535 77.9741C271.366 78.6878 271.071 79.1524 271.06 79.3337C271.048 79.515 272.282 79.5437 273.031 79.2973C273.737 78.8999 274.387 78.4094 274.962 77.8388C275.246 77.8358 274.85 80.0111 274.68 80.6738C274.152 81.5086 273.525 82.2759 272.812 82.9587" fill="#E8CAAF"/>
<path d="M247.896 73.3945L250.113 71.2498C250.408 70.9644 250.75 70.7322 251.125 70.5638C251.495 70.4065 251.846 70.2071 252.17 69.9696C252.654 69.4472 253.034 68.8383 253.292 68.1749C253.496 67.7671 254.672 66.6479 254.791 66.3419C254.91 66.0359 254.873 65.4622 254.457 65.5005C253.674 65.9303 252.95 66.4605 252.304 67.0777L253.146 65.7836C252.21 65.8653 251.293 66.0938 250.428 66.4608C249.425 66.9875 249.171 68.3869 248.78 68.7268C248.389 69.0668 245.721 71.1512 245.721 71.1512" fill="#E8CAAF"/>
<path d="M252.312 51.4608C252.503 52.201 252.508 52.9772 252.326 53.7198C252.144 54.4624 251.781 55.1483 251.269 55.7163C249.523 57.3523 250.285 52.144 250.285 52.144" fill="#2D166D"/>
<path d="M241.571 70.8701L247.625 70.1706L248.538 70.4877C248.327 68.5541 248.296 66.6052 248.444 64.6659C248.446 64.5495 248.476 64.4354 248.531 64.333C248.586 64.2306 248.665 64.143 248.762 64.0776C248.858 64.0123 248.968 63.9711 249.084 63.9575C249.199 63.9439 249.317 63.9584 249.425 63.9996C249.874 64.2294 250.383 64.314 250.882 64.2418C251.926 63.5587 251.992 59.1872 251.893 57.0833C251.789 54.8865 251.587 52.4275 251.587 52.4275C250.991 51.7227 245.522 52.3948 243.702 53.6626C241.877 54.9194 241.992 62.2527 242.063 63.6242C242.139 64.9959 242.063 68.2581 242.063 68.2581L241.571 70.8701Z" fill="#E8CAAF"/>
<path d="M238.033 87.2382C238.088 89.861 237.512 92.4588 236.354 94.8123C239.529 97.0426 243.202 98.4618 247.051 98.9457C249.752 99.3879 252.524 98.9472 254.954 97.6892C254.954 97.6892 254.191 93.8612 253.874 90.7258C253.767 89.8257 253.724 88.9193 253.745 88.0131C253.803 86.7802 254.121 84.4668 254.414 82.0595C254.813 78.7833 255.166 75.3074 254.743 74.0274C254.015 71.7963 248.507 68.3087 248.507 68.3087C248.507 68.3087 241.908 68.7548 242.061 66.8642C240.325 66.5764 238.548 66.6605 236.847 67.1108C235.203 67.8742 234.933 72.3834 235.438 76.1646C235.931 79.9458 237.763 83.4099 238.033 87.2382Z" fill="#FBFBF9"/>
<path d="M248.531 78.3253C249.174 81.3499 249.981 84.337 250.95 87.2734C250.95 87.2734 251.502 87.3087 252.3 87.2734L253.874 90.7258C253.767 89.8257 253.724 88.9192 253.745 88.0131C253.803 86.7802 254.12 84.4668 254.414 82.0595L254.156 81.1905L248.531 78.3253Z" fill="#E8E8E8"/>
<path d="M251.981 84.3241C251.981 84.3241 254.521 89.3984 255.538 90.9479C256.806 92.878 257.465 93.6083 259.841 91.8828V91.8881C259.841 91.8881 268.749 83.7091 269.581 83.6276C270.419 83.5459 270.555 83.6819 271.468 83.5459C271.967 83.4967 272.437 83.2912 272.811 82.9587C271.949 81.7809 271.279 80.474 270.826 79.0865C270.147 79.5216 268.884 80.5803 268.047 81.0716C267.185 81.5778 261.864 84.4161 259.058 86.0258C258.835 85.509 257.912 82.7899 257.716 82.3059C257.71 82.3222 252.112 84.4002 251.981 84.3241Z" fill="#E8CAAF"/>
<path d="M254.743 74.0271L258.393 83.0663C258.393 83.0663 255.297 86.2767 251.927 86.2767C251.927 86.2767 248.404 79.651 248.208 76.6456" fill="#FBFBF9"/>
<path d="M242.084 65.7508L241.765 66.8219C241.79 67.1784 241.92 67.5195 242.138 67.8028C242.355 68.0861 242.652 68.2989 242.99 68.4146C244.922 68.9976 246.973 69.058 248.936 68.5896L248.479 67.1408C248.479 67.1408 244.208 67.7658 242.084 65.7508Z" fill="#FBFBF9"/>
<path d="M238.213 54.4426C238.786 50.5125 241.571 47.1849 248.186 48.295C249.574 48.5281 252.632 49.7308 252.325 52.2239C252.017 54.7169 249.32 54.0114 249.326 56.782C249.33 58.6948 249.582 58.6804 248.84 58.4726C247.499 58.0969 247.425 60.4892 247.467 63.368C247.504 65.9041 247.787 69.9705 248.936 71.3941C248.709 71.6673 238.666 69.1308 237.464 68.1744C237.416 63.5857 237.666 58.9988 238.213 54.4426Z" fill="#002936"/>
</g>
<defs>
<filter id="filter0_d_62_2650" x="0.869141" y="0" width="534.336" height="490.793" filterUnits="userSpaceOnUse" color-interpolation-filters="sRGB">
<feFlood flood-opacity="0" result="BackgroundImageFix"/>
<feColorMatrix in="SourceAlpha" type="matrix" values="0 0 0 0 0 0 0 0 0 0 0 0 0 0 0 0 0 0 127 0" result="hardAlpha"/>
<feOffset dy="4"/>
<feGaussianBlur stdDeviation="2"/>
<feComposite in2="hardAlpha" operator="out"/>
<feColorMatrix type="matrix" values="0 0 0 0 0 0 0 0 0 0 0 0 0 0 0 0 0 0 0.25 0"/>
<feBlend mode="normal" in2="BackgroundImageFix" result="effect1_dropShadow_62_2650"/>
<feBlend mode="normal" in="SourceGraphic" in2="effect1_dropShadow_62_2650" result="shape"/>
</filter>
<linearGradient id="paint0_linear_62_2650" x1="451.386" y1="376.098" x2="492.83" y2="376.098" gradientUnits="userSpaceOnUse">
<stop stop-color="#66BBF2"/>
<stop offset="1" stop-color="#7AF4FD"/>
</linearGradient>
<linearGradient id="paint1_linear_62_2650" x1="467.413" y1="448.841" x2="508.857" y2="448.841" gradientUnits="userSpaceOnUse">
<stop stop-color="#66BBF2"/>
<stop offset="1" stop-color="#7AF4FD"/>
</linearGradient>
<linearGradient id="paint2_linear_62_2650" x1="336.58" y1="464.479" x2="357.736" y2="464.479" gradientUnits="userSpaceOnUse">
<stop stop-color="#66BBF2"/>
<stop offset="1" stop-color="#7AF4FD"/>
</linearGradient>
<linearGradient id="paint3_linear_62_2650" x1="61.1748" y1="240.5" x2="61.1748" y2="354.211" gradientUnits="userSpaceOnUse">
<stop stop-color="#00FF8F" stop-opacity="0"/>
<stop offset="1" stop-color="#00FF8F"/>
</linearGradient>
<linearGradient id="paint4_linear_62_2650" x1="76.23" y1="257" x2="76.23" y2="354" gradientUnits="userSpaceOnUse">
<stop stop-color="#00FF8F" stop-opacity="0"/>
<stop offset="1" stop-color="#00FF8F"/>
</linearGradient>
<linearGradient id="paint5_linear_62_2650" x1="472" y1="307.914" x2="472" y2="388.711" gradientUnits="userSpaceOnUse">
<stop stop-color="#00FF8F" stop-opacity="0"/>
<stop offset="1" stop-color="#00FF8F"/>
</linearGradient>
<linearGradient id="paint6_linear_62_2650" x1="482.697" y1="319.638" x2="482.697" y2="388.561" gradientUnits="userSpaceOnUse">
<stop stop-color="#00FF8F" stop-opacity="0"/>
<stop offset="1" stop-color="#00FF8F"/>
</linearGradient>
<linearGradient id="paint7_linear_62_2650" x1="416.443" y1="92.9016" x2="416.443" y2="156.165" gradientUnits="userSpaceOnUse">
<stop stop-color="#00FF8F" stop-opacity="0"/>
<stop offset="1" stop-color="#00FF8F"/>
</linearGradient>
<linearGradient id="paint8_linear_62_2650" x1="424.819" y1="102.081" x2="424.819" y2="156.048" gradientUnits="userSpaceOnUse">
<stop stop-color="#00FF8F" stop-opacity="0"/>
<stop offset="1" stop-color="#00FF8F"/>
</linearGradient>
<linearGradient id="paint9_linear_62_2650" x1="488" y1="380.591" x2="488" y2="461.387" gradientUnits="userSpaceOnUse">
<stop stop-color="#00FF8F" stop-opacity="0"/>
<stop offset="1" stop-color="#00FF8F"/>
</linearGradient>
<linearGradient id="paint10_linear_62_2650" x1="498.697" y1="392.315" x2="498.697" y2="461.238" gradientUnits="userSpaceOnUse">
<stop stop-color="#00FF8F" stop-opacity="0"/>
<stop offset="1" stop-color="#00FF8F"/>
</linearGradient>
<linearGradient id="paint11_linear_62_2650" x1="347.215" y1="420.154" x2="347.215" y2="471" gradientUnits="userSpaceOnUse">
<stop stop-color="#00FF8F" stop-opacity="0"/>
<stop offset="1" stop-color="#00FF8F"/>
</linearGradient>
<linearGradient id="paint12_linear_62_2650" x1="353.947" y1="427.532" x2="353.947" y2="470.906" gradientUnits="userSpaceOnUse">
<stop stop-color="#00FF8F" stop-opacity="0"/>
<stop offset="1" stop-color="#00FF8F"/>
</linearGradient>
<linearGradient id="paint13_linear_62_2650" x1="400.6" y1="146.61" x2="430.482" y2="146.61" gradientUnits="userSpaceOnUse">
<stop stop-color="#00FF8F"/>
<stop offset="1" stop-color="#61FAB7"/>
</linearGradient>
<linearGradient id="paint14_linear_62_2650" x1="76.939" y1="233.71" x2="99.465" y2="233.71" gradientUnits="userSpaceOnUse">
<stop stop-color="#66BBF2"/>
<stop offset="1" stop-color="#7AF4FD"/>
</linearGradient>
<linearGradient id="paint15_linear_62_2650" x1="115.323" y1="228.07" x2="145.205" y2="228.07" gradientUnits="userSpaceOnUse">
<stop stop-color="#66BBF2"/>
<stop offset="1" stop-color="#7AF4FD"/>
</linearGradient>
<linearGradient id="paint16_linear_62_2650" x1="257.329" y1="395.374" x2="60.6981" y2="374.708" gradientUnits="userSpaceOnUse">
<stop stop-color="#9AFFFF" stop-opacity="0"/>
<stop offset="1" stop-color="#B0FFFD"/>
</linearGradient>
<linearGradient id="paint17_linear_62_2650" x1="67.4369" y1="294.038" x2="71.7279" y2="294.038" gradientUnits="userSpaceOnUse">
<stop stop-color="#9AFFFF"/>
<stop offset="1" stop-color="#B0FFFD"/>
</linearGradient>
<linearGradient id="paint18_linear_62_2650" x1="95.4936" y1="389.291" x2="99.7845" y2="389.291" gradientUnits="userSpaceOnUse">
<stop stop-color="#9AFFFF"/>
<stop offset="1" stop-color="#B0FFFD"/>
</linearGradient>
<linearGradient id="paint19_linear_62_2650" x1="404.666" y1="243.246" x2="404.666" y2="154.904" gradientUnits="userSpaceOnUse">
<stop stop-color="#9AFFFF" stop-opacity="0"/>
<stop offset="1" stop-color="#B0FFFD"/>
</linearGradient>
<linearGradient id="paint20_linear_62_2650" x1="377.799" y1="155.376" x2="382.09" y2="155.376" gradientUnits="userSpaceOnUse">
<stop stop-color="#9AFFFF"/>
<stop offset="1" stop-color="#B0FFFD"/>
</linearGradient>
<linearGradient id="paint21_linear_62_2650" x1="492.92" y1="344.722" x2="492.92" y2="256.38" gradientUnits="userSpaceOnUse">
<stop stop-color="#9AFFFF" stop-opacity="0"/>
<stop offset="1" stop-color="#B0FFFD"/>
</linearGradient>
<linearGradient id="paint22_linear_62_2650" x1="466.054" y1="256.852" x2="470.345" y2="256.852" gradientUnits="userSpaceOnUse">
<stop stop-color="#9AFFFF"/>
<stop offset="1" stop-color="#B0FFFD"/>
</linearGradient>
<linearGradient id="paint23_linear_62_2650" x1="238.383" y1="165.681" x2="238.383" y2="254.023" gradientUnits="userSpaceOnUse">
<stop stop-color="#9AFFFF" stop-opacity="0"/>
<stop offset="1" stop-color="#B0FFFD"/>
</linearGradient>
<linearGradient id="paint24_linear_62_2650" x1="265.249" y1="253.55" x2="260.958" y2="253.55" gradientUnits="userSpaceOnUse">
<stop stop-color="#9AFFFF"/>
<stop offset="1" stop-color="#B0FFFD"/>
</linearGradient>
<linearGradient id="paint25_linear_62_2650" x1="115.533" y1="357.816" x2="3.97187" y2="346.091" gradientUnits="userSpaceOnUse">
<stop stop-color="#B0FFFD"/>
<stop offset="1" stop-color="#9AFFFF" stop-opacity="0"/>
</linearGradient>
<linearGradient id="paint26_linear_62_2650" x1="115.323" y1="338.389" x2="119.614" y2="338.389" gradientUnits="userSpaceOnUse">
<stop stop-color="#9AFFFF"/>
<stop offset="1" stop-color="#B0FFFD"/>
</linearGradient>
<linearGradient id="paint27_linear_62_2650" x1="464.118" y1="253.439" x2="352.557" y2="241.714" gradientUnits="userSpaceOnUse">
<stop stop-color="#B0FFFD"/>
<stop offset="1" stop-color="#9AFFFF" stop-opacity="0"/>
</linearGradient>
<linearGradient id="paint28_linear_62_2650" x1="463.908" y1="234.012" x2="468.199" y2="234.012" gradientUnits="userSpaceOnUse">
<stop stop-color="#9AFFFF"/>
<stop offset="1" stop-color="#B0FFFD"/>
</linearGradient>
<linearGradient id="paint29_linear_62_2650" x1="312.093" y1="411.762" x2="423.655" y2="423.487" gradientUnits="userSpaceOnUse">
<stop stop-color="#B0FFFD"/>
<stop offset="1" stop-color="#9AFFFF" stop-opacity="0"/>
</linearGradient>
<linearGradient id="paint30_linear_62_2650" x1="330.713" y1="383.762" x2="503.858" y2="401.96" gradientUnits="userSpaceOnUse">
<stop stop-color="#9AFFFF" stop-opacity="0"/>
<stop offset="1" stop-color="#B0FFFD"/>
</linearGradient>
<linearGradient id="paint31_linear_62_2650" x1="464.766" y1="441.568" x2="460.475" y2="441.568" gradientUnits="userSpaceOnUse">
<stop stop-color="#9AFFFF"/>
<stop offset="1" stop-color="#B0FFFD"/>
</linearGradient>
<linearGradient id="paint32_linear_62_2650" x1="471.224" y1="397.568" x2="475.515" y2="397.568" gradientUnits="userSpaceOnUse">
<stop stop-color="#9AFFFF"/>
<stop offset="1" stop-color="#B0FFFD"/>
</linearGradient>
<linearGradient id="paint33_linear_62_2650" x1="69.11" y1="382.641" x2="343.187" y2="411.448" gradientUnits="userSpaceOnUse">
<stop stop-color="#9AFFFF" stop-opacity="0"/>
<stop offset="1" stop-color="#B0FFFD"/>
</linearGradient>
<linearGradient id="paint34_linear_62_2650" x1="301.554" y1="475.24" x2="297.263" y2="475.24" gradientUnits="userSpaceOnUse">
<stop stop-color="#9AFFFF"/>
<stop offset="1" stop-color="#B0FFFD"/>
</linearGradient>
<linearGradient id="paint35_linear_62_2650" x1="308.012" y1="431.24" x2="312.303" y2="431.24" gradientUnits="userSpaceOnUse">
<stop stop-color="#9AFFFF"/>
<stop offset="1" stop-color="#B0FFFD"/>
</linearGradient>
<linearGradient id="paint36_linear_62_2650" x1="487.294" y1="459.395" x2="256.118" y2="435.098" gradientUnits="userSpaceOnUse">
<stop stop-color="#9AFFFF" stop-opacity="0"/>
<stop offset="1" stop-color="#B0FFFD"/>
</linearGradient>
<linearGradient id="paint37_linear_62_2650" x1="252.689" y1="449.46" x2="256.98" y2="449.46" gradientUnits="userSpaceOnUse">
<stop stop-color="#9AFFFF"/>
<stop offset="1" stop-color="#B0FFFD"/>
</linearGradient>
<linearGradient id="paint38_linear_62_2650" x1="-nan" y1="-nan" x2="-nan" y2="-nan" gradientUnits="userSpaceOnUse">
<stop stop-color="#9AFFFF" stop-opacity="0"/>
<stop offset="1" stop-color="#B0FFFD"/>
</linearGradient>
<linearGradient id="paint39_linear_62_2650" x1="-nan" y1="-nan" x2="-nan" y2="-nan" gradientUnits="userSpaceOnUse">
<stop stop-color="#9AFFFF" stop-opacity="0"/>
<stop offset="1" stop-color="#B0FFFD"/>
</linearGradient>
<linearGradient id="paint40_linear_62_2650" x1="-nan" y1="-nan" x2="-nan" y2="-nan" gradientUnits="userSpaceOnUse">
<stop stop-color="#9AFFFF" stop-opacity="0"/>
<stop offset="1" stop-color="#B0FFFD"/>
</linearGradient>
<linearGradient id="paint41_linear_62_2650" x1="-nan" y1="-nan" x2="-nan" y2="-nan" gradientUnits="userSpaceOnUse">
<stop stop-color="#9AFFFF" stop-opacity="0"/>
<stop offset="1" stop-color="#B0FFFD"/>
</linearGradient>
<linearGradient id="paint42_linear_62_2650" x1="-nan" y1="-nan" x2="-nan" y2="-nan" gradientUnits="userSpaceOnUse">
<stop stop-color="#9AFFFF" stop-opacity="0"/>
<stop offset="1" stop-color="#B0FFFD"/>
</linearGradient>
<linearGradient id="paint43_linear_62_2650" x1="-nan" y1="-nan" x2="-nan" y2="-nan" gradientUnits="userSpaceOnUse">
<stop stop-color="#9AFFFF" stop-opacity="0"/>
<stop offset="1" stop-color="#B0FFFD"/>
</linearGradient>
<linearGradient id="paint44_linear_62_2650" x1="-nan" y1="-nan" x2="-nan" y2="-nan" gradientUnits="userSpaceOnUse">
<stop stop-color="#9AFFFF" stop-opacity="0"/>
<stop offset="1" stop-color="#B0FFFD"/>
</linearGradient>
<linearGradient id="paint45_linear_62_2650" x1="-nan" y1="-nan" x2="-nan" y2="-nan" gradientUnits="userSpaceOnUse">
<stop stop-color="#9AFFFF" stop-opacity="0"/>
<stop offset="1" stop-color="#B0FFFD"/>
</linearGradient>
<linearGradient id="paint46_linear_62_2650" x1="-nan" y1="-nan" x2="-nan" y2="-nan" gradientUnits="userSpaceOnUse">
<stop stop-color="#9AFFFF" stop-opacity="0"/>
<stop offset="1" stop-color="#B0FFFD"/>
</linearGradient>
<linearGradient id="paint47_linear_62_2650" x1="-nan" y1="-nan" x2="-nan" y2="-nan" gradientUnits="userSpaceOnUse">
<stop stop-color="#9AFFFF" stop-opacity="0"/>
<stop offset="1" stop-color="#B0FFFD"/>
</linearGradient>
<linearGradient id="paint48_linear_62_2650" x1="-nan" y1="-nan" x2="-nan" y2="-nan" gradientUnits="userSpaceOnUse">
<stop stop-color="#9AFFFF" stop-opacity="0"/>
<stop offset="1" stop-color="#B0FFFD"/>
</linearGradient>
<linearGradient id="paint49_linear_62_2650" x1="211.541" y1="338.167" x2="273.282" y2="251.648" gradientUnits="userSpaceOnUse">
<stop stop-color="#5082C1"/>
<stop offset="0.16927" stop-color="#5891C8"/>
<stop offset="0.49353" stop-color="#6CB7DB"/>
<stop offset="0.93607" stop-color="#8DF5FA"/>
<stop offset="1" stop-color="#92FFFF"/>
</linearGradient>
<linearGradient id="paint50_linear_62_2650" x1="156.882" y1="242.257" x2="325.207" y2="242.257" gradientUnits="userSpaceOnUse">
<stop stop-color="#0061D6"/>
<stop offset="0.13938" stop-color="#0E70DA"/>
<stop offset="0.40651" stop-color="#3196E4"/>
<stop offset="0.77058" stop-color="#6BD4F4"/>
<stop offset="1" stop-color="#92FFFF"/>
</linearGradient>
<linearGradient id="paint51_linear_62_2650" x1="155.601" y1="151.353" x2="329.477" y2="151.353" gradientUnits="userSpaceOnUse">
<stop stop-color="#66BBF2"/>
<stop offset="1" stop-color="#7AF4FD"/>
</linearGradient>
<linearGradient id="paint52_linear_62_2650" x1="336.886" y1="407.056" x2="398.627" y2="320.538" gradientUnits="userSpaceOnUse">
<stop stop-color="#5082C1"/>
<stop offset="0.16927" stop-color="#5891C8"/>
<stop offset="0.49353" stop-color="#6CB7DB"/>
<stop offset="0.93607" stop-color="#8DF5FA"/>
<stop offset="1" stop-color="#92FFFF"/>
</linearGradient>
<linearGradient id="paint53_linear_62_2650" x1="282.228" y1="329.705" x2="450.552" y2="329.705" gradientUnits="userSpaceOnUse">
<stop stop-color="#004AD6"/>
<stop offset="0.12458" stop-color="#0C59D9"/>
<stop offset="0.36333" stop-color="#2B80E2"/>
<stop offset="0.68837" stop-color="#5DBDF0"/>
<stop offset="1" stop-color="#92FFFF"/>
</linearGradient>
<linearGradient id="paint54_linear_62_2650" x1="280.945" y1="257.359" x2="454.821" y2="257.359" gradientUnits="userSpaceOnUse">
<stop stop-color="#66BBF2"/>
<stop offset="1" stop-color="#7AF4FD"/>
</linearGradient>
<linearGradient id="paint55_linear_62_2650" x1="178.162" y1="438.172" x2="239.903" y2="351.653" gradientUnits="userSpaceOnUse">
<stop stop-color="#5082C1"/>
<stop offset="0.16927" stop-color="#5891C8"/>
<stop offset="0.49353" stop-color="#6CB7DB"/>
<stop offset="0.93607" stop-color="#8DF5FA"/>
<stop offset="1" stop-color="#92FFFF"/>
</linearGradient>
<linearGradient id="paint56_linear_62_2650" x1="123.504" y1="381.381" x2="291.828" y2="381.381" gradientUnits="userSpaceOnUse">
<stop stop-color="#0061D6"/>
<stop offset="0.13938" stop-color="#0E70DA"/>
<stop offset="0.40651" stop-color="#3196E4"/>
<stop offset="0.77058" stop-color="#6BD4F4"/>
<stop offset="1" stop-color="#92FFFF"/>
</linearGradient>
<linearGradient id="paint57_linear_62_2650" x1="122.222" y1="332.426" x2="296.098" y2="332.426" gradientUnits="userSpaceOnUse">
<stop stop-color="#66BBF2"/>
<stop offset="1" stop-color="#7AF4FD"/>
</linearGradient>
<linearGradient id="paint58_linear_62_2650" x1="371.07" y1="198.783" x2="393.671" y2="198.783" gradientUnits="userSpaceOnUse">
<stop stop-color="#66BBF2"/>
<stop offset="1" stop-color="#7AF4FD"/>
</linearGradient>
<linearGradient id="paint59_linear_62_2650" x1="255.272" y1="64.3726" x2="369.96" y2="64.3726" gradientUnits="userSpaceOnUse">
<stop stop-color="#00FF8F"/>
<stop offset="1" stop-color="#D8FFFA" stop-opacity="0"/>
</linearGradient>
<linearGradient id="paint60_linear_62_2650" x1="258.636" y1="82.6846" x2="363.623" y2="82.6846" gradientUnits="userSpaceOnUse">
<stop stop-color="#00FF8F"/>
<stop offset="1" stop-color="#D8FFFA"/>
</linearGradient>
<linearGradient id="paint61_linear_62_2650" x1="257.563" y1="64.284" x2="335.056" y2="64.284" gradientUnits="userSpaceOnUse">
<stop stop-color="#00FF8F"/>
<stop offset="1" stop-color="#D8FFFA"/>
</linearGradient>
<linearGradient id="paint62_linear_62_2650" x1="411.233" y1="177.967" x2="411.233" y2="298.978" gradientUnits="userSpaceOnUse">
<stop stop-color="#D8FFFA" stop-opacity="0.5"/>
<stop offset="1" stop-color="#00FF8F"/>
</linearGradient>
<linearGradient id="paint63_linear_62_2650" x1="411.281" y1="182.502" x2="411.281" y2="295.017" gradientUnits="userSpaceOnUse">
<stop stop-color="#02FFFA"/>
<stop offset="1" stop-color="#D8FFFA"/>
</linearGradient>
<linearGradient id="paint64_linear_62_2650" x1="387.091" y1="221.491" x2="387.091" y2="283.857" gradientUnits="userSpaceOnUse">
<stop stop-color="#00FF8F"/>
<stop offset="1" stop-color="#D8FFFA"/>
</linearGradient>
<linearGradient id="paint65_linear_62_2650" x1="403.883" y1="229.003" x2="403.883" y2="273.812" gradientUnits="userSpaceOnUse">
<stop stop-color="#00FF8F"/>
<stop offset="1" stop-color="#D8FFFA"/>
</linearGradient>
<linearGradient id="paint66_linear_62_2650" x1="420.671" y1="211.298" x2="420.671" y2="263.409" gradientUnits="userSpaceOnUse">
<stop stop-color="#00FF8F"/>
<stop offset="0.563886" stop-color="#7AFFCB"/>
<stop offset="1" stop-color="#D8FFFA"/>
</linearGradient>
<linearGradient id="paint67_linear_62_2650" x1="437.45" y1="222.099" x2="437.45" y2="253.419" gradientUnits="userSpaceOnUse">
<stop stop-color="#00FF8F"/>
<stop offset="1" stop-color="#D8FFFA"/>
</linearGradient>
<linearGradient id="paint68_linear_62_2650" x1="492.83" y1="214.294" x2="492.83" y2="239.722" gradientUnits="userSpaceOnUse">
<stop stop-color="#D8FFFA" stop-opacity="0.5"/>
<stop offset="1" stop-color="#00FF8F"/>
</linearGradient>
<linearGradient id="paint69_linear_62_2650" x1="250.12" y1="271.888" x2="250.12" y2="297.316" gradientUnits="userSpaceOnUse">
<stop stop-color="#D8FFFA" stop-opacity="0.5"/>
<stop offset="1" stop-color="#02FFFA"/>
</linearGradient>
<linearGradient id="paint70_linear_62_2650" x1="200.348" y1="60.2343" x2="200.348" y2="94.3823" gradientUnits="userSpaceOnUse">
<stop stop-color="#D8FFFA" stop-opacity="0.5"/>
<stop offset="1" stop-color="#02FFFA"/>
</linearGradient>
<linearGradient id="paint71_linear_62_2650" x1="119.614" y1="138.459" x2="119.614" y2="155.469" gradientUnits="userSpaceOnUse">
<stop stop-color="#D8FFFA" stop-opacity="0.5"/>
<stop offset="1" stop-color="#02FFFA"/>
</linearGradient>
<linearGradient id="paint72_linear_62_2650" x1="82.5262" y1="367.948" x2="82.5262" y2="384.958" gradientUnits="userSpaceOnUse">
<stop stop-color="#D8FFFA" stop-opacity="0.5"/>
<stop offset="1" stop-color="#02FFFA"/>
</linearGradient>
<linearGradient id="paint73_linear_62_2650" x1="363.494" y1="74.7333" x2="363.494" y2="91.7432" gradientUnits="userSpaceOnUse">
<stop stop-color="#D8FFFA" stop-opacity="0.5"/>
<stop offset="1" stop-color="#02FFFA"/>
</linearGradient>
<linearGradient id="paint74_linear_62_2650" x1="88.2019" y1="184.233" x2="88.2019" y2="209.662" gradientUnits="userSpaceOnUse">
<stop stop-color="#D8FFFA" stop-opacity="0.5"/>
<stop offset="1" stop-color="#02FFFA"/>
</linearGradient>
<linearGradient id="paint75_linear_62_2650" x1="166.582" y1="229.069" x2="166.582" y2="347.74" gradientUnits="userSpaceOnUse">
<stop stop-color="#D8FFFA" stop-opacity="0.5"/>
<stop offset="1" stop-color="#02FFFA"/>
</linearGradient>
<linearGradient id="paint76_linear_62_2650" x1="166.582" y1="288.144" x2="166.582" y2="322.874" gradientUnits="userSpaceOnUse">
<stop stop-color="#00FF8F"/>
<stop offset="1" stop-color="#D8FFFA"/>
</linearGradient>
<linearGradient id="paint77_linear_62_2650" x1="166.582" y1="295.739" x2="166.582" y2="330.469" gradientUnits="userSpaceOnUse">
<stop stop-color="#00FF8F"/>
<stop offset="1" stop-color="#D8FFFA"/>
</linearGradient>
<linearGradient id="paint78_linear_62_2650" x1="181.657" y1="297.584" x2="137.374" y2="240.217" gradientUnits="userSpaceOnUse">
<stop stop-color="#00FF8F"/>
<stop offset="1" stop-color="#D8FFFA"/>
</linearGradient>
<linearGradient id="paint79_linear_62_2650" x1="272.882" y1="79.6584" x2="251.548" y2="68.0769" gradientUnits="userSpaceOnUse">
<stop stop-color="#3660CD"/>
<stop offset="0.74638" stop-color="#62AEF0"/>
<stop offset="1" stop-color="#72C9FC"/>
</linearGradient>
</defs>
</svg>
