<svg width="392" height="168" viewBox="0 0 392 168" fill="none" xmlns="http://www.w3.org/2000/svg">
<path d="M1.16895 109.352C14.6399 74.5853 72.4262 5.58637 195.804 7.72587C319.182 9.86537 377.563 90.8297 391.331 131.044" stroke="url(#paint0_linear_84_869)"/>
<path d="M23.1582 145.264C35.121 110.427 86.4377 41.2892 196.003 43.433C305.567 45.5768 357.412 126.704 369.639 167" stroke="url(#paint1_linear_84_869)"/>
<path d="M195.804 0C196.066 4.15346 199.377 7.4637 203.53 7.72598C199.377 7.98828 196.066 11.2985 195.804 15.452C195.542 11.2985 192.232 7.98828 188.078 7.72598C192.232 7.4637 195.542 4.15346 195.804 0Z" fill="#00FF8F"/>
<path d="M280.959 58.1333C279.904 60.8144 281.007 63.8617 283.534 65.2457C280.853 64.1906 277.806 65.294 276.422 67.821C277.477 65.1399 276.374 62.0926 273.847 60.7086C276.528 61.7637 279.575 60.6603 280.959 58.1333Z" fill="#00FF8F"/>
<path d="M78.295 21.9457C80.796 26.3667 86.1944 28.2378 90.8949 26.3129C86.4739 28.8138 84.6028 34.2122 86.5277 38.9127C84.0267 34.4917 78.6283 32.6206 73.9278 34.5455C78.3488 32.0446 80.22 26.6461 78.295 21.9457Z" fill="#00FF8F"/>
<defs>
<linearGradient id="paint0_linear_84_869" x1="196.25" y1="7.67725" x2="196.25" y2="131.044" gradientUnits="userSpaceOnUse">
<stop stop-color="#00FF8F"/>
<stop offset="0.491178" stop-color="#00FF8F" stop-opacity="0"/>
</linearGradient>
<linearGradient id="paint1_linear_84_869" x1="196.398" y1="43.3843" x2="196.398" y2="167" gradientUnits="userSpaceOnUse">
<stop stop-color="#00FF8F"/>
<stop offset="0.491178" stop-color="#00FF8F" stop-opacity="0"/>
</linearGradient>
</defs>
</svg>
